<?xml version="1.0" encoding="UTF-8"?>
<svg width="106px" height="119px" viewBox="0 0 106 119" version="1.1" xmlns="http://www.w3.org/2000/svg" xmlns:xlink="http://www.w3.org/1999/xlink">
    <title>Group 16</title>
    <g id="Sitio-web-/-dashboard" stroke="none" stroke-width="1" fill="none" fill-rule="evenodd">
        <g id="Home---2024" transform="translate(-866, -1807)">
            <g id="Group-16" transform="translate(866, 1807.7187)">
                <g id="Group-15" transform="translate(52.7111, 58.7329) scale(-1, 1) translate(-52.7111, -58.7329)">
                    <circle id="Oval" fill="#65D5C9" fill-rule="nonzero" cx="24.5" cy="51.7812805" r="24.5"></circle>
                    <g id="Group-14" transform="translate(21.6313, 0)">
                        <path d="M2.7003994,27.4402508 C3.06098044,27.8765767 3.76325986,28.0554871 4.23143613,27.6845906 C4.46989989,27.4955057 4.6298427,27.2090069 4.97440147,27.3180959 C5.25358102,27.4067857 5.487684,27.6206017 5.73485899,27.7718496 C5.99478579,27.9511301 6.30641004,28.0400701 6.6217947,28.0249233 C6.97365451,27.9943896 7.29061952,27.8402103 7.62358665,27.7340527 C7.98252746,27.6120779 8.3772932,27.6585788 8.69807863,27.8605695 C9.0630303,28.0685529 9.40615869,28.3187251 9.75803852,28.5470676 C10.4850414,29.0168486 11.2222056,29.4749744 11.9608002,29.9287882 C13.4307683,30.830533 14.9022269,31.7235439 16.4041796,32.570024 C18.0980494,33.5241224 19.8123124,34.4898658 21.5861835,35.2898149 C21.8289879,35.4003346 22.0441689,35.0527087 21.7998943,34.9247513 C20.3023022,34.14226 18.777096,33.4179448 17.2925758,32.6121931 C15.8080556,31.8064414 14.3845742,30.9861528 12.9596825,30.1207442 C12.2327095,29.6844183 11.5289695,29.2219307 10.8237896,28.7565117 C10.480661,28.5315607 10.1389728,28.3031884 9.79874468,28.0714843 C9.46724775,27.8211919 9.11618772,27.5979716 8.74894571,27.4038844 C8.43353105,27.2486347 8.07502028,27.2040548 7.73116159,27.2773677 C7.39676425,27.3500604 7.08996096,27.5173455 6.75702381,27.5988021 C6.12015367,27.7558826 5.7014243,27.209007 5.15761733,27.0024643 C4.87009662,26.8842212 4.54030989,26.9406965 4.30849707,27.1479195 C4.19642121,27.2785982 4.0689932,27.3953106 3.92901337,27.4955156 C3.79087381,27.5624356 3.63478167,27.5828347 3.48410034,27.5536816 C3.12613967,27.4900831 2.83657867,27.2264448 2.73964494,26.8759174 C2.64365135,26.4558388 2.71846199,26.0147808 2.94756442,25.6498469 C2.98250937,25.5908304 2.96297657,25.5146262 2.90394822,25.4797005 C2.84494986,25.4447448 2.76879909,25.4642836 2.73382413,25.5233301 L2.7236827,25.5305834 C2.38342452,26.0948967 2.24821538,26.8933752 2.7003994,27.4402508 Z" id="Path-682" fill="#000000"></path>
                        <path d="M21.1639595,25.4387004 C19.1474838,24.6450568 17.1179171,23.9182934 14.9618855,23.6203071 C13.8191669,23.4618503 12.6706188,23.3630248 11.5279303,23.2045981 C10.3852117,23.0461413 9.26138377,22.8251937 8.12303543,22.6638474 C6.04402709,22.37315 3.86910439,22.2612264 1.8482585,22.9385871 C1.318546,23.0985036 0.812844545,23.3292798 0.344994664,23.6246765 C0.141466022,23.7627762 -0.0388416508,23.9706357 0.00913038757,24.2337171 C0.0633326909,24.4481656 0.230819806,24.6156211 0.445308924,24.6697831 C0.691019371,24.7437123 0.944960207,24.7866761 1.20129108,24.7976944 C1.52061465,24.8291798 1.84142813,24.8432476 2.16230178,24.8398681 C2.79883885,24.8361486 3.432926,24.76008 4.05227232,24.6131215 C4.31833363,24.5477011 4.19766834,24.152309 3.94032741,24.2046413 C2.8993932,24.4125009 1.78429586,24.5055572 0.733161151,24.3064064 C0.629946768,24.2875191 0.366815589,24.2424558 0.4424088,24.0912579 C0.495661061,24.0192785 0.56613408,23.961787 0.647407532,23.9241425 C0.77098278,23.8470938 0.901848257,23.7787438 1.03121376,23.7133534 C1.46080202,23.4969251 1.91016108,23.3221708 2.37310076,23.19152 C4.32707381,22.6333418 6.38859165,22.7743411 8.37454605,23.0665383 C9.44167137,23.2234952 10.502996,23.4168269 11.5730114,23.5810828 C12.6648278,23.7496981 13.7639347,23.8587221 14.8557711,24.0258676 C15.8755944,24.1767254 16.8839369,24.3967232 17.873909,24.684341 C18.8320197,24.9663396 19.7726402,25.3006405 20.7074699,25.6465697 C22.8198998,26.428595 24.923588,27.2774608 27.1479626,27.6815815 C27.3035192,27.7106272 27.3718828,27.473722 27.2133961,27.4417167 L27.2075863,27.4460659 C25.1184175,27.0274573 23.1368233,26.2163563 21.1639595,25.4387004 Z" id="Path-683" fill="#000000"></path>
                        <path d="M24.6145458,36.0579395 C23.6876481,38.0839093 22.3024787,39.8668274 20.5684233,41.2660637 C19.3423904,42.2532851 17.7861898,43.0646113 16.2459955,42.7374477 C15.2424657,42.5237393 14.3843766,41.8403602 13.7822547,41.0086994 C13.1801328,40.1770187 12.8107181,39.1999581 12.5096922,38.222868 C10.9883658,33.3622708 10.909843,28.1904812 10.8225865,23.0928726 C10.809461,22.2204865 10.7949851,21.3481003 10.7033367,20.4873457 C10.6509448,19.9973705 10.5680901,19.4913835 10.3019187,19.0755382 C9.50196409,17.8265818 7.50802991,17.9370966 6.56555566,16.7928143 C6.40001641,16.618341 6.31147938,16.3846902 6.31978286,16.1443481 C6.38817147,15.5482188 7.21132582,15.4580667 7.80618465,15.5322165 C7.35531604,15.9247988 6.50883194,15.5656508 6.47835919,14.9680812 C6.4477664,14.3704817 7.25352344,13.9284828 7.74219787,14.2730687 C7.19386852,14.418478 6.75466475,13.5926182 7.11101383,13.1520596 C7.46730286,12.7115109 8.24252716,12.817645 8.58135891,13.2727456 C8.30384281,13.2034964 8.06771402,13.0217522 7.92965627,12.7712488 C7.79171857,12.5207255 7.76436718,12.224076 7.85418475,11.9525498 C7.8827567,11.8653182 7.93575888,11.7881179 8.00689864,11.7300902 C8.14507644,11.6268664 8.33705677,11.6515697 8.50576735,11.6821138 C9.81948686,11.9223758 11.1040841,12.3010762 12.3380604,12.8118542 C12.0035705,12.7754894 11.663218,12.3901981 11.878458,12.1328438 C12.052971,11.9220157 11.8595901,11.1819372 13.1786819,11.4843675 C16.1223533,12.1590173 15.3137355,15.471148 15.6889524,17.5663271 C16.0642294,19.6614962 16.0467718,21.8235643 16.5979624,23.879488 C16.955712,25.2156659 17.5476996,26.4777238 17.9388533,27.8052006 C18.3301269,29.1326773 18.5105022,30.5808208 18.0392351,31.8763332" id="Path-685" fill="#FFFFFF"></path>
                        <path d="M8.60186601,11.8463255 C8.77485283,11.881207 8.95507903,11.9219187 9.13099563,11.9641005 C9.49293804,12.0498541 9.85781029,12.1487383 10.2110534,12.2548528 C10.9164396,12.4598514 11.6103867,12.7025017 12.2897849,12.9817835 L12.3813882,12.6517495 C12.2360093,12.6284985 12.0223152,12.5310744 11.9888678,12.3609972 C11.9685493,12.2664832 12.0572226,12.1821597 12.0906401,12.094936 C12.1190779,11.9689507 12.1650645,11.8475456 12.2273197,11.7343908 C12.3726686,11.5453828 12.6924641,11.5803043 12.8974385,11.6108156 C13.2434222,11.6613577 13.5785367,11.7694522 13.888823,11.930649 C14.9848995,12.5121836 15.2451296,13.7697468 15.3425121,14.9081049 C15.3933783,15.5143605 15.3962781,16.123516 15.436985,16.7297716 C15.4907809,17.5250052 15.6608779,18.3071986 15.7480912,19.0995321 C15.8614526,20.1273756 15.9385065,21.1581489 16.0853453,22.1831322 C16.2348739,23.2080455 16.4856452,24.2156579 16.8339787,25.1910992 C17.5826416,27.2991583 18.6597998,29.5758948 17.8617306,31.8322201 C17.7817767,32.0575996 18.1378895,32.1535241 18.2164135,31.9311047 C18.970906,29.8012247 18.0710643,27.5695902 17.3442297,25.5792761 C16.9446301,24.5388921 16.6480832,23.4617563 16.4589176,22.36341 C16.2786614,21.2468429 16.1929177,20.1186547 16.0591679,18.9977574 C15.9603254,18.1748727 15.7916982,17.3636586 15.7466316,16.5364137 C15.7117543,15.8807459 15.7146538,15.220718 15.6506886,14.5664504 C15.6108317,13.9319636 15.4479141,13.3112674 15.1709852,12.7389833 C14.8727579,12.1759995 14.3859153,11.7359508 13.7958202,11.4959807 C13.27395,11.2793316 12.2302396,10.959488 11.8886156,11.6224461 C11.8478487,11.7056696 11.8157111,11.7928932 11.7926729,11.882677 C11.7824836,11.9204886 11.7693946,11.9582703 11.7577655,11.9960518 C11.7679548,11.9611704 11.7577654,12.0033422 11.7505059,12.0091424 C11.7321973,12.0307233 11.7161486,12.0540943 11.7025397,12.0789353 C11.462688,12.4802023 11.9118735,12.9163407 12.2840052,12.9730431 C12.3727484,12.9920539 12.4609918,12.9386516 12.48525,12.8511779 C12.5095081,12.7637142 12.4614519,12.6724604 12.3756084,12.6430092 C11.6354648,12.3322661 10.8742629,12.0742851 10.097702,11.8710365 C9.71391127,11.7736224 9.32869056,11.6878288 8.93477058,11.6137057 C8.6222344,11.5541031 8.22391477,11.4275978 7.93463683,11.6137057 C7.87565133,11.6482271 7.85578284,11.7240603 7.8903302,11.7830528 C7.92480758,11.8420753 8.0006418,11.8619462 8.05965731,11.8274247 L8.06980653,11.8375952 C8.23410401,11.7445712 8.42887919,11.811444 8.60186601,11.8463255 Z" id="Path-686" fill="#000000"></path>
                        <path d="M22.3529282,39.2968578 C21.4980318,40.2972341 20.4992692,41.2364833 19.3565207,41.9009438 C18.2138321,42.5654342 16.8530549,42.9187218 15.6114922,42.3458538 C14.4120412,41.788988 13.635698,40.6563538 13.1297565,39.4728127 C12.5583822,38.1366007 12.2050971,36.6942651 11.9157748,35.2737217 C11.6263925,33.8127427 11.4200836,32.3365211 11.2979484,30.8521891 C11.1699529,29.3807687 11.1030501,27.9035473 11.0594783,26.4277563 C11.0158364,24.9301723 11.0187667,23.4310981 10.9678645,21.9335241 C10.9431435,21.2181567 10.9257525,20.4722652 10.7614355,19.7714598 C10.6477807,19.2331165 10.3463179,18.752771 9.91093946,18.4163553 C9.11280555,17.8056721 8.07041126,17.6719038 7.23150563,17.1339206 C7.02983706,17.0050231 6.84934941,16.8456114 6.69651291,16.6613863 C6.54239635,16.4796615 6.28218528,16.7428174 6.43484177,16.9231119 C7.10650035,17.7198804 8.17942584,17.9089361 9.08516431,18.326193 C9.54899403,18.5414023 9.98223247,18.832182 10.2279129,19.2945549 C10.5637472,19.9284913 10.5666772,20.7383513 10.6029887,21.4362364 C10.6829521,22.9585737 10.6669518,24.4896019 10.7076735,26.0104389 C10.7483853,27.531306 10.8138179,29.0565343 10.9446235,30.574481 C11.0683487,32.0654041 11.2687374,33.5489764 11.5450492,35.0192966 C11.8082404,36.4771051 12.1974167,37.9093101 12.7081184,39.2997894 C13.1762784,40.5240161 13.8799183,41.7046559 15.0168667,42.4156628 C16.1537549,43.1266396 17.5145326,43.1106784 18.7386446,42.5944881 C19.9628166,42.0783378 21.0400724,41.1783447 21.9662018,40.225975 C22.889461,39.2755556 23.6726953,38.1984783 24.2922916,37.0272388 C24.4493383,36.7364593 24.5830737,36.431089 24.7284698,36.1243172 C24.7909725,35.9789074 24.5830724,35.8538597 24.5133095,35.9992695 L24.50457,35.9992599 C23.9309356,37.1857616 23.2078245,38.2939413 22.3529282,39.2968578 Z" id="Path-687" fill="#000000"></path>
                        <path d="M36.2286377,39.1629236 C36.3812748,48.7202404 39.019834,61.1120577 43.8128319,69.3756371 C45.0470582,71.5051434 46.5386097,73.6564674 48.7788668,74.6725121 C51.8317282,76.0563576 55.3875701,74.987959 58.4971905,73.7465744 C64.8747578,71.1969841 67.9843068,69.3625803 73.6640778,65.5003948 C76.1558499,63.8055507 79.0895126,61.8998938 81.9504776,62.8418083 C82.4098788,62.987179 82.95791,63.2037596 83.3359528,62.9028397 C83.7721044,62.5525463 83.5801463,61.8562901 83.3460808,61.3446083 L81.1814537,56.626276 C80.8281905,55.8558987 80.3687906,54.9953949 79.5416565,54.8049603 C79.151164,54.7076832 78.7403409,54.7320291 78.3641281,54.8747101 C73.3297448,56.9373653 67.7517223,57.4490175 62.1722393,58.5871658 C58.1162872,59.4127958 57.2803624,59.6191986 53.4177666,61.1047707 C52.4524551,51.6201649 49.6133409,43.9074416 46.0254498,38.1032848" id="Path-688" fill="#FFFFFF"></path>
                        <path d="M83.3489652,61.3433208 L81.184351,56.6241149 C80.8311599,55.8536296 80.3717743,54.9929403 79.5446086,54.8025016 C79.1541895,54.7051472 78.7433215,54.7294983 78.3670616,54.8722648 C77.5079776,55.2240909 76.6328444,55.5279348 75.7504417,55.8012673 C75.8962439,56.5574018 76.0875236,57.3041461 76.323221,58.0372696 C76.8320438,59.7281469 77.3480663,61.4246945 78.0923564,63.0239477 C79.3643184,62.571837 80.6697985,62.4162494 81.9592195,62.8407688 C82.4127452,62.9919557 82.9607559,63.2027854 83.3387856,62.9018116 L83.3387756,62.9018021 C83.7748523,62.5514461 83.5829626,61.8550643 83.3489652,61.3433208 Z" id="Path-689" fill="#65D5C9"></path>
                        <path d="M39.8120148,60.7248325 C40.9315284,64.0597882 42.3171937,67.3439338 44.1738653,70.338707 C45.1232586,71.8637388 46.2486328,73.3494993 47.7781754,74.3351669 C49.4168009,75.392055 51.3766855,75.6581192 53.2857933,75.4226074 C55.303854,75.1725455 57.2216229,74.4587607 59.1015472,73.6998749 C60.7808876,73.0180496 62.4456362,72.2998418 64.0740604,71.5017357 C67.1404665,69.9999841 70.0206904,68.1783807 72.8501282,66.268116 C74.5206776,65.1428673 76.1854833,63.8984085 78.0988617,63.2151432 C78.9966088,62.8674205 79.9613841,62.7272895 80.9209785,62.8051701 C81.4167677,62.8575105 81.8646314,63.0276114 82.3414383,63.1569824 C82.7180732,63.2602232 83.1499475,63.3023736 83.4697456,63.0348816 C84.1327847,62.4824473 83.615151,61.4880586 83.3345375,60.8803539 L81.9198189,57.8041306 C81.5316526,56.956594 81.2030625,55.9883459 80.5851288,55.2731304 C80.0245719,54.6274054 79.1201745,54.4009338 78.3213692,54.7061062 C77.3268005,55.0811991 76.3410319,55.4504328 75.3218002,55.7499352 C74.3258314,56.0406774 73.319733,56.2936692 72.3063622,56.5175209 C70.2170029,56.9784045 68.1029801,57.3273064 65.9947586,57.6922092 C63.9592357,58.044022 61.9237125,58.4307463 59.9027214,58.8726997 C58.5315278,59.165942 57.1797374,59.5431734 55.8548794,60.0022869 C55.0203698,60.2930292 54.1930002,60.6099631 53.3686218,60.9268856 L53.6085815,61.1100559 C53.26064,57.616679 52.6161526,54.1592226 51.6820211,50.7751064 C50.8614932,47.8083436 49.7798741,44.9200215 48.4499454,42.14397 C47.767184,40.7280991 47.0115442,39.3485682 46.1861258,38.0108179 C46.0596507,37.8043663 45.7339817,37.9933878 45.861867,38.1998494 C47.3463541,40.6181081 48.6087149,43.1658578 49.6334372,45.8118782 C50.8002064,48.8293614 51.7025928,51.9424448 52.3305378,55.1161194 C52.7274952,57.0946846 53.0226413,59.0936611 53.2290859,61.1027966 C53.2392171,61.2118374 53.3424995,61.3339678 53.4689846,61.2859974 C54.9229581,60.724803 56.3957844,60.1636782 57.9050045,59.742075 C59.4563996,59.3059416 61.0425886,59.0006493 62.6201668,58.6866169 C66.7188659,57.8724906 70.8901935,57.3665671 74.9205246,56.2326183 C75.8990313,55.9578662 76.8674173,55.6511046 77.8168106,55.2818317 C78.3053289,55.0957303 78.7488695,54.8747888 79.2867737,54.9387493 C79.6968526,54.9904497 80.070928,55.1988512 80.330719,55.5202637 C80.5929603,55.8468962 80.8091076,56.2078586 80.9733772,56.5931816 C81.2030846,57.0816454 81.424051,57.5744488 81.6494179,58.0643826 L83.0219612,61.0577564 C83.1978822,61.4401094 83.4203302,61.8471622 83.4247208,62.2803955 C83.4247208,62.8269997 82.9609131,62.9404011 82.507309,62.8284702 C82.0536448,62.7165294 81.6247523,62.5377268 81.1579666,62.4737263 C80.7091831,62.4088758 80.2541108,62.399107 79.802887,62.4446774 C77.8997098,62.6380388 76.1680533,63.6382257 74.5992661,64.6631336 C73.0304189,65.6880715 71.4965357,66.7652889 69.9160271,67.7742367 C68.5682062,68.6348733 67.1971933,69.4591903 65.7897453,70.2166061 C64.3358319,71.0002122 62.8498832,71.7125298 61.3392029,72.3740349 C59.5450388,73.159071 57.7247022,73.9412171 55.8461781,74.5038414 C53.967724,75.0664358 51.9685159,75.4008146 50.0492868,74.9283409 C48.2493321,74.4922076 46.817151,73.313192 45.6874361,71.887001 C44.614428,70.5364306 43.7609959,69.0026973 42.9787426,67.4704056 C42.1917787,65.9178736 41.489975,64.323591 40.8763218,62.6947384 C39.5942488,59.273452 38.5854585,55.7558751 37.8593619,52.1751575 C37.1266745,48.6860607 36.6527979,45.147603 36.4418327,41.5886455 C36.3962373,40.7803192 36.3661437,39.9715331 36.351612,39.1622669 C36.351612,39.0939963 36.2963054,39.0386958 36.2280572,39.0386958 C36.1598091,39.0386958 36.1045025,39.0939963 36.1045025,39.1622669 L36.1015521,39.1622568 C36.276743,46.4925734 37.5268922,53.7575188 39.8120148,60.7248325 Z" id="Path-690" fill="#000000"></path>
                        <path d="M28.9977036,39.1616218 C25.3309207,48.7334821 22.9546618,59.9510584 21.6815324,69.2147121 C19.9505861,81.8104963 19.2399227,94.5109615 19.2689643,107.230309 C19.2776918,111.148331 18.3867709,113.214165 16.0992367,115.37162 C15.8684738,115.592485 15.7872575,115.92751 15.8912272,116.229576 C15.995197,116.531642 16.2653884,116.745575 16.5831659,116.777435 C18.2530899,116.934449 19.9622525,116.954809 21.5987363,117.174324 C23.121793,117.377878 24.8833005,117.478162 25.9689846,116.390739 C26.6418888,115.717625 26.8845477,114.737756 27.0996351,113.808777 C28.9410193,105.84337 30.6385853,98.30827 32.4771004,90.341423 C33.2284717,87.0906849 33.9842329,83.8094575 34.0365276,80.4729576 C34.0873528,77.2993112 33.5045809,74.076185 34.2342186,70.98106 C34.7065511,68.980618 35.7049816,67.1517277 36.6452579,65.3242893 C40.24669,58.3213325 43.5313134,45.8534519 42.147686,38.1007996" id="Path-691" fill="#FFFFFF"></path>
                        <path d="M16.0990395,115.373901 C15.8683042,115.594849 15.7871217,115.929897 15.8910609,116.232097 C15.9950302,116.534236 16.2651725,116.748222 16.5828569,116.780091 C18.2522618,116.937172 19.9608837,116.957507 21.5968981,117.177045 C23.1195687,117.380648 24.8805001,117.481015 25.9658661,116.393269 C26.6385732,115.719992 26.8811614,114.739884 27.0962458,113.81068 C27.2023238,113.349739 27.3069424,112.893139 27.4129505,112.435078 C24.4809432,112.656086 21.4037011,112.5921 18.7027087,111.523339 C18.2086773,113.000777 17.3703568,114.174245 16.0990395,115.373901 Z" id="Path-692" fill="#65D5C9"></path>
                        <path d="M24.384244,53.7825766 C23.2312306,58.5801954 22.3224563,63.4286461 21.6215949,68.3062172 C20.8277087,73.8307157 20.2460661,79.384275 19.8375611,84.9480247 C19.421725,90.5917268 19.1793764,96.2446594 19.1105754,101.906792 C19.0901822,103.32184 19.0795005,104.736884 19.0785303,106.151962 C19.0785303,107.354265 19.0989235,108.558008 18.9243958,109.75161 C18.6778366,111.543928 17.8888912,113.218048 16.6634765,114.549164 C16.176339,115.081278 15.3272041,115.652641 15.8070204,116.471123 C16.012073,116.821502 16.3494065,116.933419 16.7317873,116.9683 C17.3977232,117.029372 18.0665296,117.064252 18.7339957,117.103523 C20.006228,117.177655 21.2668681,117.349253 22.5376401,117.442276 C23.5234568,117.514938 24.5936268,117.474263 25.4732866,116.97123 C26.406725,116.437675 26.8414848,115.462156 27.1046467,114.463409 C27.4521719,113.146264 27.7255352,111.804365 28.0308838,110.474129 C28.6570833,107.739985 29.2813219,105.003897 29.9036808,102.265873 C30.5201688,99.5520899 31.1438678,96.8436363 31.7749481,94.1405334 C32.4074387,91.41313 33.0980989,88.6901553 33.6113605,85.9366112 C33.8670812,84.6072555 34.049051,83.2647887 34.1566181,81.9153824 C34.2387812,80.5417755 34.2387812,79.1644896 34.1566181,77.7909126 C34.0286078,75.0446486 33.8861848,72.2983942 34.8225536,69.6640434 C35.661497,67.3001797 37.0238936,65.1572425 38.0097103,62.8529205 C39.008099,60.5051973 39.854064,58.0956228 40.5425835,55.6391068 C40.9070814,54.347142 41.2322726,53.0430865 41.518198,51.7269211 C41.5677059,51.501575 41.2274423,51.4056225 41.1721935,51.6323786 C40.1005532,56.5652213 38.4881155,61.3874912 36.1689568,65.8797722 C35.0057518,68.1390529 33.9719485,70.3866329 33.7567043,72.9598923 C33.5313885,75.6421845 33.9544861,78.3259168 33.8556004,81.0111389 C33.7538342,83.7733932 33.1911234,86.5021973 32.5789661,89.1961098 C31.9668688,91.8900023 31.3489111,94.5650537 30.738224,97.2516861 C29.5333225,102.561029 28.3177991,107.867939 27.0915842,113.172432 C26.8284224,114.306402 26.6364923,115.643943 25.6898718,116.442055 C24.8262045,117.168944 23.6019497,117.202422 22.5332398,117.11953 C21.2871917,117.025017 20.051275,116.852036 18.8037066,116.773544 C18.1363006,116.732803 17.4674944,116.696452 16.8015585,116.62812 C16.5194736,116.60194 16.2591722,116.561259 16.106558,116.293762 C15.9820282,116.079006 15.9909996,115.811963 16.1298117,115.606117 C16.3885828,115.232507 16.8131503,114.930074 17.1170286,114.588425 C17.3907521,114.278636 17.6451925,113.952385 17.8789897,113.611465 C18.3355423,112.940307 18.6907689,112.205518 18.9331174,111.430717 C19.6034539,109.30529 19.4493094,107.031518 19.4609113,104.834808 C19.4900259,99.2782888 19.6717647,93.7257123 20.0061679,88.1769829 C20.346432,82.6583142 20.8587234,77.1531854 21.5430322,71.6616478 C22.15812,66.7884369 22.9534767,61.9414158 23.9858007,57.1380367 C25.0163646,52.2258844 26.3271126,47.3767843 27.9115944,42.6143961 C28.2998361,41.4688252 28.6953492,40.3260946 29.1141157,39.1921241 C29.1693645,39.0467302 28.9352576,38.9827685 28.8785486,39.1281624 L28.8800182,39.1324925 C27.0028899,43.8864302 25.579384,48.8163428 24.384244,53.7825766 Z" id="Path-693" fill="#000000"></path>
                        <path d="M24.1955252,4.43844342 C23.3862773,5.86173582 24.1170838,7.86363518 23.1161149,9.15754366 C23.0107103,9.26907698 22.9287311,9.40056098 22.8748745,9.54425526 C22.7949641,9.84373417 23.0202343,10.0792616 23.3107641,10.2406464 C23.8643106,10.5473855 23.8338196,11.3426188 23.9035363,11.8892651 C23.9791094,12.4707924 24.0067422,13.0523092 24.1156247,13.6193161 C24.210106,14.1077906 24.4134699,14.6021056 24.8116028,14.8986645 C25.1406187,15.1241012 25.5350941,15.2340348 25.933217,15.2112341 C26.5259892,15.1981437 27.0853322,14.9742765 27.6766453,14.9451857 C27.8756818,14.9350054 28.0994831,14.9291952 28.2578249,15.0614891 C28.3502975,15.159152 28.415507,15.279496 28.4466677,15.4103899 C28.6849798,16.1247011 28.9135379,16.8428928 29.132462,17.5649643 C29.1708882,17.75798 29.2660489,17.935125 29.4055424,18.0737991 C29.5987825,18.2293538 29.8763204,18.2191933 30.1218381,18.1799221 C32.0046399,17.9017638 33.6972001,16.8794835 34.8204632,15.3420877 C34.9338528,15.2143039 34.9986921,15.0506087 35.0035191,14.8797636 C34.9666719,14.7112386 34.8777473,14.5586141 34.749217,14.4436207 C33.7361156,13.2527852 33.0276253,11.8333033 32.6846981,10.307498 C32.1195588,7.91885686 33.2004277,4.79607403 31.3640471,2.79415452 C30.9246797,2.31904039 30.3509461,1.98938056 29.719378,1.84917638 C28.6486923,1.62624975 27.5359826,1.72748277 26.523061,2.13994503 C25.6310345,2.4917655 24.4774603,3.18086588 24.3292322,4.2290771" id="Path-694" fill="#FFFFFF"></path>
                        <path d="M23.5991761,6.49533319 C23.548333,7.22342336 23.5512032,7.97475505 23.2372141,8.6345396 C23.1610395,8.79396272 23.0669137,8.94413923 22.956617,9.08214998 C22.8193387,9.22308969 22.725893,9.4007659 22.6876207,9.59368706 C22.6455081,9.9657343 22.9304354,10.2142262 23.2168229,10.3915329 C23.5032803,10.5688396 23.5919657,10.8725615 23.6428088,11.18503 C23.6995122,11.5308966 23.7213036,11.8869393 23.7576858,12.2342653 C23.8463712,13.0640892 23.8477813,14.0276054 24.3799137,14.720788 C24.9120461,15.4140106 25.7756284,15.4590546 26.5607762,15.3137264 C26.9969028,15.230886 27.4475504,15.0841185 27.8968577,15.1175365 C28.1512632,15.1364198 28.216697,15.3035498 28.2908015,15.5215321 L28.5220156,16.2263603 C28.6673444,16.6855964 28.8127435,17.1462724 28.9582024,17.6084175 C29.0700892,17.9673594 29.2373292,18.2885346 29.6414738,18.3582897 C30.0078861,18.4222269 30.4192909,18.3161453 30.7754526,18.2318554 C31.1498054,18.1414177 31.5163382,18.0213904 31.8717098,17.8729134 C32.5848232,17.5730804 33.2469735,17.1641962 33.8344193,16.6608858 C34.1344275,16.4043874 34.4121545,16.1228973 34.6645498,15.8194456 C34.8826431,15.5564195 35.2098127,15.222169 35.1719704,14.8530407 C35.1440787,14.6832713 35.0649038,14.526087 34.9451466,14.4025211 C34.7998177,14.2252344 34.6442281,14.0552059 34.5090199,13.8706417 C34.2473439,13.522226 34.0116095,13.1549969 33.8038969,12.7719736 C33.3970121,12.0161733 33.0872431,11.2119401 32.8821507,10.3784676 C32.7257111,9.67012036 32.654417,8.94562864 32.669858,8.22037745 C32.669858,6.7976352 32.7992558,5.28189611 32.2555227,3.93035841 C31.9962269,3.25209045 31.5482702,2.66212097 30.9644947,2.23005515 C30.2739027,1.73739097 29.41466,1.56009423 28.5787292,1.5702706 C27.7503688,1.58593501 26.9339791,1.77090901 26.1798432,2.11379665 C25.5575553,2.38990813 24.944048,2.77066231 24.5457138,3.33307159 C24.3596625,3.59119949 24.238505,3.89027277 24.1923622,4.20503044 C24.1705709,4.36778237 24.4163158,4.4418959 24.4453676,4.27479553 C24.5601846,3.61935943 25.0691255,3.13978055 25.6084583,2.79246449 C26.2159153,2.40686211 26.8906366,2.13914759 27.5973496,2.00334606 C28.4173495,1.82174087 29.2711611,1.86441565 30.0689397,2.126872 C30.7710124,2.39330694 31.3554578,2.90070581 31.7175999,3.55835116 C32.4038616,4.7587328 32.3471587,6.22360015 32.3296976,7.55915356 C32.3060762,8.23791134 32.3259769,8.91749889 32.3892708,9.59371758 C32.4843666,10.3314043 32.6724279,11.0540761 32.9490547,11.7445297 C33.2355121,12.4982408 33.6155357,13.2130156 34.080164,13.8721104 C34.1906407,14.0276049 34.3069878,14.1787511 34.4275951,14.3269682 C34.5482725,14.4752153 34.7329139,14.6263413 34.8070784,14.803648 C34.8812429,14.9809547 34.7402439,15.1567826 34.6384277,15.2963028 C34.5192205,15.4576252 34.3912827,15.6131198 34.2560844,15.7627964 C33.2645641,16.8685418 31.9458838,17.6291502 30.4920053,17.9339714 C30.1924871,17.9949996 29.6749358,18.1519436 29.4495821,17.8642063 C29.3528962,17.7038136 29.2849622,17.5277361 29.24895,17.3439617 C29.1800958,17.1191719 29.1103314,16.8944122 29.0396471,16.6696224 C28.9029188,16.233648 28.7633204,15.797684 28.6151214,15.3616896 C28.5726388,15.1958088 28.4850433,15.044912 28.3621159,14.9257345 C28.2142769,14.8156638 28.0331158,14.7597438 27.8489046,14.7673111 C27.0231144,14.7527763 26.2177055,15.1945687 25.3919053,14.9780359 C24.566045,14.7615032 24.32037,13.9098876 24.2287444,13.1425714 C24.173501,12.7138644 24.138589,12.2822384 24.0834156,11.8535213 C24.0612543,11.5448715 24.0214019,11.237741 23.9641484,10.9336195 C23.9104951,10.6506805 23.7666263,10.3927324 23.5541534,10.1982718 C23.2982778,9.98754695 22.8620913,9.83059302 23.1296876,9.43385458 C23.3313598,9.17149821 23.49848,8.88431069 23.6268478,8.57934952 C23.7372645,8.25488532 23.8075889,7.91811532 23.8362106,7.57657719 C23.9074449,6.87612712 23.8696626,6.16402143 23.99174,5.46791983 C24.0446032,5.13290939 24.1521498,4.80886504 24.3102394,4.50876212 C24.3369111,4.45028299 24.3148797,4.38105766 24.2592763,4.34876919 C24.2036729,4.31646072 24.1326186,4.33160528 24.0950164,4.38377666 L24.0862658,4.37795877 C23.7198535,5.0232085 23.6500792,5.767263 23.5991761,6.49533319 Z" id="Path-695" fill="#000000"></path>
                        <path d="M24.994372,8.07741699 C24.9974713,8.07161538 25.0019158,8.06665819 25.0073868,8.06297258 L24.9798923,8.08462927 L24.9972919,8.07451618 L24.9639577,8.08896059 L24.9769725,8.08896059 C24.9929071,8.08394379 25.0084232,8.07766534 25.0233214,8.0701749 L24.9871272,8.08605978 C24.995827,8.08213575 25.0051346,8.07969191 25.0146815,8.0788475 L24.9741124,8.0788475 L25.0132265,8.0788475 L24.9725977,8.0788475 C24.9826328,8.08037737 24.9924288,8.08330799 25.0016069,8.08750024 L24.9639577,8.07161537 L24.994372,8.09040105 L24.9625028,8.06584355 C24.9727173,8.07388037 24.9819651,8.08310932 24.9899972,8.09329194 L24.9639677,8.06006181 C24.9760058,8.07675137 24.9861705,8.09467278 24.9944418,8.11349821 L24.9769825,8.07450625 C24.982882,8.08894074 24.9872567,8.10394146 24.9899972,8.11927003 L24.990057,8.07450625 C24.991512,8.09036134 24.991512,8.1063058 24.990057,8.12216088 L24.990057,8.07739711 C24.9884725,8.0887619 24.9855527,8.09991809 24.9813573,8.11060736 L24.9972919,8.07016498 C24.994372,8.07858923 24.9899275,8.08642736 24.9842173,8.09326214 L25.0103067,8.05861142 L24.994372,8.07593676 L25.0277062,8.04849833 C25.0229627,8.05268066 25.0175515,8.05610799 25.0117716,8.05861142 L25.0523406,8.04128607 L25.0306261,8.04128607 L25.076975,8.04128607 L25.0509454,8.04128607 L25.0972346,8.04849833 C25.0876878,8.04691878 25.0784399,8.04400806 25.0697401,8.03982574 L25.1117043,8.05717096 L25.0929096,8.04705787 L25.1276389,8.0744963 C25.1221082,8.0699166 25.1172351,8.06457198 25.113219,8.05861142 L25.1407135,8.0947026 C25.1276389,8.07593678 25.113219,8.05717096 25.0986796,8.03982574 L25.1247689,8.0744963 L25.117534,8.06149235 L25.1349336,8.10049427 C25.1261142,8.0737711 25.1118239,8.04916393 25.0928997,8.02829204 L25.0595655,8.00373456 C25.0419268,7.99212141 25.0213682,7.98562439 25.0002018,7.98494886 C24.986031,7.98061752 24.9708836,7.98061752 24.9567129,7.98494886 C24.9421136,7.98468063 24.9276439,7.98815764 24.9147487,7.99506195 C24.9016144,7.99947276 24.8896858,8.00688372 24.8799596,8.01671864 C24.8624405,8.02790462 24.8479708,8.04330273 24.8379257,8.06148243 C24.8193702,8.0936297 24.8089165,8.12983014 24.8075114,8.16690481 C24.8063554,8.22089752 24.8272827,8.27300276 24.8654201,8.31133908 C24.8984454,8.34655604 24.9405989,8.3720175 24.9871272,8.38499165 C25.0346321,8.39721079 25.0845686,8.39721079 25.1320735,8.38499165 C25.1924736,8.3663351 25.2440544,8.32625038 25.2768903,8.27233714 C25.2900246,8.25063078 25.3001893,8.22733494 25.3073644,8.20301586 L25.3073644,8.18280956 C25.3112011,8.16229531 25.3136326,8.14155258 25.3145394,8.12070057 C25.3143003,8.06713502 25.3018834,8.01430461 25.2783452,7.96616317 C25.272934,7.95508647 25.266606,7.94445681 25.2595505,7.93439341 C25.2439846,7.91093861 25.2254889,7.88958988 25.204442,7.87085386 C25.1636936,7.83406729 25.1135678,7.80908262 25.0595555,7.79864171 C25.0204414,7.78998897 24.9799322,7.78998897 24.9408281,7.79864171 C24.9162535,7.8046122 24.8927751,7.81435771 24.8712499,7.82752061 C24.8101223,7.86678081 24.7747253,7.93566499 24.778552,8.00805596 L24.778552,8.0412662 C24.7815914,8.05701201 24.7891352,8.07156571 24.8002665,8.08316892 C24.815962,8.10443818 24.838404,8.119727 24.8640051,8.12649223 C24.9196019,8.14373811 24.979693,8.12037274 25.0088916,8.07016498 L25.0131667,8.05141902 L24.994372,8.07741699 Z" id="Path-696" fill="#000000"></path>
                        <path d="M24.6871265,7.203641 L24.7132635,7.203641 L24.6899818,7.203641 C24.7171171,7.203641 24.7326149,7.203641 24.7364752,7.203641 L24.7553042,7.203641 C24.7219691,7.203641 24.7147211,7.203641 24.7306848,7.203641 C24.7585289,7.21414875 24.7880203,7.21956822 24.8177612,7.21968865 L24.9106282,7.22699493 L24.8423807,7.21823347 C24.9220793,7.22880144 25.0010591,7.24389564 25.0790506,7.26345593 L25.0108031,7.23428112 L25.0224439,7.23428112 C25.0917896,7.26986899 25.1713086,7.280176 25.2473533,7.26345593 C25.3337609,7.24012209 25.4038953,7.17668416 25.4360024,7.09277266 C25.4687883,7.01551507 25.4668315,6.92783 25.430761,6.852128 C25.3946305,6.77641596 25.3277807,6.72003336 25.2473432,6.69735187 C25.0285239,6.65724777 24.8043434,6.65724777 24.585534,6.69735187 C24.5101582,6.71713294 24.4458143,6.7665505 24.4069982,6.83451471 C24.3759794,6.89252314 24.3637994,6.9588615 24.3722056,7.02417618 C24.3892675,7.17210771 24.5143713,7.28340763 24.6624971,7.28242409 C24.8620582,7.26466027 25.0629571,7.2680926 25.2619092,7.29264081 L25.1835484,7.28096884 C25.2822058,7.29701651 25.3809131,7.32182569 25.47378,7.3320424 L25.3286293,6.77322449 L25.2690974,6.80825034 C25.1781173,6.86414116 25.1284592,6.96864665 25.1422265,7.07493857 C25.1560537,7.18125056 25.2307606,7.26940735 25.333012,7.29994708 L25.3997321,7.32036042 C25.5578016,7.36249181 25.7204336,7.26974855 25.7655193,7.11172074 C25.805733,6.95302051 25.714154,6.7906772 25.5579714,6.74404966 C25.4711345,6.72098679 25.3821111,6.70727753 25.2923591,6.70319286 C25.2212463,6.69443138 25.1472083,6.68714519 25.0790306,6.68277951 C24.9393708,6.67255276 24.7992218,6.67255276 24.659552,6.68277951 L24.7379129,7.26637644 L24.7553441,7.26637644 L24.6755157,7.27659315 C24.7568616,7.26587464 24.8387567,7.25955193 24.9207815,7.25761497 C25.0035351,7.25761497 25.0833535,7.26637641 25.1661071,7.27075213 L25.0876864,6.69443137 L25.0746479,6.69443137 L25.151611,6.68423474 C25.0229131,6.68374297 24.8947144,6.69943937 24.7698502,6.73092249 C24.740848,6.73814845 24.7130638,6.74944906 24.6870966,6.76447304 L24.6392055,6.80093405 C24.626167,6.81115076 24.6276246,6.81115076 24.6392055,6.80093405 C24.6508464,6.79073741 24.6392055,6.80093405 24.6290922,6.80093405 C24.6166028,6.80682521 24.604962,6.81418165 24.5942396,6.82283273 C24.5318425,6.86659999 24.4490889,6.92643498 24.4331252,7.00958374 C24.413198,7.09176904 24.4602405,7.1754196 24.5405481,7.20071048 L24.5420457,7.203641 C24.5895174,7.21653733 24.6396049,7.21653733 24.6871265,7.203641 Z" id="Path-697" fill="#000000"></path>
                        <path d="M29.2839708,7.92710936 C29.2483495,8.01987892 29.2483495,8.12265433 29.2839708,8.21544373 C29.3158653,8.27354494 29.3756811,8.31069245 29.4416293,8.31347901 C29.5173874,8.31595815 29.5857511,8.26778338 29.6092751,8.19525355 C29.6316653,8.11626803 29.5980258,8.03207633 29.5276212,7.9905358 C29.4487279,7.94622854 29.3504612,7.95785075 29.2839708,8.01937318 C29.2466636,8.05741316 29.2354734,8.11401701 29.2553298,8.16353047 C29.277651,8.21232994 29.3251329,8.2445588 29.3785698,8.24714702 C29.4038389,8.24513396 29.4288123,8.24029465 29.4530659,8.2327283 L29.4158179,8.2327283 L29.4401898,8.2327283 L29.4028826,8.2327283 L29.417208,8.2327283 L29.384229,8.21974748 L29.3943347,8.21974748 L29.3670148,8.19812936 L29.3756811,8.20678657 L29.3541387,8.17939699 C29.3548584,8.18270912 29.3548584,8.18617991 29.3541387,8.18949205 L29.3412626,8.1563409 C29.3412626,8.16114055 29.3412626,8.16498489 29.3412626,8.16787392 L29.3412626,8.13184696 L29.3412626,8.09579033 C29.3420415,8.09958837 29.3420415,8.10352522 29.3412626,8.10733318 L29.3541387,8.07416227 C29.3635247,8.06019974 29.3757402,8.04838909 29.3900065,8.03957325 L29.4215362,8.02515456 L29.4129291,8.02515456 L29.4487377,8.02515456 L29.4344123,8.02515456 L29.4702801,8.02515456 L29.4545152,8.02515456 L29.4874943,8.03956333 C29.4702801,8.03092599 29.5046493,8.05543976 29.5075282,8.06118146 C29.509454,8.0650357 29.509454,8.0650357 29.5075282,8.06118146 L29.5204634,8.09291452 L29.5204634,8.07272437 L29.5204634,8.10877109 C29.5148042,8.06376967 29.5148042,8.01824269 29.5204634,7.97325119 L29.5204634,8.00927812 C29.5252747,7.97849707 29.5323733,7.94811269 29.5419466,7.91846213 C29.5411677,7.91369225 29.5411677,7.9088232 29.5419466,7.90404341 L29.5419466,7.91991985 C29.5460973,7.91364266 29.5494692,7.90685972 29.551934,7.8997297 C29.5577115,7.88647124 29.5649876,7.87389703 29.5734172,7.86224505 C29.5892412,7.84062692 29.5634298,7.87521593 29.5734172,7.86224505 L29.5878609,7.84782636 C29.5918342,7.84232266 29.5966454,7.83746353 29.6021272,7.83340766 C29.6164493,7.82091938 29.6164493,7.82091938 29.6021272,7.83340766 C29.580644,7.85214007 29.6021272,7.83340766 29.609285,7.83340766 L29.6264991,7.82475048 C29.6479823,7.8117796 29.6121737,7.82475048 29.6264991,7.82475048 L29.6494218,7.81756096 C29.7091784,7.80082178 29.7441391,7.73854569 29.7275263,7.67844133 C29.7108544,7.61832705 29.6489978,7.58312321 29.5892412,7.59986238 L29.5978483,7.59986238 C29.4400715,7.64035176 29.3185076,7.76704592 29.2839708,7.92710936 Z" id="Path-698" fill="#000000"></path>
                        <path d="M24.614296,10.783328 C24.782766,10.6843987 24.9658729,10.6132465 25.1567611,10.5725509 C25.3498284,10.5318153 25.550667,10.5857894 25.6977636,10.7179051 C25.8171682,10.8677488 25.8828805,11.0536186 25.884393,11.2455777 C25.9119058,11.4443061 25.9060748,11.6462641 25.8670195,11.8430327 C25.8269991,12.0415311 25.711913,12.2166622 25.5458709,12.3314297 C25.4643076,12.3888835 25.3631321,12.410891 25.2652302,12.392493 C25.1950203,12.373835 25.1323528,12.3336894 25.0858248,12.2776555 C24.920937,12.0915957 24.9035636,11.8226749 24.8934242,11.574122 L24.8703493,10.8458512" id="Path-699" fill="#000000"></path>
                        <path d="M25.4332477,10.7630965 C25.6905566,10.8648309 25.6861668,11.1627174 25.6978263,11.3821291 C25.7123556,11.6349758 25.6978262,11.9444871 25.4928151,12.1261157 C25.4303179,12.1798916 25.3475015,12.2336575 25.266075,12.1784322 C25.1833186,12.0968988 25.1318608,11.9888771 25.1206913,11.8732889 C25.0974423,11.7227963 25.0857828,11.5707345 25.0857828,11.4184628 C25.0751033,11.2246996 25.0663737,11.0309564 25.059604,10.8372132 C25.0480045,10.594542 24.6700309,10.5930927 24.6802305,10.8372132 L24.7020195,11.46933 C24.7015895,11.6571258 24.7196588,11.8445018 24.7557872,12.0287693 C24.7930756,12.2095482 24.8904213,12.3723952 25.0320252,12.4908721 C25.2010278,12.6182451 25.4294679,12.6330785 25.6135399,12.5286353 C25.9711244,12.3499154 26.1106483,11.9212374 26.1121782,11.5477848 C26.1135781,11.1743422 26.07287,10.719516 25.7400044,10.5044424 C25.3533612,10.2559538 24.8953711,10.4564939 24.5552459,10.6788143 C24.4491105,10.748563 24.5145377,10.9491131 24.6467919,10.8967766 L24.645322,10.8982259 C24.8837716,10.8052376 25.1759389,10.6613621 25.4332477,10.7630965 Z" id="Path-700" fill="#000000"></path>
                        <path d="M25.2630818,11.8626906 L25.2733092,11.8465754 L25.2733092,11.8465754 L25.299585,11.814345 C25.3170488,11.793866 25.3360983,11.7747576 25.3564325,11.7572012 L25.3885898,11.729365 L25.4075189,11.7161725 C25.429208,11.7001178 25.4521116,11.6859074 25.476069,11.6737026 L25.5140476,11.6531833 L25.5315716,11.6458664 C25.5476201,11.6385496 25.5009398,11.6575875 25.5228096,11.6458664 L25.6030625,11.6195117 L25.6409808,11.6107134 C25.6647475,11.6038501 25.6877816,11.5945075 25.7095309,11.5828469 C25.7601356,11.5530152 25.7854881,11.4937146 25.77232,11.436349 C25.7536318,11.3785602 25.7013812,11.3383579 25.6409808,11.3352538 C25.5622635,11.3372795 25.4851421,11.3583834 25.4162809,11.3967716 C25.3551478,11.426946 25.2978688,11.4643465 25.2455579,11.5081366 C25.1466871,11.586072 25.0676588,11.686492 25.0150367,11.8011526 C25.000584,11.830682 24.996479,11.8642325 25.0033943,11.8964024 C25.0173652,11.9435184 25.0576723,11.9779357 25.1062496,11.9842749 C25.1547666,11.9906142 25.202551,11.9676659 25.2280942,11.9256798 L25.2193422,11.9359496 C25.2325103,11.9107035 25.2471537,11.8862435 25.2630818,11.8626906 Z" id="Path-701" fill="#FFFFFF"></path>
                        <path d="M28.648993,7.5524087 C28.8394792,7.28357118 29.0400952,7.00600727 29.3278694,6.84907293 C29.6157037,6.6921286 30.0228058,6.70376377 30.2336116,6.95079041 C30.3177799,7.06419296 30.3731989,7.19633771 30.3949285,7.33587933 C30.5011863,7.88309038 30.3833287,8.45002314 30.0679049,8.90967083 C30.3760688,9.49093765 30.7656407,10.127421 31.4082079,10.2538481 C31.6170637,10.2829059 31.8288501,10.2829059 32.0377159,10.2538481 C32.1899929,10.2552175 32.3387393,10.207858 32.4622068,10.1186953 C32.5384353,10.0363197 32.5933047,9.93653095 32.6220541,9.82805634 C33.030676,8.63809419 33.3141804,7.4088887 33.4681673,6.16025114 C33.5655754,5.3697319 33.6135541,4.55306363 33.3852787,3.78723407 C33.1243539,2.88913983 32.5160362,2.13207659 31.6950026,1.6836642 C30.8739789,1.23526183 29.907988,1.1325348 29.0109758,1.39821362 C28.7696506,0.753023565 28.0340052,0.421692166 27.3463988,0.365015879 C26.6587925,0.308339592 25.9682564,0.456577569 25.2792401,0.436226085 C24.6627924,0.418773387 24.0595344,0.269106012 23.4474866,0.202253986 C23.2599304,0.181902502 23.0331249,0.18917945 22.9357768,0.347583175 C22.8953676,0.42584043 22.8810879,0.51494316 22.8950676,0.601886779 C22.9561064,1.25726256 23.5855439,1.68885201 24.1525526,2.02309215 L23.1683822,2.05505872 C23.0649942,2.04629239 22.9619063,2.07463058 22.877618,2.13498533 C22.7191111,2.28029452 22.8485686,2.54768267 23.0113453,2.68864369 C23.3203592,2.95736125 23.7183612,3.10139098 24.127843,3.09261465 C23.674302,3.21758236 23.1480026,2.99669468 22.7351708,3.22484922 C22.6026035,3.28781288 22.5131252,3.41592947 22.4996455,3.56198835 C22.5016555,3.63844636 22.525825,3.71268509 22.5694041,3.77559876 C22.7147912,4.00228392 22.9866358,4.11273778 23.2439507,4.19411373 C24.6671423,4.64605463 26.1921319,4.63007151 27.6866121,4.60826063 C27.4554767,4.96575105 27.2184814,5.41769186 27.4249573,5.78969622 C27.538295,5.99168171 27.7549107,6.10793276 27.9322672,6.25616074 C28.3070197,6.57398775 28.5114158,7.04877949 28.4846864,7.53930426" id="Path-702" fill="#000000"></path>
                        <path d="M29.3965364,6.96591759 C29.6307345,6.84819436 29.9783347,6.83510602 30.1412039,7.07349205 C30.3041331,7.31187809 30.2983297,7.71888009 30.2546659,7.99652052 C30.2067897,8.29386815 30.0913664,8.57631809 29.9172611,8.82213306 C29.8866644,8.87679528 29.8866644,8.94337559 29.9172611,8.9980278 C30.1038232,9.40265015 30.363736,9.76930863 30.6837912,10.0794744 C31.0895933,10.4326941 31.5463829,10.4923051 32.0685787,10.4385128 C32.2955129,10.4152661 32.5194458,10.3672832 32.6635046,10.1739607 C32.8075034,9.98064822 32.8773012,9.66521324 32.9543734,9.41809845 C33.1298894,8.86284757 33.2782812,8.29932773 33.3995075,7.72760916 C33.6366373,6.61126816 33.8547763,5.40189028 33.6903763,4.26374245 C33.5403342,3.19423485 32.9323916,2.24279052 32.0245447,1.65681398 C31.1168179,1.07082748 29.9988961,0.908200622 28.9615884,1.21125746 L29.2045212,1.34787798 C28.9828399,0.834641099 28.5414383,0.448596105 28.0030537,0.296937704 C27.3571902,0.0832681507 26.6691936,0.164666537 26.0043998,0.214079499 C25.6271133,0.248974528 25.2472756,0.248974528 24.869869,0.214079499 C24.5018676,0.17483509 24.1426008,0.100725647 23.7716678,0.0498428978 C23.4953366,0.0105884895 23.1636051,-0.0635409504 22.9105966,0.100725651 C22.6574681,0.264962256 22.6633313,0.600744456 22.7374718,0.863846958 C22.914939,1.49467707 23.5185393,1.89005077 24.0465983,2.20548582 L24.148404,1.82900941 C23.7804026,1.84063776 23.3978733,1.82900946 23.0313327,1.86971366 C22.8923366,1.87740257 22.7643366,1.94758251 22.6832422,2.06055641 C22.6021478,2.17353032 22.5766138,2.31713995 22.6138642,2.45113087 C22.7694694,3.04564619 23.5825943,3.30728883 24.1221997,3.30438924 L24.0684003,2.9017365 C23.5214709,3.03400765 22.7084059,2.69387615 22.3534717,3.31164813 C22.1949349,3.58637899 22.3331406,3.89307554 22.5542015,4.09075737 C22.7967043,4.27496113 23.0767675,4.40350274 23.3746005,4.46723366 C24.7738663,4.86405712 26.2429906,4.8480891 27.6830487,4.81464386 L27.5114446,4.51521683 C27.2059174,5.00505704 26.9295864,5.65336472 27.4328518,6.11412907 C27.645248,6.3103711 27.8982562,6.43828255 28.064117,6.68393755 C28.2356608,6.93671155 28.3212778,7.23787895 28.3085108,7.54300547 C28.3085108,7.76685357 28.6415831,7.76393399 28.6546502,7.54300547 C28.6850669,6.99561346 28.4587429,6.46527892 28.042315,6.10832977 C27.8488491,5.94697276 27.5710474,5.80744269 27.5405107,5.52690268 C27.5099739,5.24636266 27.7034396,4.94545552 27.8546424,4.70998907 C27.8898216,4.64856782 27.8896919,4.57311871 27.8544025,4.51180744 C27.8191032,4.45048618 27.7538275,4.41249156 27.6830487,4.41201162 C26.483052,4.41201162 25.2626539,4.43527795 24.0800667,4.19253254 C23.7966516,4.13546067 23.5168284,4.06169125 23.2422081,3.97158408 C23.0822705,3.91780175 22.6952787,3.78698038 22.7040135,3.56312227 C22.7127483,3.31312789 23.1913402,3.32038698 23.349877,3.32473636 C23.6260282,3.35075265 23.9043805,3.33950417 24.17748,3.29132104 C24.2727421,3.26054542 24.3322245,3.16596894 24.3186071,3.06686306 C24.3049896,2.96775718 24.2222444,2.89266797 24.1222097,2.88866854 C23.7614822,2.88868853 23.2494821,2.76220647 23.0473415,2.4278841 C23.0022168,2.35085507 22.9774832,2.30288203 23.0604086,2.2665472 C23.1637351,2.24563018 23.2697532,2.24073076 23.3746105,2.25200915 L24.148414,2.22584295 C24.2384333,2.22349329 24.3162259,2.16236193 24.3396788,2.0755043 C24.3631316,1.98866668 24.3268517,1.8967098 24.2502698,1.84936655 C23.856074,1.61534989 23.4153429,1.34934774 23.1942118,0.930707395 C23.1156188,0.785358101 22.9774832,0.436497819 23.2276801,0.397263408 C23.4778771,0.358008999 23.8094786,0.449595947 24.0669495,0.491729945 C24.6585833,0.601794265 25.2607228,0.644708151 25.8619418,0.619641721 C26.4437402,0.581867103 27.0444689,0.483001187 27.6190634,0.602204204 C28.1077308,0.705419496 28.6255942,0.961243063 28.8205309,1.44964349 C28.8476457,1.55590835 28.9552447,1.62066908 29.0619931,1.59498274 C29.9146298,1.34098893 30.8336529,1.4395349 31.6129494,1.86856377 C32.3923059,2.29758266 32.9667201,3.02115953 33.2075119,3.87709761 C33.485314,4.86261719 33.3326405,5.93826383 33.165309,6.92959261 C33.0809128,7.4267118 32.9767261,7.91898206 32.8525782,8.40642262 C32.7904742,8.64965796 32.7231771,8.89192314 32.6503773,9.13321877 C32.5907146,9.39650124 32.5059478,9.65350483 32.3973083,9.90069962 C32.2780431,10.1245277 31.9100416,10.1027403 31.686039,10.1027403 C31.4480587,10.1065397 31.2151421,10.0342202 31.021306,9.89632988 C30.6547154,9.63614693 30.4293114,9.21460766 30.2169051,8.83232212 L30.2169051,9.00818634 C30.4384664,8.66916463 30.5659764,8.27739057 30.5863676,7.87295818 C30.605298,7.51393932 30.5587024,7.03861719 30.2649016,6.78859282 C30.0048693,6.59300068 29.6583697,6.55612597 29.3630381,6.69265652 C28.9965075,6.83802581 28.7579067,7.18396649 28.5397773,7.49938154 C28.4495779,7.6302029 28.6605137,7.74795607 28.7521138,7.62294388 L28.7550755,7.61276531 C28.9310718,7.37146969 29.1216059,7.10256812 29.3965364,6.96591759 Z" id="Path-703" fill="#000000"></path>
                        <path d="M39.1414242,14.1053821 C34.9387565,14.4778878 30.8395431,15.6147405 27.0455108,17.4599428 C24.8443782,18.5311403 22.5997238,20.0296113 21.8611161,22.363863 C21.646818,23.1174724 21.538164,23.8971757 21.538414,24.6806583 C21.4878721,26.537508 21.672509,28.393258 22.0879346,30.2037582 C22.659306,32.6949544 23.6609935,35.0669768 24.7426341,37.3838024 C25.3939685,38.7790866 26.0932749,40.2267305 26.070014,41.7659321 C26.0464531,41.9965599 26.0651938,42.2295065 26.1252561,42.4533958 C26.2997026,42.9359566 26.866744,43.1321617 27.3682828,43.2426167 C30.3251238,43.8869408 33.4036686,43.6854478 36.2511854,42.6612396 C37.0333847,42.3778238 37.7951928,42.0318903 38.5976429,41.8109703 C39.2445772,41.6336704 39.9061036,41.5377539 40.5661583,41.3952961 C41.6573893,41.135105 42.7321888,40.8104069 43.7849083,40.4229546 C44.8026465,40.0697645 45.9148086,39.638103 46.4018269,38.6788101 C46.5980642,38.2965766 46.6708167,37.8256427 46.4832497,37.4375706 C46.3727755,37.2079125 46.1793479,37.0247937 46.0558033,36.8009644 C45.7766828,36.2980582 45.8770273,35.681798 45.9700508,35.1149464 C46.8873252,29.466785 46.2449,23.675426 44.1120701,18.365438 C43.7078149,17.366914 43.2397277,16.3741885 42.5302811,15.5660814 C41.8207844,14.7579743 40.822028,14.1489822 39.7461777,14.1126404" id="Path-704" fill="#0C3970"></path>
                        <path d="M30.1327105,15.9590464 C28.7364317,16.4596481 27.3786205,17.0617105 26.0700693,17.7604527 C24.9620581,18.3652853 23.888974,19.0908202 23.0354036,20.0314975 C22.611739,20.4898549 22.2570482,21.0075784 21.9827034,21.5682764 C21.6789328,22.221904 21.4891349,22.9225767 21.4214314,23.640111 C21.2715015,25.2439169 21.3228417,26.860114 21.5741119,28.4511585 C22.0263522,31.5974839 23.2216008,34.5576911 24.5578575,37.4160767 C25.2107579,38.8147813 25.9173791,40.2541388 25.8883233,41.8345623 C25.8883233,42.1588158 25.8883229,42.4859404 26.0831819,42.7622089 C26.2552762,42.9922727 26.4900032,43.16789 26.759347,43.2681503 C27.3947238,43.5283973 28.1304709,43.6068967 28.8066959,43.6926956 C30.3405122,43.8821352 31.8934917,43.852262 33.4189463,43.6040363 C34.1720266,43.4826238 34.9154656,43.3077061 35.643631,43.0806026 C36.3823085,42.8494387 37.0977811,42.5441069 37.8174648,42.2794895 C38.5757962,42.0203027 39.3538423,41.8229013 40.14398,41.6891575 C40.9450399,41.5315512 41.7356666,41.3246796 42.5112114,41.0698032 C43.2018993,40.8473702 43.8983884,40.6234383 44.5716228,40.35009 C45.1314846,40.1232866 45.686895,39.8441462 46.117281,39.4123116 C46.5477269,38.9805069 46.8836045,38.3233293 46.7629204,37.6792526 C46.6989476,37.3361071 46.4720927,37.0976826 46.2889462,36.821434 C46.0996984,36.4983106 46.0263846,36.120312 46.0809555,35.7498837 C46.1114816,35.3835157 46.1871167,35.0229078 46.2394371,34.6565399 C46.2918176,34.290142 46.342726,33.9034121 46.3849144,33.525383 C46.4662906,32.7693548 46.5205622,32.0108568 46.5477276,31.2499981 C46.6536487,28.1874213 46.3181927,25.1255844 45.5516796,22.1586075 C45.1734941,20.6869853 44.684985,19.2459264 44.0903263,17.8476717 C43.537786,16.5565982 42.7962496,15.2800562 41.5719452,14.5210977 C41.0253861,14.175782 40.3997709,13.9756113 39.7543221,13.9395375 C39.5245962,13.9293565 39.5260665,14.2841032 39.7543221,14.2957444 C41.1226352,14.359711 42.2407781,15.3134897 42.9532604,16.4213743 C43.3345665,17.0348378 43.6573203,17.6827348 43.9173222,18.3565445 C44.1964879,19.0399052 44.4494696,19.7329667 44.6763248,20.4356794 C46.05441,24.6844091 46.5036585,29.179565 45.9937267,33.6169739 C45.9123505,34.3352182 45.7509378,35.0520015 45.6956367,35.7731361 C45.6583393,36.1040404 45.7007079,36.4390357 45.8192616,36.7501678 C45.9486774,37.0627602 46.2307244,37.2881231 46.3456173,37.6051159 C46.5724726,38.2259101 46.1434875,38.8845476 45.6897869,39.2771282 C45.2362064,39.6696588 44.6821361,39.902284 44.135397,40.1043949 C42.7050614,40.6515415 41.2312565,41.077574 39.7296066,41.3780251 C38.9773765,41.5153093 38.2383982,41.7171713 37.5208549,41.9814186 C36.8185647,42.2445658 36.1278772,42.5324353 35.4110641,42.7505379 C33.9748074,43.186253 32.48421,43.416807 30.9834204,43.4352989 C30.2545149,43.4442098 29.5259193,43.4043855 28.8023248,43.3161163 C28.4242593,43.2695715 28.0476544,43.2070642 27.6739898,43.1314964 C27.3662483,43.0850416 27.0657783,42.999523 26.7797112,42.8770103 C26.5114077,42.7728096 26.3142882,42.5395752 26.2562866,42.2576561 C26.238273,42.0759673 26.2349224,41.8931788 26.2460346,41.7109699 C26.2472549,41.5249507 26.2376131,41.3390124 26.216979,41.1541233 C26.1305318,40.4319986 25.947085,39.7248645 25.6717,39.0517349 C25.1220303,37.65163 24.4182796,36.3154926 23.8410144,34.9269791 C23.2418348,33.5216537 22.7489964,32.0733527 22.3666,30.5942497 C21.9845037,29.0633314 21.7684607,27.4956601 21.7224315,25.918417 C21.6803131,24.4645265 21.6905051,22.9102652 22.3796628,21.5857582 C23.5647093,19.3045123 26.0962846,18.042542 28.341363,17.0480292 C31.0804398,15.836934 33.9637051,14.9823254 36.9203453,14.505136 C37.6575525,14.3873538 38.3976902,14.2957644 39.1407585,14.2259672 C39.2861775,14.2128858 39.2948393,13.9758913 39.1407585,13.9889727 L39.1479397,13.9846122 C36.068465,14.2390785 33.0366702,14.9030771 30.1327105,15.9590464 Z" id="Path-705" fill="#000000"></path>
                        <path d="M18.518953,112.980951 C18.5629626,113.018017 18.6246356,113.025387 18.6761143,112.999878 C18.727593,112.974319 18.7591008,112.92057 18.7563658,112.86305 C18.7536904,112.805531 18.7172097,112.755131 18.6636126,112.734559 C18.5880356,112.696944 18.5159793,112.652877 18.4481201,112.602607 C18.425981,112.585242 18.4230868,112.585242 18.4394375,112.602607 L18.4163736,112.58374 L18.3686642,112.543143 L18.27609,112.45477 C18.2471979,112.423787 18.2196982,112.391896 18.1937201,112.359087 C18.1792326,112.340705 18.1753671,112.336344 18.1821235,112.346004 L18.1719888,112.331514 L18.1315001,112.274912 C18.0852428,112.20394 18.0418997,112.129997 18.0028729,112.056043 C17.9702114,112.006442 17.906957,111.987206 17.8523852,112.010271 C17.7978134,112.033397 17.7673995,112.092252 17.7801499,112.15032 L17.7786779,112.144476 C17.9144063,112.505229 18.1779264,112.802978 18.518953,112.980951 Z" id="Path-706" fill="#000000"></path>
                        <path d="M17.445584,113.632562 C17.5117003,113.720626 17.5863764,113.801874 17.668371,113.875199 C17.7491541,113.951228 17.8397085,114.016158 17.9376014,114.068128 C18.0040281,114.102925 18.0858424,114.081439 18.1267796,114.01842 C18.1605085,113.952083 18.139244,113.870835 18.0772825,113.829905 L17.9579449,113.753875 L17.8953727,113.708531 C17.8749592,113.692455 17.9186496,113.729032 17.8836993,113.699814 L17.8560774,113.676438 C17.7826327,113.614334 17.7154152,113.545363 17.6551657,113.470308 C17.6275439,113.43527 17.6115354,113.414769 17.5824519,113.372431 C17.5533683,113.330023 17.5314931,113.292039 17.5081462,113.251048 C17.4628039,113.16968 17.4267523,113.083335 17.400482,112.993863 C17.3809895,112.933659 17.3178066,112.899605 17.2571267,112.916416 C17.1963866,112.933226 17.1595441,112.994969 17.1734101,113.056701 L17.1734201,113.056711 C17.2247493,113.265043 17.317266,113.460928 17.445584,113.632562 Z" id="Path-707" fill="#000000"></path>
                        <path d="M17.1961252,114.957313 C17.2475848,115.00573 17.3277064,115.00573 17.379176,114.957313 C17.428198,114.906145 17.428198,114.825248 17.3790562,114.77408 C17.2353968,114.643905 17.1072323,114.497434 16.99717,114.337829 C16.8883865,114.174262 16.8023507,113.99665 16.7415602,113.809876 C16.7220493,113.748575 16.6591809,113.712002 16.5962525,113.725557 C16.5345429,113.744483 16.4978388,113.807865 16.5121049,113.870997 L16.5077092,113.868066 C16.6328966,114.287581 16.8711234,114.664422 17.1961252,114.957313 Z" id="Path-708" fill="#000000"></path>
                        <path d="M78.7343479,62.4719661 L78.7432873,62.4893062 C78.7527251,62.5149775 78.7605458,62.5410076 78.7668716,62.5675857 L78.775811,62.6095507 C78.775811,62.6182673 78.775811,62.6250406 78.775811,62.6298705 C78.7772958,62.6583322 78.7772958,62.6868636 78.775811,62.7153253 C78.775811,62.7240418 78.775811,62.7303268 78.775811,62.7341802 C78.775811,62.7399602 78.775811,62.7124054 78.775811,62.7341802 L78.7668716,62.7762149 C78.7605357,62.802245 78.7527149,62.8278565 78.7432873,62.8530394 C78.7432873,62.8703098 78.7521047,62.8327197 78.7432873,62.8529797 C78.7399312,62.8579027 78.7374498,62.8632542 78.7358429,62.8689146 C78.729385,62.8819894 78.7219405,62.8945261 78.7136215,62.9066243 C78.691522,62.9457392 78.6575034,62.980529 78.664836,63.029739 C78.6659547,63.0683057 78.68482,63.1042515 78.7161131,63.1276108 C78.747396,63.1509701 78.7878726,63.1592415 78.8259796,63.1499935 C78.9162384,63.1340585 78.9635289,63.0051041 78.9902251,62.9341293 C79.0122025,62.8671607 79.0241217,62.7973319 79.0256065,62.7268953 C79.0292067,62.5873674 78.988364,62.4502013 78.9087837,62.3343316 C78.8757618,62.2823911 78.8071041,62.2645627 78.7521149,62.2937618 C78.6982342,62.3256915 78.6804876,62.3940653 78.7122688,62.4473412 L78.7136113,62.4343162 C78.7210557,62.4473312 78.7283883,62.4588913 78.7343479,62.4719661 Z" id="Path-709" fill="#000000"></path>
                        <path d="M79.6972976,62.204481 C79.6958397,62.2189339 79.6958397,62.2335567 79.6972976,62.2480696 L79.6972976,62.269834 C79.6972976,62.2920678 79.6972976,62.2969054 79.6972976,62.2843469 C79.6972976,62.2655091 79.6972976,62.2915983 79.6972976,62.2944649 C79.6979666,62.3017763 79.6979666,62.3090378 79.6972976,62.3162892 C79.6980266,62.3303127 79.6980266,62.3443362 79.6972976,62.3584196 L79.6972976,62.4077415 C79.6995543,62.4217649 79.6995543,62.4359682 79.6972976,62.4498718 C79.6972976,62.4353622 79.6972976,62.4353622 79.6972976,62.4498718 L79.6972976,62.4716961 C79.6972976,62.486209 79.6972976,62.5021802 79.6871225,62.5181513 C79.6770072,62.5341225 79.6711558,62.5733263 79.6609806,62.6008738 L79.6609806,62.6095936 L79.6609806,62.616845 L79.6392223,62.6604337 C79.6247135,62.6865828 79.6101547,62.7098155 79.5942479,62.7345064 L79.5855307,62.7461526 C79.5693842,62.7655398 79.5543262,62.7859657 79.5404963,62.8071208 C79.5053276,62.8698569 79.5213543,62.9489237 79.5782812,62.9929418 C79.6353879,63.0362208 79.7155909,63.0312866 79.766966,62.9813555 C79.8199287,62.9272792 79.862287,62.863754 79.8918439,62.7940761 C79.9260939,62.7246979 79.9505982,62.6509349 79.9643681,62.5747946 C79.9786273,62.5011514 79.9835102,62.4260399 79.9789368,62.3511781 C79.9770496,62.3106958 79.9721767,62.2704033 79.964428,62.2306501 C79.964428,62.2132107 79.9571785,62.1943729 79.952785,62.1783418 C79.9407825,62.149266 79.9240768,62.1223178 79.903417,62.0985358 C79.8703252,62.0651851 79.8203481,62.0554366 79.7771412,62.073785 C79.7353321,62.0929324 79.7078422,62.1338942 79.705955,62.1798001 L79.6972976,62.1827166 C79.6972976,62.1536409 79.6972976,62.1972295 79.6972976,62.204481 Z" id="Path-710" fill="#000000"></path>
                        <path d="M80.7174874,62.307358 C80.7161627,62.3913743 80.701077,62.4745986 80.6729617,62.5536622 C80.6618599,62.5894644 80.6473772,62.6241537 80.6297607,62.6571988 C80.6094848,62.6963596 80.587044,62.7343674 80.5621812,62.7708915 C80.5396118,62.8023425 80.5140273,62.8316579 80.4860307,62.8583366 L80.4371552,62.9034929 L80.4156733,62.9224015 C80.3797087,62.9530605 80.435702,62.9078341 80.3984127,62.9355555 C80.3646229,62.9550156 80.3400072,62.9875693 80.3302302,63.0257577 C80.3204531,63.063946 80.3264933,63.1045104 80.3466406,63.1381069 C80.3663134,63.1728063 80.3991343,63.1977104 80.4375111,63.2070745 C80.4757692,63.2164386 80.5161923,63.2094607 80.5492604,63.1877347 C80.7346195,63.0492582 80.8703815,62.8533137 80.9359047,62.6294774 C80.9654732,62.5267328 80.980559,62.4202587 80.9804305,62.313173 C80.9783742,62.1954399 80.9525525,62.0792908 80.90428,61.9721449 C80.8754431,61.9213542 80.8135282,61.9006709 80.7605501,61.9240511 C80.7079377,61.9466894 80.6798126,62.0050697 80.6944238,62.0610639 L80.6929904,62.0551787 C80.7122974,62.1377313 80.7205026,62.2225998 80.7174874,62.307358 Z" id="Path-711" fill="#000000"></path>
                        <path d="M36.3763587,47.9782818 C37.0320872,47.8054878 37.6848258,47.666094 38.3492246,47.5165223 C38.520802,47.4773191 38.4451786,47.2261286 38.2779913,47.2580405 C37.6104823,47.3671604 36.9502337,47.5165224 36.3007956,47.7052873 C35.6463472,47.8779315 35.0026392,48.0888 34.3729819,48.3369242 C34.2421162,48.3906601 34.2886882,48.5997608 34.4340845,48.5562028 L34.4340746,48.5590993 C35.0810126,48.3659696 35.7206903,48.1510458 36.3763587,47.9782818 Z" id="Path-712" fill="#000000"></path>
                        <path d="M45.5490983,45.8053175 C45.8037728,45.7335483 46.0593065,45.6675655 46.3158791,45.6074092 L46.7167113,45.5200928 C46.7748807,45.5069884 46.8314617,45.4953455 46.8895612,45.4851443 L47.0043116,45.4618987 C47.0565671,45.4618987 47.0493047,45.4516974 46.9810858,45.4167789 L46.9956007,45.3061568 L47.1146765,45.2843127 L47.1843638,45.405146 L47.1843638,45.3876668 C47.1681408,45.3229253 47.1101013,45.2775253 47.0435207,45.2775253 C46.9769401,45.2775253 46.9188306,45.3229253 46.9026175,45.3876668 C46.9026175,45.6787579 47.3746555,45.5433886 47.2424133,45.2857744 C47.1756529,45.1547999 47.0202948,45.1635395 46.8997505,45.1868152 C46.6978709,45.2246369 46.4988583,45.2726599 46.2999756,45.3207229 C45.5020972,45.5164388 44.7188636,45.7678362 43.9560486,46.0731429 C43.8107501,46.1328088 43.870318,46.3758769 44.022809,46.3162111 L44.0213306,46.3161911 C44.5218489,46.122127 45.0311381,45.9518691 45.5490983,45.8053175 Z" id="Path-713" fill="#000000"></path>
                        <path d="M25.5119658,18.5615755 C23.6226265,18.7709819 21.0953633,22.8935239 19.323776,25.6869974 L17.8137642,28.0732908 C17.2324721,28.9835963 16.6380544,29.9898876 16.765943,31.0587158 C16.8414786,31.6854448 17.1612052,32.2540188 17.5085629,32.7804308 C18.6837829,34.5612411 20.2270439,36.0691872 22.0341396,37.2025528 C22.487603,37.4933712 22.9802439,37.7536611 23.515111,37.7711258 C24.1719986,37.7914913 24.7925275,37.4264939 25.2401428,36.9437237 C25.6878081,36.4609235 25.9914907,35.8690634 26.3098078,35.2932281 C27.6461058,32.8781466 29.2970618,30.6512865 31.2190504,28.6709623" id="Path-714" fill="#0C3970"></path>
                        <path d="M23.5228176,19.605773 C22.7477832,20.3878338 22.0463614,21.2396072 21.4275441,22.1503313 C20.7412651,23.1202059 20.1000438,24.1220263 19.461683,25.1252971 C19.0894885,25.7069118 18.7167436,26.291917 18.3435689,26.8803129 C17.9495206,27.4982842 17.5350787,28.1075238 17.1803472,28.7487793 C16.8575412,29.330364 16.5899748,29.9555974 16.550718,30.6244879 C16.5114612,31.2933384 16.7572338,31.9331033 17.093052,32.5147181 C17.7632083,33.6308591 18.5842208,34.649103 19.5329254,35.5405636 C20.0081678,35.9941053 20.5128353,36.4157203 21.0437474,36.80266 C21.5654479,37.2149342 22.1370172,37.5598161 22.7449126,37.8292446 C23.3451167,38.0729985 24.0227239,38.0362234 24.5930128,37.7289181 C25.1745937,37.4221028 25.6107694,36.9044582 25.9655609,36.3519287 C26.3305542,35.770314 26.6359072,35.1581438 26.9833775,34.5692577 C27.3309077,33.9804017 27.710374,33.3973275 28.0986214,32.8244343 C28.8897786,31.6926104 29.7482575,30.6093445 30.6693773,29.5804691 C30.8976269,29.3231028 31.1288067,29.0671972 31.3643875,28.8156519 C31.5431885,28.6251576 31.2640904,28.3430971 31.0735674,28.5248299 C29.209044,30.4070688 27.6054955,32.5309801 26.30583,34.839716 C25.7241891,35.8575393 25.1426082,37.2664842 23.8514242,37.5195198 C23.1884092,37.6503734 22.5733129,37.2854069 22.0367799,36.9379044 C20.4603364,35.9355538 19.0878381,34.6439414 17.9917079,33.1312189 C17.6238441,32.6194067 17.242858,32.0770392 17.0538653,31.4692698 C16.8546707,30.8251438 16.9578986,30.1707862 17.2123427,29.5572157 C17.4667769,28.9436152 17.8477629,28.3736219 18.2039747,27.8123608 L19.3803289,25.9439244 C19.9793728,24.9900826 20.5740761,24.0333306 21.1993046,23.0969119 C21.8035394,22.1601632 22.4659443,21.2622313 23.1826186,20.4084076 C23.7147509,19.7933068 24.3457806,19.1084934 25.1077528,18.7929466 C25.2476671,18.7360564 25.3942422,18.6969793 25.5439281,18.6766257 C25.6762111,18.6591925 25.6471561,18.4280109 25.5134029,18.4425435 L25.5104618,18.4425435 C24.7310866,18.5268787 24.0637414,19.083769 23.5228176,19.605773 Z" id="Path-715" fill="#000000"></path>
                        <path d="M8.22184539,13.3101121 C8.49267977,13.5020606 8.80309871,13.6302136 9.13009119,13.6851263 C9.19625539,13.6849557 9.25214362,13.635724 9.26087022,13.5698508 C9.26467873,13.5052222 9.22563398,13.445823 9.16495764,13.4239221 C9.01962432,13.3757744 8.88448694,13.3407552 8.74788022,13.2780136 C8.61130348,13.2229403 8.47997474,13.1555515 8.35551327,13.0766503 C8.10552077,12.9210459 7.88383722,12.7236272 7.70012887,12.4929858 C7.61727118,12.387918 7.43128372,12.5294705 7.51264199,12.6389145 L7.51265199,12.637429 C7.70883547,12.9008815 7.9487319,13.1284415 8.22184539,13.3101121 Z" id="Path-716" fill="#000000"></path>
                        <path d="M8.6955893,15.0155222 C8.88189091,15.0155222 8.8760546,14.747854 8.6955893,14.7245885 C8.37297016,14.6991515 8.05796933,14.6132943 7.76709455,14.4714398 C7.47530881,14.3225706 7.21333528,14.1213966 6.99428824,13.8779044 C6.90697375,13.7804394 6.72795002,13.9128276 6.80945822,14.0233913 L6.80365194,14.0262932 C7.25760318,14.6186679 7.94991237,14.980649 8.6955893,15.0155222 Z" id="Path-717" fill="#000000"></path>
                        <path d="M7.65329885,15.9925395 C7.72458572,16.0076037 7.79588252,15.9669974 7.81977093,15.8976877 C7.83927798,15.8252568 7.79734626,15.7504574 7.72569096,15.7299033 C7.35495746,15.6793713 7.01053211,15.508857 6.74420464,15.2440531 C6.64143167,15.1404399 6.48942804,15.2965823 6.58642557,15.403076 L6.58642557,15.4089271 C6.86769947,15.7176894 7.24318284,15.9230491 7.65329885,15.9925395 Z" id="Path-718" fill="#000000"></path>
                        <g id="Group-384" transform="translate(24.9941, 16.9692)" fill="#024547">
                            <path d="M1.74047911,17.3092048 C1.48870534,17.7758033 1.23686147,18.2424117 0.989423096,18.7119699 L0.635712266,19.3835402 C0.574536022,19.5012997 0.51342988,19.619019 0.450851887,19.7353187 C0.425920816,19.7922936 0.395733185,19.8468188 0.360589385,19.8981142 C0.338772194,19.9271916 0.28927052,19.9591791 0.284935117,19.9533496 C0.194612548,19.8167318 -0.0571612418,19.8995841 0.00541675091,20.0711088 C0.0331012532,20.1558813 0.0956191644,20.2248752 0.177200839,20.260942 C0.258842587,20.2969788 0.351978675,20.296679 0.433380127,20.2600923 C0.667742208,20.1670505 0.768147357,19.8530883 0.870024323,19.6481166 C1.16115716,19.092806 1.45234999,18.5365556 1.74342275,17.9793153 L3.45955157,14.6359229 C3.53087046,14.4905459 3.32272102,14.3713565 3.24700665,14.5109341 L3.24558496,14.5065645 L1.74047911,17.3092048 Z" id="Path-719"></path>
                            <path d="M14.1346242,16.7134972 C14.2161023,17.6670629 14.3121207,19.1729592 15.4672437,19.4477005 C15.5371835,19.4669278 15.6094351,19.4259446 15.6287389,19.3561344 C15.6480426,19.2862543 15.6069935,19.2140338 15.5371237,19.1947765 C14.5186981,18.9040475 14.475087,17.5376903 14.4008741,16.6786213 C14.2815892,15.310344 14.1147803,13.9468861 13.9004576,12.5882874 C13.4680796,9.85146284 12.8398919,7.14914346 12.0208184,4.50205612 C11.5562574,3.00485694 11.0329946,1.5285347 10.4511,0.0730497167 C10.3972917,-0.0592516586 10.1804572,-0.00255964696 10.2343356,0.132611319 L10.2343255,0.126812145 C12.3365332,5.43624465 13.6505794,11.0242381 14.1346242,16.7134972 Z" id="Path-720"></path>
                            <path d="M15.9066972,21.3506537 C15.9684339,21.3144674 15.9892781,21.2363198 15.9535538,21.1749825 C15.9157944,21.1155768 15.8374649,21.0954183 15.7749222,21.1289102 C15.7497761,21.1432737 15.7238846,21.1562703 15.6972576,21.1677908 C15.6826193,21.1677908 15.6811484,21.1677908 15.6972576,21.1677908 L15.6738343,21.1764387 L15.6386641,21.1893758 C15.5811082,21.2070281 15.5223838,21.2209657 15.4629239,21.2311588 L15.4380196,21.2311588 L15.3941148,21.2311588 C15.3653419,21.2325754 15.3364985,21.2325754 15.3077257,21.2311588 L15.2197951,21.2311588 L15.2007945,21.2311588 L15.1524065,21.2210647 C15.082862,21.201986 15.0107989,21.2419563 14.9913651,21.3103664 C14.9718708,21.3787468 15.012582,21.4497028 15.082187,21.4687716 L15.0777542,21.4702179 C15.3597506,21.5280782 15.6534838,21.4857305 15.9066972,21.3506537 Z" id="Path-721"></path>
                        </g>
                        <path d="M12.2308779,18.2827879 C13.0390257,17.749306 13.9637671,17.4188541 14.9265833,17.3193912 C15.1622693,17.2793397 15.4029534,17.2793397 15.6386395,17.3193912 C15.9103811,17.390725 15.9292934,17.6715655 15.9845114,17.9087809 C16.0590617,18.2089915 16.1100715,18.5145376 16.1371007,18.8227165 C16.1557733,18.9247821 16.1316132,19.030081 16.0702376,19.1137576 C15.9772547,19.2025295 15.8072224,19.1646804 15.6967864,19.1414063 C15.4341911,19.0759085 15.1633688,19.0498816 14.8931465,19.0642664 C14.6193956,19.0940473 14.3512526,19.1626683 14.0967741,19.2679973 C13.5661057,19.4996469 13.0606271,19.7854125 12.5884054,20.1207795 C12.0666434,20.4700809 11.4999094,20.8484624 11.0697808,21.3097796 C10.6395923,21.7711069 10.5655218,22.3415771 10.5132427,22.9338698 L10.7384329,22.7621522 C10.5785866,22.7374066 10.5408217,22.5598529 10.5132427,22.4216199 C10.4696201,22.194575 10.4507076,21.9602927 10.4201998,21.7318163 C10.3591841,21.2661245 10.3228286,20.7873291 10.2167309,20.3289049 C10.1954393,20.2518251 10.1205792,20.2023738 10.0414508,20.2130048 C9.96232229,20.2236358 9.90313589,20.2911458 9.90283601,20.3711286 C9.92321788,20.9532408 10.0395015,21.5455332 10.1165008,22.126214 C10.1629923,22.4754553 10.1978884,23.0371867 10.6440005,23.1055875 C10.6973892,23.1188412 10.7538767,23.1071489 10.7976893,23.0737543 C10.8414918,23.0403898 10.8677914,22.9889468 10.8692508,22.9338698 C10.8834051,22.6405063 10.9321557,22.3498657 11.0145829,22.0679841 C11.1169021,21.7947814 11.2905328,21.5540525 11.5173724,21.370883 C11.9966713,20.9575554 12.506728,20.5814962 13.0432541,20.2459691 C13.567825,19.9097712 14.1273521,19.5576069 14.7478347,19.4411764 C15.0413577,19.4008247 15.3398886,19.417592 15.6270041,19.4906676 C15.8639097,19.5357542 16.1327226,19.5488678 16.3187485,19.3655381 C16.4693184,19.1860925 16.5292944,18.9473454 16.4814634,18.7179281 C16.4436985,18.3904693 16.3812232,18.064482 16.311491,17.7428893 C16.2606113,17.4998378 16.2025249,17.2509904 15.9917989,17.0952793 C15.7865607,16.9660256 15.5441671,16.9091768 15.3029833,16.9337322 C14.2724541,16.9701198 13.2671748,17.2626825 12.3776994,17.785073 C11.3982298,18.3526502 10.5088744,19.2039911 10.0293356,20.2415946 C10.003096,20.2963712 10.023358,20.3621691 10.075887,20.3926606 C10.1283561,20.4231221 10.1954094,20.4080566 10.2298756,20.3580148 L10.2327145,20.3594863 C10.7443505,19.5333116 11.4254789,18.8254594 12.2308779,18.2827879 Z" id="Path-736" fill="#000000"></path>
                        <path d="M16.9910204,32.5272464 C17.2543791,32.0652876 17.5585247,31.6294606 17.8349853,31.1761958 C17.9557347,30.9786132 17.6617984,30.8202433 17.5308497,30.998949 C17.2216094,31.442001 16.9462699,31.9077071 16.7072933,32.3921503 C16.4599091,32.865761 16.2387587,33.3524525 16.0379267,33.8449101 C15.9870105,33.9713223 16.2009144,34.0613697 16.2591071,33.9379256 L16.2634611,33.9408135 C16.4875742,33.4565602 16.730074,32.9853579 16.9910204,32.5272464 Z" id="Path-739" fill="#000000"></path>
                    </g>
                </g>
            </g>
        </g>
    </g>
</svg>