<?xml version="1.0" encoding="UTF-8"?>
<svg width="98px" height="137px" viewBox="0 0 98 137" version="1.1" xmlns="http://www.w3.org/2000/svg" xmlns:xlink="http://www.w3.org/1999/xlink">
    <title>Group 12</title>
    <g id="Sitio-web-/-dashboard" stroke="none" stroke-width="1" fill="none" fill-rule="evenodd">
        <g id="Home---2024" transform="translate(-556, -1788)">
            <g id="Group-5" transform="translate(556, 1788)">
                <g id="Group-3">
                    <rect id="Rectangle" fill="#E1E1E1" x="0" y="0" width="81.9516028" height="118.622323"></rect>
                    <rect id="Rectangle" fill="#ECECEC" x="40.9758014" y="0" width="40.9758014" height="118.622323"></rect>
                    <rect id="Rectangle" fill="#FFFFFF" transform="translate(19.7814, 20.4521) scale(1, -1) translate(-19.7814, -20.4521)" x="11.3036694" y="8.18084988" width="16.955504" height="24.5425496"></rect>
                    <rect id="Rectangle" fill="#E1E1E1" transform="translate(19.0749, 20.4521) scale(1, -1) translate(-19.0749, -20.4521)" x="18.3684627" y="8.18084988" width="1.41295867" height="24.5425496"></rect>
                    <rect id="Rectangle" fill="#000000" transform="translate(19.0749, 55.9025) scale(1, -1) translate(-19.0749, -55.9025)" x="18.3684627" y="43.6311994" width="1.41295867" height="24.5425496"></rect>
                    <rect id="Rectangle" fill="#FFFFFF" transform="translate(19.7814, 55.9025) scale(1, -1) translate(-19.7814, -55.9025)" x="11.3036694" y="43.6311994" width="16.955504" height="24.5425496"></rect>
                    <rect id="Rectangle" fill="#E1E1E1" transform="translate(19.0749, 55.9025) scale(1, -1) translate(-19.0749, -55.9025)" x="18.3684627" y="43.6311994" width="1.41295867" height="24.5425496"></rect>
                    <rect id="Rectangle" fill="#FFFFFF" transform="translate(62.1702, 20.4521) scale(1, -1) translate(-62.1702, -20.4521)" x="53.6924294" y="8.18084988" width="16.955504" height="24.5425496"></rect>
                    <rect id="Rectangle" fill="#ECECEC" transform="translate(61.4637, 20.4521) scale(1, -1) translate(-61.4637, -20.4521)" x="60.7572228" y="8.18084988" width="1.41295867" height="24.5425496"></rect>
                    <rect id="Rectangle" fill="#FFFFFF" transform="translate(62.1702, 55.9025) scale(1, -1) translate(-62.1702, -55.9025)" x="53.6924294" y="43.6311994" width="16.955504" height="24.5425496"></rect>
                    <rect id="Rectangle" fill="#ECECEC" transform="translate(61.4637, 55.9025) scale(1, -1) translate(-61.4637, -55.9025)" x="60.7572228" y="43.6311994" width="1.41295867" height="24.5425496"></rect>
                </g>
                <path d="M70.7785537,66.9048467 C70.7920698,68.116918 70.8273059,69.3279892 70.8842618,70.5381403 C70.8958471,70.7972348 70.9190177,71.0809721 71.1014608,71.2618961 C71.2508989,71.3881629 71.4322616,71.4707837 71.6256297,71.5007277 C77.2843783,72.8918128 83.4774208,73.2855155 88.7538853,70.8131666 C89.0825751,70.6597062 89.4214092,70.4802319 89.6081944,70.1704407 C89.7732696,69.8968743 89.793539,69.5625101 89.8051243,69.2425876 C89.8992072,66.750896 89.7776102,64.2557139 89.4416771,61.7849653" id="Path-824" fill="#000000" transform="translate(80.3079, 67.1982) scale(-1, 1) translate(-80.3079, -67.1982)"></path>
                <path d="M70.6954787,70.4696245 C70.7128526,70.9240978 70.7794476,71.3611706 71.2455919,71.556572 C71.6798892,71.7403833 72.1851223,71.8127341 72.6440251,71.9140549 C74.6871727,72.3804582 76.7680984,72.6623499 78.8616972,72.7564106 C80.9290903,72.8524213 83.0001943,72.6792302 85.0229073,72.241147 C86.0191004,72.0183954 86.9952396,71.7139232 87.9413815,71.3307705 C88.4047152,71.1678693 88.8492638,70.9558279 89.2674274,70.6982861 C89.6477326,70.4359842 89.8829958,70.0106013 89.9029503,69.549108 C89.9623036,68.9325236 89.9507217,68.3015089 89.9507217,67.6820245 C89.9507217,67.0172297 89.9367373,66.352885 89.908741,65.6890602 C89.873033,64.3695307 89.7492262,63.0538814 89.5381489,61.750862 C89.5077421,61.5829508 89.2211084,61.6191511 89.2370319,61.7913623 C89.3383646,62.9014803 89.4816954,64.0057982 89.5453796,65.1202462 C89.6090839,66.2346941 89.63225,67.3506123 89.6105251,68.4650602 C89.6105251,68.7458523 89.5989513,69.0266144 89.5859184,69.3074164 C89.5905995,69.5590682 89.5412288,69.8087894 89.4411564,70.0397511 C89.238481,70.4319939 88.7679969,70.6085753 88.3887119,70.7807865 C87.4874401,71.1837394 86.5543807,71.5114717 85.5990868,71.7606535 C81.7454338,72.7737808 77.6702907,72.56101 73.7876911,71.8272448 C73.2259953,71.721104 72.6667202,71.603853 72.1098554,71.475522 C71.8561586,71.4300217 71.6056726,71.3681313 71.3599775,71.2902508 C71.0704427,71.18316 71.0024075,70.9342277 70.9792423,70.6534357 C70.8750089,69.4101667 70.8634263,68.152438 70.8344698,66.9077091 C70.8280184,66.8514387 70.7803777,66.8089585 70.723725,66.8089585 C70.6670624,66.8089585 70.6194217,66.8514387 70.6129702,66.9077091 L70.6173012,66.9077091 C70.6230925,68.0945476 70.6491583,69.281836 70.6954787,70.4696245 Z" id="Path-825" fill="#000000" transform="translate(80.2809, 67.211) scale(-1, 1) translate(-80.2809, -67.211)"></path>
                <path d="M89.9111977,55.5778465 C89.8156672,55.3679683 89.7085659,55.143629 89.5088348,55.0322046 C89.3090938,54.9207502 89.0196333,54.9482513 88.775032,55.0032434 C87.8733373,55.2073215 87.019401,55.5749562 86.1698265,55.9310102 C83.9322548,56.864087 81.6676557,57.7301213 79.3760338,58.5290728 C79.1184124,58.6187963 78.8419598,58.7099895 78.5771084,58.6434269 C78.3800974,58.5775643 78.2001666,58.4687998 78.0502758,58.3249941 C75.2052109,55.9501405 72.7862371,53.107199 70.8975372,49.9185634 C70.4112347,49.096451 69.9451936,48.2323668 69.2171898,47.6143324 C68.678777,47.1555144 68.0231339,46.8573425 67.3588104,46.6084027 C65.3534999,45.8600233 63.216608,45.5285602 61.0788269,45.6343044 L60.8110657,45.6343044 C60.8182957,45.6531051 60.8269756,45.6704958 60.8342257,45.6892965 C60.895136,45.8262619 60.9290458,45.9736977 60.9340858,46.1235136 C60.9210358,46.2959104 60.8717257,46.463617 60.7893553,46.615633 C60.3177328,47.6154324 59.6942798,48.5362387 58.9411058,49.3453805 C58.8687455,49.4357441 58.7759846,49.5076771 58.670454,49.555259 C58.4287528,49.6435525 58.1754614,49.4756657 57.9728403,49.3178794 L56.8279943,48.4219441 C56.7941342,48.3888328 56.7504848,48.3675022 56.7035246,48.3611519 C56.6524743,48.3676822 56.6050832,48.3911229 56.568923,48.4277444 L55.8611698,49.0182877 C55.6315386,49.230396 55.3690673,49.403923 55.0839558,49.5320981 C54.7927142,49.658633 54.4579426,49.634272 54.1880512,49.4669755 C54.0330404,49.3387404 53.9071997,49.178844 53.8189893,48.9980268 C53.2400563,48.0094579 52.6611129,46.9716671 52.5279622,45.8427226 L49.1223848,45.9266759 C47.1424277,53.1414 46.4496374,57.996898 47.0440139,60.4931698 C47.9355785,64.2375474 51.1761553,63.351742 53.0215149,63.55439 C54.8668644,63.7570079 68.3343248,61.8175021 68.4414253,61.2834311 C68.5485259,60.74935 68.0506435,60.0907844 68.0520935,59.3106337 C68.0535335,58.5305129 69.7975823,57.7908939 70.713747,57.5737753 C71.6299018,57.3566667 72.0351647,58.1527479 71.7456932,58.4943113 C71.4562217,58.8359048 71.4432017,58.4653797 73.1221104,59.789712 C74.8010091,61.1141042 73.8747237,62.1431643 73.3377609,62.9015942 C72.8007981,63.6600441 71.8079236,63.4183349 71.2304306,63.3358116 C70.8454419,63.2808161 70.2804986,63.058884 69.5356007,62.6700153 C69.9379628,63.015949 73.6170931,65.8976829 74.0541954,66.2016449 C77.601604,68.6621919 81.9537449,65.9931972 84.9092102,63.8670235 C87.0006111,62.3617442 88.8662201,60.5698633 90.7231598,58.783783 C90.8879007,58.6786788 91.0013609,58.5096318 91.0362511,58.3173342 C91.0711312,58.1250366 91.024293,57.9269084 90.9069824,57.7706223 L90.9069633,57.7561522 C90.5750416,57.0295635 90.2431194,56.3034551 89.9111977,55.5778465 Z" id="Path-826" fill="#0C3970" transform="translate(68.9634, 56.403) scale(-1, 1) translate(-68.9634, -56.403)"></path>
                <path d="M90.1702881,55.7755737 C89.9560711,55.3064818 89.7534468,54.7982765 89.1571274,54.8026381 C88.8806784,54.8190337 88.6076286,54.8721221 88.34515,54.9604425 C88.0050189,55.054565 87.6721281,55.170385 87.3421173,55.294878 C86.7211971,55.5308895 86.1132971,55.7972808 85.4996071,56.0492277 C84.2336358,56.568507 82.9584924,57.0675194 81.6741905,57.5462646 C81.0315496,57.7837166 80.3874782,58.016827 79.7419472,58.2455759 C79.4524677,58.3483614 79.1325994,58.5018243 78.8199692,58.5162992 C78.4537872,58.5336652 78.1845679,58.2441157 77.9269295,58.0255003 C76.0630987,56.4406333 74.3845446,54.6498553 72.923357,52.6873579 C72.2000834,51.711311 71.5308712,50.6963104 70.9187412,49.6469083 C70.3253119,48.6334385 69.7130716,47.6532704 68.6781979,47.040819 C68.0772282,46.7052833 67.4414484,46.4363005 66.7821369,46.2387223 C66.079954,46.0084828 65.3621391,45.8289708 64.6342354,45.7015769 C63.3712342,45.4994771 62.0910136,45.4257517 60.8131618,45.4815009 C60.7596901,45.4829614 60.7108479,45.5121815 60.684247,45.5586175 C60.6576461,45.6050236 60.6571362,45.6619232 60.6828871,45.7088194 C60.7855804,45.9118295 60.8027909,46.1474808 60.7306585,46.3632553 C60.6413456,46.5873026 60.5358922,46.8045676 60.4151382,47.0133196 C60.0045549,47.7836955 59.4998989,48.5000727 58.9127598,49.1459856 C58.7390741,49.3356611 58.5856489,49.492025 58.3193302,49.3602595 C58.1127735,49.2400681 57.9188071,49.0993995 57.7403812,48.9404047 L57.2019539,48.5176187 C57.0673395,48.4133627 56.8878737,48.2063214 56.7011576,48.2034504 C56.5564228,48.2034504 56.4348385,48.3351757 56.3306351,48.4205952 L55.7835274,48.8766527 C55.4708872,49.1372727 55.1162859,49.4470994 54.6864119,49.4558024 C54.1928458,49.4558024 54.0032495,49.0214526 53.7904825,48.6479037 C53.2896862,47.7792239 52.8004804,46.8540446 52.6774464,45.8391344 C52.6725062,45.7613175 52.610504,45.6992861 52.5327115,45.6943444 L49.1270406,45.7768929 C49.0600084,45.7794838 49.0019464,45.8242092 48.9822958,45.8883514 C48.6769058,46.9583006 48.4091372,48.0485169 48.1645292,49.1300402 C47.6464323,51.3102627 47.238239,53.5152233 46.9415093,55.7364798 C46.8003047,56.7666553 46.7285423,57.8051537 46.7258422,58.8449726 C46.7374226,59.8150074 46.8633467,60.7836323 47.2975509,61.6639061 C47.7470255,62.5796321 48.5820427,63.2466028 49.574275,63.4823742 C50.4817846,63.7111231 51.4240254,63.656113 52.3517957,63.670578 C52.884433,63.670578 53.4025901,63.7299293 53.9439077,63.7038803 C54.689312,63.6647768 55.4318064,63.592391 56.1728706,63.5127735 C58.1991968,63.2984996 60.2081518,63.0248463 62.2185574,62.7207813 C63.9380435,62.4616319 65.6662102,62.1995698 67.3625355,61.8115559 C67.7099068,61.7319384 68.178852,61.673999 68.4799118,61.4640865 C68.7809616,61.2541441 68.5580748,60.7039645 68.4712219,60.4404535 C68.351098,60.0799491 68.1817515,59.6774606 68.2121525,59.2822142 C68.2309631,59.0520047 68.4118899,58.8666599 68.5768852,58.7219 C69.0588609,58.3034856 69.6986015,58.038525 70.297821,57.838726 C70.7190048,57.6939361 71.5888837,57.4724195 71.690197,58.1456518 C71.7278282,58.3961383 71.4499288,58.4482456 71.455719,58.66399 C71.4615092,58.8797045 71.8494006,59.0317272 71.9912453,59.1258497 C72.2647942,59.3082527 72.5311142,59.5022594 72.7930927,59.7049694 C73.1419041,59.9713613 73.4979642,60.252249 73.7295418,60.6315899 C74.0320416,61.1267208 73.9611209,61.645059 73.6817818,62.1286259 C73.4169131,62.5904853 73.0883518,63.1247292 72.5354538,63.2420197 C72.0115067,63.3520476 71.3630862,63.231887 70.8608398,63.0624886 C70.4343759,62.9139373 70.0197325,62.7334247 69.6204395,62.5224419 C69.4757048,62.4471559 69.2991281,62.6426029 69.4366226,62.7598934 C70.2717499,63.4751403 71.1604398,64.1353386 72.0274181,64.8114719 C72.5238643,65.1980453 73.0188704,65.5845989 73.5196667,65.9697418 C73.9769516,66.3369686 74.4788278,66.6449348 75.0133553,66.886198 C76.876116,67.6738198 78.9212602,67.2858161 80.7261391,66.5184612 C82.6323413,65.7033299 84.3851007,64.4914818 86.0090637,63.2188625 C87.0873588,62.3718902 88.1106501,61.4583044 89.1107826,60.5215511 C89.6115789,60.0524592 90.1085155,59.5795162 90.6015816,59.1026917 C90.798418,58.9144567 91.0459269,58.726252 91.1530304,58.4670925 C91.2601339,58.2079131 91.1602627,57.9270463 91.045929,57.6750994 C90.9663264,57.4984684 90.7057878,57.6519613 90.7854004,57.8285923 C90.8671131,57.9660597 90.9054413,58.1250248 90.895401,58.2846498 C90.8504295,58.4235178 90.7653087,58.5459695 90.650795,58.6364508 C90.436588,58.8463932 90.2165821,59.0520041 90.0023651,59.2590055 C89.5768412,59.6673165 89.1484161,60.0731872 88.7171021,60.4766464 C87.8732845,61.2599068 87.0135472,62.0272612 86.1118279,62.74827 C84.5515469,64.0049938 82.8624606,65.1864318 81.0460014,66.0420971 C79.3279754,66.8514264 77.3305895,67.3711947 75.4692688,66.7399368 C74.3287317,66.3519229 73.3995219,65.5063923 72.4645214,64.7766705 C71.5295209,64.0469586 70.5539783,63.3288398 69.6464787,62.5484505 L69.4626637,62.7859039 C70.3455625,63.2419913 71.3659559,63.6719789 72.3834591,63.5706539 C72.6893191,63.5493466 72.9815288,63.435778 73.2214966,63.2448921 C73.4134228,63.0609886 73.5803387,62.8526369 73.7179432,62.6251984 C73.9943922,62.2313825 74.24623,61.7825569 74.2346497,61.287426 C74.2187391,60.5924562 73.7121429,60.0509788 73.1983261,59.6455889 C72.7554217,59.295188 72.2951562,58.9752179 71.8233109,58.665391 C71.7914698,58.645124 71.739367,58.6060405 71.7379169,58.607481 C71.7118661,58.616184 71.7581787,58.5828728 71.7494984,58.6378918 C71.7494984,58.6610598 71.7494983,58.7233112 71.7422581,58.7131777 C71.7350178,58.7030442 71.7162073,58.7363457 71.7494984,58.7131777 C71.7610787,58.7030442 71.7712093,58.6900098 71.7813396,58.6798763 C71.8209709,58.6409829 71.8572815,58.5988577 71.8898926,58.5539122 C72.1562013,58.1687993 71.8725214,57.6605944 71.493309,57.4810925 C70.9577816,57.2262445 70.3035707,57.5085713 69.7955341,57.7112713 C69.238286,57.9327877 68.6376364,58.2093332 68.2207928,58.6509256 C68.0554674,58.8086301 67.9461943,59.0160417 67.9096031,59.2416096 C67.8719719,59.5977825 67.9921063,59.9742222 68.1021099,60.3086576 C68.1542116,60.4679226 68.2121037,60.6271884 68.2555351,60.7907848 C68.2844961,60.9415669 68.2985464,61.094779 68.2975063,61.248312 C68.2975063,61.2034365 68.330797,61.2294757 68.3076363,61.2193422 C68.2844755,61.2092087 68.3510577,61.1990752 68.3076363,61.2193422 C68.2960559,61.2193422 68.2844747,61.2338477 68.2714443,61.2396097 C68.2183926,61.2648584 68.1637605,61.2865952 68.1078987,61.3047915 C68.0138156,61.3366324 67.9197338,61.3641421 67.8256607,61.3902111 C67.559342,61.4640266 67.2886833,61.526309 67.0194645,61.584219 C66.2320888,61.7564884 65.4389316,61.8983864 64.6443157,62.0344734 C62.5919387,62.3863148 60.5294318,62.6860092 58.4625845,62.9495201 C56.8458618,63.1551011 55.2117791,63.3838392 53.580586,63.4229527 C52.9640058,63.4388581 52.3474255,63.3737164 51.7293954,63.3737164 C50.7929448,63.3737164 49.7971525,63.3737158 48.9403045,62.9393959 C46.9863408,61.9693311 46.9472694,59.4530224 47.0673934,57.5708427 C47.2121381,55.2832832 47.637662,53.0130603 48.1124074,50.7747378 C48.4385481,49.2400281 48.8018399,47.7135313 49.2022829,46.1952473 L49.2630749,45.9664983 L49.1183302,46.0779868 L52.5240011,45.9940078 L52.3792667,45.8492178 C52.5008407,46.8424506 52.9321645,47.7430014 53.4184804,48.6001072 C53.6254471,48.9678441 53.8266337,49.4688172 54.2290068,49.6656952 C54.6024289,49.8481282 55.0424335,49.7525749 55.3869047,49.5556669 C55.8095385,49.315324 56.1757306,48.9548097 56.5448027,48.6435523 C56.6244153,48.5783698 56.6345451,48.5421972 56.7300682,48.5595732 C56.8024306,48.5726077 56.8661227,48.6449927 56.9211245,48.6884277 L57.2236242,48.9258797 L57.8792858,49.4384165 C58.2078365,49.6917739 58.6029694,49.8727663 58.9488907,49.5527759 C59.3051523,49.2071966 59.6243428,48.8252949 59.9012718,48.4133427 C60.2261524,47.9660483 60.5164623,47.4946257 60.7696905,47.0031561 C60.9050949,46.7776482 61.0074477,46.5338441 61.0736399,46.2792463 C61.1031908,46.0355121 61.0593394,45.7884769 60.9477158,45.5698314 L60.8160019,45.7971099 C61.9547991,45.7446318 63.0960163,45.7940588 64.2260132,45.9448008 C65.4966946,46.1290044 66.7370044,46.4825264 67.9139328,46.9959136 C68.4798512,47.2361365 68.9935775,47.5843166 69.4264317,48.0209873 C69.8115142,48.4487749 70.1474752,48.9183871 70.4280243,49.4210405 C71.0474945,50.4620198 71.6785566,51.4885241 72.3877697,52.4716234 C73.7753049,54.3937968 75.3670661,56.1598461 77.1351738,57.738821 C77.3435806,57.924125 77.553937,58.1065584 77.7662239,58.2861004 C77.9804309,58.4670728 78.2004377,58.6798857 78.4696465,58.7710972 C78.7298749,58.8403311 79.0052632,58.8261666 79.2570114,58.7305536 C79.582672,58.6292287 79.9011035,58.5061761 80.220974,58.3932171 C81.5120361,57.9328182 82.7944084,57.4502011 84.0681,56.9453869 C84.7570425,56.673203 85.4440657,56.3942668 86.129158,56.1085482 C86.8079802,55.8189882 87.4839031,55.5294285 88.187336,55.3180256 C88.4999662,55.2210421 88.8560153,55.0907171 89.1860161,55.1023111 C89.5565482,55.1138851 89.6853714,55.4396476 89.8185158,55.7306681 L90.7781296,57.8328934 C90.8591822,58.0124253 91.1197093,57.858963 91.0386467,57.682332 L91.0387154,57.6823616 L90.1702881,55.7755737 Z" id="Path-827" fill="#000000" transform="translate(68.9643, 56.3905) scale(-1, 1) translate(-68.9643, -56.3905)"></path>
                <path d="M80.3456542,49.4331996 C80.684335,49.4968895 80.9245855,49.8239788 80.9911656,50.1568581 C81.0367257,50.4987474 81.0190557,50.8460667 80.9390656,51.181576 C80.3963144,54.4163394 79.8087031,59.6498785 79.0387214,62.5069027 C79.0112214,62.6125525 79.3802921,61.1073359 79.4179222,61.2043257 C79.4544523,61.2826055 79.5108424,61.3499555 79.5814726,61.3996954 L81.7394373,63.1943712 L83.3416409,61.4575853 C83.5991215,61.2655657 83.7080416,60.9324061 83.6137414,60.6253767 L81.8769376,50.8675268 C81.8320875,50.6721272 81.8164774,50.4711975 81.8306274,50.2712179 C81.8901376,49.8481888 82.2014883,49.5041295 82.6165292,49.4028397 C82.4298188,48.8962507 81.9782577,48.738501 81.4774766,48.5344315 C81.0837958,48.8528508 80.7972353,48.9816305 80.5497447,49.4230996" id="Path-828" fill="#65D5C9" transform="translate(81.3471, 55.8672) scale(-1, 1) translate(-81.3471, -55.8672)"></path>
                <path d="M80.838413,50.8768058 C80.7806241,51.2775606 80.7054856,51.676876 80.6433643,52.0761714 C80.5104369,52.9312203 80.3861844,53.7877287 80.2633793,54.644207 C80.001877,56.4497778 79.7461444,58.2611263 79.4152834,60.0522127 C79.2707963,60.8566212 79.1364315,61.6928778 78.8879363,62.4726658 L79.2130174,62.5175085 C79.2130174,62.6043249 79.2130174,62.5262052 79.2216823,62.5030441 C79.2346895,62.4567321 79.2433543,62.4118889 79.2549141,62.3656168 C79.2910309,62.2209328 79.3271477,62.0762393 79.364712,61.9417114 C79.4022862,61.8071535 79.441288,61.652363 79.4831846,61.507679 C79.4990768,61.4556091 79.514969,61.4020697 79.5337461,61.3499899 C79.5337461,61.3297377 79.5337462,61.2964507 79.542421,61.3224707 C79.5323087,61.2660625 79.7360222,61.2921227 79.465845,61.3644447 L79.33726,61.3470917 C79.2838036,61.2819969 79.2693489,61.2718605 79.2939159,61.3152437 C79.3033793,61.3392244 79.3170853,61.3612761 79.3343651,61.3803787 C79.3632645,61.4194236 79.3961969,61.4552992 79.4326131,61.4874268 C79.5250813,61.5727837 79.6247769,61.6480048 79.7215775,61.7290335 L80.3558475,62.2585487 L81.6258249,63.3161488 C81.6915898,63.3808537 81.7970054,63.3808537 81.8627703,63.3161488 L82.9044771,62.1891155 L83.4130473,61.6393385 C83.5593213,61.5017318 83.678423,61.3378151 83.764133,61.1560955 C83.8192166,60.9720868 83.8232193,60.7765425 83.7756925,60.5904245 C83.7309108,60.3285659 83.6832246,60.0681365 83.6312156,59.8077374 L83.3639231,58.3131962 L82.2947743,52.2685969 L82.1416323,51.413578 C82.0776643,51.1309775 82.0294287,50.845038 81.9971452,50.5570695 C81.9505567,50.1132714 82.2368556,49.7026604 82.6689794,49.5935427 C82.7644423,49.5667931 82.8205441,49.4680114 82.7946794,49.3721585 C82.5707313,48.8021592 82.0621613,48.5923704 81.5333667,48.3724556 C81.4698678,48.3556421 81.4022263,48.3737951 81.3556578,48.4201971 C80.9959074,48.709545 80.633262,48.9366871 80.3977641,49.3432397 C80.3550189,49.4309457 80.386973,49.5368247 80.4710758,49.5861256 C80.5551786,49.6354565 80.6630298,49.6115658 80.7185028,49.5313069 C80.9352235,49.156602 81.2834143,48.9424849 81.6128378,48.6791568 L81.4351287,48.7254689 C81.8281209,48.8860467 82.2803396,49.0408667 82.4464889,49.4676415 L82.5707414,49.2477567 C82.2152535,49.3381417 81.9198405,49.5849961 81.7674372,49.9190367 C81.5810534,50.3270487 81.6980886,50.7567224 81.7674372,51.1777394 L82.3150089,54.27526 C82.6762068,56.3171294 83.0369257,58.3585486 83.3971653,60.3994484 C83.4433944,60.6627464 83.5416422,60.9376296 83.3711605,61.1749077 C83.2049614,61.3867357 83.0244174,61.5868591 82.8308063,61.7738867 L81.620065,63.0846586 L81.8613429,63.0846586 L80.2590568,61.7507353 C80.009793,61.5645274 79.7781285,61.3558082 79.5669979,61.1271667 C79.5323386,61.0743572 79.4723037,61.0439491 79.4092939,61.0472078 C79.3462742,61.0504766 79.2897232,61.086982 79.260694,61.1430902 C79.1335465,61.3586468 79.0931073,61.658151 79.030976,61.8954191 C78.9649116,62.0962114 78.9165662,62.3024612 78.8864988,62.5117302 C78.8705967,62.7055951 79.156676,62.7273168 79.21157,62.5565729 C79.4175395,61.8204979 79.5786975,61.0726173 79.6941355,60.3169899 C79.8646171,59.4055129 80.0134267,58.488259 80.1535814,57.5681152 C80.4425357,55.7191612 80.679481,53.8629496 80.9669979,52.0139656 C81.0016772,51.7897224 81.0363465,51.5654693 81.0739107,51.3412261 C81.1399451,51.0438513 81.1738559,50.7401987 81.1750438,50.4355667 C81.1490393,49.9523238 80.8976393,49.4228088 80.376072,49.3331236 C80.3198205,49.3175396 80.2616024,49.3505769 80.2460396,49.4069151 C80.2304769,49.4632333 80.2634691,49.5215207 80.3197206,49.5371146 L80.3255105,49.5400134 C80.9034292,49.7078284 80.9034292,50.3950623 80.838413,50.8768058 Z" id="Path-829" fill="#65D5C9" transform="translate(81.3477, 55.8653) scale(-1, 1) translate(-81.3477, -55.8653)"></path>
                <path d="M77.281694,38.4541371 C77.2876762,39.0484254 77.339475,39.6413844 77.4366202,40.2277265 C77.6393138,41.3850279 78.1228993,42.4439759 79.0292581,43.2005773 C79.5652426,43.6722637 80.1947611,44.0257059 80.8767185,44.2378054 C81.5227329,44.4167405 82.2129133,44.3400669 82.8038077,44.0237069 C83.9421707,43.4406133 84.8020425,42.4295025 85.1942148,41.2128792 C85.3689782,40.5326916 85.4584606,39.8334233 85.4606113,39.1311662 C85.5023565,38.3060873 85.499936,37.4793492 85.4533691,36.6545302 C85.4533691,36.5746281 85.3885451,36.5098588 85.3085861,36.5098588 C85.2286271,36.5098588 85.1638041,36.5746281 85.1638041,36.6545302 C85.105893,37.956493 85.2231653,39.2830743 84.9828181,40.5763812 C84.7547954,41.7197891 84.0900742,42.7295306 83.1295657,43.3915467 C82.6141287,43.7589825 81.9987955,44.0367509 81.3530512,43.9571786 C80.6812474,43.8747177 80.0586715,43.5159476 79.5258582,43.1166768 C79.0702429,42.7869731 78.6865037,42.3681318 78.397989,41.8855906 C78.130572,41.4179822 77.9353312,40.9127116 77.8188489,40.3868608 C77.689632,39.7846863 77.6135744,39.1723365 77.5915364,38.5568583 C77.5596849,37.9550636 77.5799522,37.3474717 77.5336254,36.745657 C77.5336254,36.6881443 77.4869585,36.6415064 77.4293776,36.6415064 C77.3718067,36.6415064 77.3251398,36.6881443 77.3251398,36.745677 L77.3207882,36.745647 C77.2773624,37.3140375 77.2643077,37.8843472 77.281694,38.4541371 Z" id="Path-830" fill="#000000" transform="translate(81.3854, 40.4231) scale(-1, 1) translate(-81.3854, -40.4231)"></path>
                <path d="M86.3039567,37.1147493 C86.0537846,37.0195729 85.7714458,37.0815891 85.5832864,37.2730357 C85.3815433,37.4792915 85.2766784,37.762423 85.2950123,38.0513939 C85.2915367,38.3437962 85.3882654,38.6284428 85.5688662,38.8573439 C85.6902925,38.9793295 85.8329607,39.077787 85.9897403,39.1477697 C86.0632453,39.1840804 86.1338723,39.2174713 86.2160314,39.2479727 C86.3009193,39.2899824 86.3938936,39.3127784 86.4884514,39.314765 C86.5591979,39.3225609 86.6250048,39.2771599 86.6433686,39.2078695 C86.6617225,39.1385892 86.627146,39.0661783 86.5619564,39.0374126 C86.4956714,38.9996471 86.4243075,38.9717644 86.3500854,38.9546374 C86.2823265,38.9301861 86.2159319,38.9020626 86.1511805,38.8704073 C86.0288679,38.8156553 85.9159961,38.7416391 85.8167877,38.6511382 C85.652798,38.4442101 85.5799104,38.1787574 85.6150048,37.9163448 C85.622683,37.679106 85.7701512,37.4693786 85.9897502,37.3834027 C86.0880325,37.3471923 86.1974585,37.3594129 86.2854833,37.4164425 C86.3734982,37.4734722 86.429944,37.5687089 86.4380106,37.6738284 C86.4380106,37.7914495 86.6297053,37.8190513 86.6470035,37.702875 L86.6470035,37.7086843 C86.6795784,37.4552315 86.5387726,37.2114208 86.3039567,37.1147493 Z" id="Path-831" fill="#000000" transform="translate(85.9709, 38.1941) scale(-1, 1) translate(-85.9709, -38.1941)"></path>
                <path d="M85.3519304,38.0882618 L85.3679029,38.0882618 L85.380966,38.0882618 C85.3562847,38.0882618 85.3649934,38.0809913 85.380966,38.0882618 C85.3909589,38.0935266 85.4006508,38.0993431 85.4100116,38.1056709 C85.4216299,38.1129213 85.3882299,38.0853536 85.4100116,38.1056709 L85.4201751,38.1143754 L85.4317933,38.1274422 C85.4448563,38.1419531 85.4317933,38.1274422 85.4317933,38.1201718 C85.4482977,38.1386438 85.4606784,38.1604152 85.4681029,38.1840417 L85.4550298,38.1521017 C85.4550298,38.172419 85.4710024,38.1912922 85.4797111,38.2116094 L85.4666481,38.1796694 C85.4849383,38.2268323 85.4995063,38.2753691 85.5102115,38.3248084 L85.5102115,38.2885262 L85.5102115,38.2957766 L85.5102115,38.2594944 L85.5247293,38.2261203 C85.5254818,38.2294597 85.5254818,38.2329295 85.5247293,38.236279 L85.5465111,38.2072371 C85.5167832,38.2344438 85.4947406,38.2689811 85.4826106,38.3073893 C85.4609192,38.3968715 85.5012219,38.4898836 85.5813558,38.5352615 C85.6089868,38.5505145 85.6398484,38.5589683 85.6713922,38.5599411 C85.6979497,38.5601817 85.7240657,38.5531619 85.7469009,38.5396238 C85.7682612,38.5255441 85.7865414,38.5072726 85.8006278,38.4859124 C85.8193695,38.4539022 85.824085,38.4155742 85.8136908,38.3799639 C85.8024738,38.3467001 85.7805115,38.3180995 85.7512552,38.2986848 C85.7259519,38.283141 85.6967357,38.2750783 85.6670279,38.2754694 L85.7047822,38.2754694 L85.6917192,38.2754694 L85.7251191,38.2899803 L85.7135109,38.2827299 L85.7411018,38.3045012 L85.7280388,38.2914344 L85.7498205,38.3190121 L85.7498205,38.3074094 L85.7643383,38.3407834 C85.7637062,38.3345058 85.7637062,38.328188 85.7643483,38.3219203 L85.7643383,38.3596566 L85.7643383,38.3451458 L85.7643383,38.3828821 C85.7635256,38.3780786 85.7635256,38.3731647 85.7643383,38.3683612 L85.7512753,38.4017352 C85.750282,38.3989173 85.750282,38.3958587 85.7512753,38.3930307 L85.7294936,38.4220625 C85.7382123,38.4104598 85.7498205,38.4003012 85.7585392,38.3872344 C85.7815449,38.3589748 85.7938755,38.3235148 85.7933839,38.2870821 C85.7908857,38.2506795 85.7825483,38.2148987 85.7687027,38.1811335 C85.7570945,38.1477495 85.7440214,38.1158295 85.7294936,38.0824354 C85.7137618,38.0502547 85.6942676,38.0200496 85.6714123,37.9924418 C85.5907868,37.8894917 85.456896,37.8439333 85.3301687,37.8763346 C85.2807861,37.8910059 85.249463,37.9394424 85.2563356,37.9904562 C85.2632183,38.04149 85.3062499,38.0799083 85.3577495,38.0809813 L85.3185304,38.0882618 L85.3519304,38.0882618 Z" id="Path-832" fill="#000000" transform="translate(85.5356, 38.209) scale(-1, 1) translate(-85.5356, -38.209)"></path>
                <path d="M76.5225472,37.4214502 C76.6104498,37.3644656 76.7198496,37.3522675 76.8180274,37.3884913 C77.0381227,37.4741785 77.1862315,37.6834191 77.1945134,37.9204509 C77.2297442,38.1826201 77.1562031,38.4478138 76.9911317,38.6538897 C76.892605,38.7445242 76.7800658,38.818444 76.6579191,38.8727646 C76.5987792,38.9017576 76.5367491,38.9278363 76.474729,38.9510407 C76.3950685,38.9698386 76.318378,38.9995928 76.2468201,39.039462 C76.1815809,39.0681946 76.1469879,39.1404619 76.1653558,39.2096045 C76.1837236,39.2787672 76.2495708,39.3240746 76.3203812,39.316303 C76.4731244,39.304856 76.6211934,39.2582367 76.753117,39.1800506 C76.8951265,39.1161858 77.0284354,39.0343545 77.1497848,38.9365393 C77.363113,38.7351604 77.4894555,38.4578287 77.5017439,38.1639725 C77.5430741,37.8743726 77.4666427,37.580246 77.2897114,37.3479111 C77.1261548,37.1358663 76.8583509,37.0334843 76.595889,37.0826573 C76.3108535,37.1505481 76.1216836,37.4222915 76.1559377,37.7146354 C76.1746842,37.834944 76.3679901,37.8045089 76.366545,37.6856424 L76.3708704,37.6783916 C76.3785046,37.573556 76.4346646,37.4784148 76.5225472,37.4214502 Z" id="Path-833" fill="#000000" transform="translate(76.834, 38.1969) scale(-1, 1) translate(-76.834, -38.1969)"></path>
                <path d="M77.0942427,37.9967679 C77.0720887,38.0233902 77.0532359,38.0526306 77.0381219,38.0838773 C77.0237238,38.115826 77.0093356,38.1491992 76.9978211,38.1826025 C76.9840792,38.21738 76.9758162,38.2541236 76.9733502,38.2914791 C76.9722465,38.3221841 76.980251,38.3525379 76.9963793,38.3785985 C77.0093356,38.3974668 77.0237238,38.4090928 77.0366801,38.4265066 L77.0150928,38.3974668 L77.0150928,38.4061738 L77.0021365,38.3727805 C77.0029419,38.3775854 77.0029419,38.3825006 77.0021365,38.3873054 L77.0021365,38.3495587 C77.0027729,38.3543836 77.0027729,38.3592587 77.0021365,38.3640836 L77.0021365,38.3263269 C77.0027729,38.3326063 77.0027729,38.3389258 77.0021365,38.3451952 L77.0165346,38.311812 L77.0093455,38.3234279 L77.0309228,38.2958426 L77.0179764,38.308903 L77.0453209,38.2871257 L77.0338064,38.2943982 L77.0669082,38.2798733 L77.0539518,38.2798733 L77.091369,38.2798733 C77.0619464,38.2796425 77.0330507,38.2876774 77.0079037,38.3031051 C76.9781629,38.3217126 76.956168,38.350612 76.9460157,38.3844064 C76.9355353,38.4200065 76.9402386,38.4584153 76.958972,38.4903841 C76.9724156,38.5116699 76.9900453,38.5299464 77.0107873,38.5440902 C77.0340948,38.5572508 77.0603455,38.5642525 77.0870635,38.564413 C77.1172916,38.5639416 77.1469529,38.5559669 77.1734124,38.5411812 C77.2079858,38.5225035 77.2361059,38.4936442 77.2540041,38.4584354 C77.2785246,38.4142889 77.2857137,38.3624787 77.2741495,38.3132565 C77.2629532,38.2740252 77.241008,38.2387963 77.2108197,38.2116222 L77.2324069,38.240662 C77.2316611,38.2373116 77.2316611,38.233851 77.2324069,38.2305006 L77.2467951,38.2638838 L77.2467951,38.3001861 L77.2467951,38.2784087 L77.2467951,38.3147009 C77.2567186,38.2650775 77.2711764,38.2164672 77.2899795,38.169522 L77.2770231,38.2014709 L77.301494,38.1419468 L77.2885377,38.1738956 C77.2929426,38.1623499 77.2982325,38.1511954 77.3043776,38.1405023 C77.3043577,38.1405023 77.317324,38.1114625 77.3230713,38.110008 C77.3288385,38.1085535 77.3043676,38.1332399 77.3230713,38.1201695 L77.3345858,38.1071091 C77.338056,38.102866 77.3419141,38.098984 77.3461003,38.0954932 C77.3604984,38.0809683 77.3288385,38.1071091 77.3461003,38.0954932 L77.3705711,38.0795138 C77.3859172,38.0727395 77.3859172,38.0727395 77.3705711,38.0795138 C77.3552184,38.0862881 77.3552184,38.0862881 77.3705711,38.0795138 L77.3863911,38.0795138 L77.379202,38.0795138 L77.4122938,38.0795138 C77.4393301,38.0793633 77.4652128,38.0683994 77.4842545,38.0490195 C77.500005,38.0322878 77.5100976,38.0109417 77.5130408,37.988051 C77.5199913,37.9371135 77.4886695,37.8888041 77.4396483,37.8748008 L77.4324392,37.8806088 C77.3068435,37.8478074 77.1739195,37.8934685 77.0942427,37.9967679 Z" id="Path-834" fill="#000000" transform="translate(77.2268, 38.2161) scale(-1, 1) translate(-77.2268, -38.2161)"></path>
                <path d="M83.082161,38.0364632 C83.0521773,38.045753 83.024873,38.0621426 83.0025676,38.0842421 L82.9881007,38.0987118 C82.9755033,38.1130114 82.9643556,38.1285311 82.9548176,38.1450207 C82.9454696,38.1617903 82.938651,38.1798299 82.9345619,38.1985795 C82.9345619,38.2144891 82.9345619,38.2318587 82.9273234,38.2492383 C82.9286231,38.2667379 82.9310426,38.2841376 82.9345619,38.3013272 C82.9382711,38.3197268 82.9451297,38.3373563 82.9548176,38.353436 C82.9752534,38.3864252 83.0036174,38.4137846 83.0373004,38.4330442 C83.0546867,38.4428439 83.0731329,38.4506038 83.0922889,38.4561936 C83.1112449,38.4608335 83.1306608,38.4632735 83.1501767,38.4634435 C83.1672132,38.4623435 83.1841496,38.4599235 83.2008162,38.4561936 L83.2094943,38.4561936 C83.2415576,38.4462939 83.2708115,38.4289243 83.2948765,38.4055548 C83.3099533,38.3936651 83.3218708,38.3782554 83.3295992,38.3606758 C83.3465656,38.3310865 83.3560037,38.2977972 83.3570934,38.263708 C83.3575433,38.2432185 83.3551138,38.2227389 83.3498549,38.2029194 C83.3504848,38.2000695 83.3504848,38.1971095 83.3498549,38.1942396 C83.3498549,38.1797699 83.3382874,38.1624103 83.3310489,38.1479306 C83.320981,38.130211 83.3083036,38.1141014 83.2934268,38.1001717 C83.2686419,38.0762423 83.2383183,38.0588327 83.2051552,38.0495129 C83.1879088,38.0466729 83.1703125,38.0466729 83.1530561,38.0495129 C83.1207029,38.0490729 83.0887896,38.0570527 83.0604555,38.0726624 L83.0257228,38.1001717 C83.0099261,38.1148914 82.9979986,38.133301 82.9909901,38.1537105 C82.9837816,38.1670802 82.9798124,38.1819499 82.9794125,38.1971395 C82.9736537,38.219449 82.9736537,38.2428585 82.9794125,38.265158 L82.9967789,38.3056871 L83.0228234,38.3404163 C83.0382802,38.3560259 83.0570862,38.3678956 83.0778119,38.3751555 C83.0982976,38.3858652 83.1212928,38.3908551 83.144368,38.3896252 L83.0980677,38.3896252 L83.1067458,38.3896252 L83.0662243,38.3722655 L83.0778019,38.3795154 L83.0430692,38.352006 C83.0471083,38.354216 83.0501977,38.3578159 83.0517574,38.3621358 L83.0257128,38.3274066 L83.0257128,38.3375363 L83.0083464,38.2970073 C83.0090163,38.3018172 83.0090163,38.306677 83.0083464,38.3114869 L83.0083464,38.2666079 L83.0083464,38.2738578 L83.0083464,38.2289788 C83.0083464,38.2289788 83.0083464,38.2318721 83.0083464,38.2376586 L83.0242631,38.1971295 L83.0242631,38.1971295 L83.0503077,38.1638503 L83.0835907,38.1378009 L83.0749125,38.1378009 L83.1139843,38.1204213 L83.1024068,38.1204213 L83.1472674,38.1204213 C83.1420484,38.1218412 83.1365596,38.1218412 83.1313507,38.1204213 L83.1762113,38.1204213 C83.1705425,38.1221112 83.1645137,38.1221112 83.1588449,38.1204213 L83.1979167,38.1378009 L83.1834498,38.1291011 L83.2167328,38.1551605 L83.2066049,38.1450307 L83.2311998,38.17686 C83.2272006,38.1714701 83.2238013,38.1656402 83.2210819,38.1595004 L83.2369886,38.1985795 L83.2369886,38.1826698 L83.2369886,38.2246489 C83.2355389,38.217969 83.2355389,38.2110492 83.2369886,38.2043894 L83.2369886,38.2448984 C83.2361587,38.2381886 83.2361587,38.2313787 83.2369886,38.2246489 L83.2225216,38.2593781 C83.2258309,38.2523283 83.2297101,38.2455584 83.2340992,38.2391186 L83.2123937,38.2680679 L83.2355489,38.2391186 C83.2361088,38.2333487 83.2361088,38.2275388 83.2355489,38.221759 C83.2380384,38.2136691 83.2414276,38.2059093 83.2456768,38.1985995 L83.2312098,38.2318887 L83.2312098,38.2232089 C83.2549548,38.1814799 83.2549548,38.130331 83.2311998,38.088602 C83.2194623,38.0693724 83.2030257,38.0534428 83.1834498,38.042293 C83.1636239,38.0295533 83.1404488,38.0230035 83.1168937,38.0234835 L83.1356898,38.0364632 C83.1179735,38.0334732 83.0998773,38.0334732 83.082161,38.0364632 Z" id="Path-835" fill="#000000" transform="translate(83.1419, 38.2467) scale(-1, 1) translate(-83.1419, -38.2467)"></path>
                <path d="M82.8126063,37.5772425 L82.8775004,37.5598453 L82.9063455,37.5598453 L82.9308563,37.5598453 L82.9481534,37.5598453 L82.9842123,37.5598453 L83.0447821,37.5598453 L83.1889877,37.5598453 L83.4528882,37.5671108 C83.5061147,37.5708087 83.5595901,37.5664194 83.6115113,37.5540529 C83.7120558,37.5277468 83.7726156,37.4247168 83.7470685,37.3234306 C83.7274299,37.2555055 83.6659833,37.208405 83.5956391,37.2074029 C83.5588728,37.2046069 83.5221264,37.2132153 83.4903719,37.2320655 C83.5124848,37.2320655 83.5249827,37.2286816 83.5278655,37.2219138 C83.515899,37.2234271 83.5037831,37.2234271 83.4918166,37.2219138 L83.3677976,37.2219138 C83.2798274,37.2219138 83.1918673,37.2219138 83.1038972,37.2306124 C83.0122703,37.2373568 82.9214804,37.25289 82.832783,37.2770215 C82.7377186,37.304911 82.6503563,37.354547 82.577541,37.4220611 C82.5380148,37.4634295 82.5303825,37.5260632 82.5587992,37.5757994 C82.5881226,37.6259264 82.647417,37.6497773 82.7030048,37.6338132 L82.6943563,37.6178592 C82.7332947,37.6019151 82.7736679,37.5903003 82.8126063,37.5772425 Z" id="Path-836" fill="#000000" transform="translate(83.1484, 37.4239) scale(-1, 1) translate(-83.1484, -37.4239)"></path>
                <path d="M79.5646195,38.2476388 L79.5499544,38.2141335 L79.5602139,38.2374433 C79.5636776,38.2495913 79.5702303,38.2606322 79.5792644,38.2694992 L79.592461,38.2869714 L79.5704734,38.2578343 C79.5752335,38.2641146 79.5791732,38.2709686 79.5822015,38.2782252 L79.5675464,38.2432607 C79.5675464,38.2520035 79.5675464,38.2588005 79.5675464,38.2636516 L79.5675464,38.2228596 L79.5675464,38.2432506 L79.5675464,38.2010193 L79.5675464,38.2170322 L79.5836599,38.1776995 C79.5809659,38.1842617 79.5769856,38.1901998 79.5719318,38.1951717 L79.5983149,38.163136 L79.5880554,38.1733315 L79.6203126,38.147103 L79.6071261,38.1558391 L79.6466855,38.1383669 L79.6291036,38.1383669 L79.6745574,38.1383669 C79.6692706,38.139796 79.6637104,38.139796 79.6584237,38.1383669 L79.7038775,38.1383669 L79.6921495,38.1383669 L79.7317291,38.1558391 L79.7229382,38.1558391 L79.7566437,38.1820676 L79.7830369,38.2155627 L79.8006188,38.2563548 C79.7999403,38.2534863 79.7999403,38.2504871 79.8006188,38.2476186 L79.8006188,38.2927687 C79.7991503,38.2890246 79.7991503,38.2848579 79.8006188,38.2811138 L79.8006188,38.326284 C79.7999403,38.3214429 79.7999403,38.3165514 79.8006188,38.3117103 L79.7830369,38.3525024 L79.7903593,38.3423069 L79.7625077,38.3772715 C79.7651511,38.3731752 79.7686452,38.3696827 79.7727672,38.367076 L79.737583,38.3947538 L79.7493111,38.3874569 L79.7082629,38.4049493 L79.7170539,38.4049493 L79.6701518,38.4049493 L79.7170539,38.4049493 C79.738687,38.3993332 79.7587503,38.3888559 79.775684,38.3743527 C79.7880299,38.366462 79.7985426,38.3560351 79.8064829,38.3437562 C79.821067,38.3269281 79.8316101,38.30699 79.8372715,38.2854919 L79.8372513,38.2403218 L79.8372513,38.1951717 C79.8321468,38.1734522 79.8215531,38.1534135 79.8064626,38.1369075 C79.7937319,38.1186301 79.7772539,38.1032412 79.758092,38.0917575 C79.7298859,38.0760969 79.698054,38.0680451 79.6657563,38.0684477 C79.6482148,38.0664247 79.6305012,38.0664247 79.61298,38.0684477 C79.5798113,38.0770429 79.5494986,38.0941226 79.5250297,38.1179759 C79.5108406,38.1307982 79.498515,38.1454926 79.488377,38.1616665 C79.4782593,38.1787462 79.4698936,38.1968022 79.4634625,38.2155728 C79.4583783,38.2351083 79.4554311,38.2551369 79.4546715,38.2752964 C79.4510052,38.2950332 79.4510052,38.3152732 79.4546715,38.3350201 C79.4690125,38.3866517 79.5032447,38.4306041 79.5499442,38.4573861 C79.566483,38.4679842 79.5848853,38.4753817 79.604189,38.4792264 C79.624546,38.4828798 79.6453892,38.4828798 79.6657462,38.4792264 C79.6850498,38.4781998 79.7041915,38.4752609 79.722928,38.4704903 C79.7425963,38.4649748 79.7613632,38.4566413 79.7786211,38.4457212 C79.7950789,38.4353043 79.8103314,38.4230858 79.8240547,38.4093073 C79.8469133,38.3858264 79.8639686,38.3574139 79.8738939,38.326284 C79.8856726,38.2868305 79.8856726,38.2448307 79.8738939,38.2053773 C79.8684957,38.1859928 79.8606162,38.1674034 79.8504479,38.1500318 C79.8393781,38.1327709 79.826617,38.1166775 79.8123367,38.1019429 C79.7762005,38.0642709 79.725379,38.0440711 79.6730787,38.0465974 C79.6492074,38.0461042 79.625731,38.0527066 79.6056373,38.065529 C79.585807,38.0767511 79.5691669,38.092784 79.5572667,38.1121585 C79.5322914,38.1538966 79.5322914,38.2058705 79.5572667,38.2476086 L79.5646195,38.2389027 L79.5646195,38.2476388 Z" id="Path-837" fill="#000000" transform="translate(79.6661, 38.2646) scale(-1, 1) translate(-79.6661, -38.2646)"></path>
                <path d="M79.9700328,37.2630395 C79.8789134,37.2372349 79.7854694,37.2207135 79.6910916,37.2137059 C79.6062509,37.2049841 79.5214202,37.2136859 79.4365894,37.2049841 C79.3948843,37.2049841 79.3546297,37.2049841 79.3129246,37.2049841 L79.2769816,37.2049841 L79.2985494,37.2049841 C79.3273098,37.2049841 79.2640369,37.1919314 79.2597253,37.1904778 C79.2407206,37.1868988 79.2212192,37.1868988 79.2022145,37.1904778 C79.1319179,37.1910091 79.0704034,37.2382976 79.0512298,37.3065486 C79.0274466,37.3989601 79.0763939,37.4946097 79.164811,37.5285547 C79.2187157,37.5479533 79.2759086,37.5563344 79.333042,37.5532165 L79.60335,37.5459684 C79.6896909,37.5425699 79.7761608,37.545006 79.8621738,37.5532165 L79.8736779,37.5532165 L79.9024383,37.5532165 L79.9671319,37.5706201 C80.0088369,37.5836829 80.0505222,37.5967356 80.0922272,37.6127056 C80.21013,37.6576783 80.3035838,37.4821184 80.2130109,37.4008548 L80.2159119,37.408133 C80.1462312,37.3411452 80.0620462,37.2914808 79.9700328,37.2630395 Z" id="Path-838" fill="#000000" transform="translate(79.6481, 37.4044) scale(-1, 1) translate(-79.6481, -37.4044)"></path>
                <path d="M80.5683681,40.081502 C80.614176,40.1738157 80.6896631,40.2476243 80.7824182,40.2907728 C80.9629517,40.4019154 81.1733443,40.4530828 81.3840767,40.4371359 C81.4897627,40.4249205 81.5942395,40.403867 81.6964979,40.374198 C81.7933201,40.35274 81.8824176,40.3046264 81.9539275,40.235156 C82.0197514,40.1655238 82.0529182,40.0706719 82.0450537,39.9746571 C82.0349308,39.8546462 81.9524786,39.7185165 81.8165338,39.7243815 C81.7603931,39.7258984 81.709129,39.756973 81.6813185,39.8063607 C81.653518,39.8557383 81.6532481,39.916219 81.680589,39.9658595 C81.6900323,39.9829895 81.7017042,39.9987442 81.7152947,40.0127091 C81.7152947,40.0214763 81.7341115,40.04345 81.7152947,40.0127091 C81.6964979,39.9819682 81.7066208,39.9863568 81.7152947,40.0127091 C81.7051718,39.9761132 81.7152947,40.0009992 81.7152947,40.0127091 C81.7152947,40.0244088 81.7152947,39.9848906 81.7152947,40.0127091 L81.7152947,39.9966004 C81.7066208,40.0097765 81.7066208,40.0127091 81.7152947,40.0039115 C81.7239886,39.9951342 81.6907119,40.025865 81.7152947,40.0039115 C81.7061911,40.010626 81.6965078,40.0165011 81.6863849,40.0214662 C81.6684275,40.0322963 81.6489012,40.0401939 81.6285155,40.0448859 C81.5981368,40.0551295 81.566329,40.0624406 81.5359603,40.0712382 C81.4761122,40.0876401 81.4152249,40.0998656 81.353728,40.1078239 C81.2277762,40.1226685 81.1001656,40.1060846 80.9820084,40.0595283 C80.9277864,40.0431567 80.8761525,40.0190089 80.8287058,39.987813 C80.8143758,39.9779334 80.8036833,39.9635236 80.798327,39.9468285 L80.798327,39.9336624 C80.8229098,39.884841 80.809779,39.8252502 80.767039,39.7916475 C80.7242789,39.7580449 80.6639811,39.7599055 80.6233296,39.7960766 L80.6204217,39.8034282 C80.5490716,39.8769232 80.528526,39.9866905 80.5683681,40.081502 Z" id="Path-839" fill="#000000" transform="translate(81.3017, 40.081) scale(-1, 1) translate(-81.3017, -40.081)"></path>
                <path d="M81.948863,41.2242262 C81.4987796,41.2580346 81.0467557,41.2580346 80.5966522,41.2242262 C80.5596813,41.215804 80.5208498,41.2231026 80.4895205,41.244372 C80.4504289,41.2817899 80.4692545,41.3465428 80.4895205,41.3882861 C80.6420057,41.6722461 80.9258798,41.8628455 81.2478153,41.8974195 C81.5697307,41.9319835 81.888035,41.8060376 82.0979773,41.560977 C82.1490524,41.5098469 82.1807518,41.4427374 82.1877439,41.371014 C82.1884641,41.2987736 82.1351883,41.2372027 82.0632269,41.2271" id="Path-840" fill="#000000" transform="translate(81.3268, 41.5635) scale(-1, 1) translate(-81.3268, -41.5635)"></path>
                <path d="M80.8236022,41.0673294 C80.6599208,41.05432 80.431033,40.9878043 80.3238404,41.1598938 C80.2311403,41.3045058 80.3238404,41.4780442 80.4179918,41.6024227 C80.7949675,42.1120467 81.5123773,42.2242152 82.0273722,41.8540473 C82.1794837,41.7593546 82.2929418,41.6137934 82.3475189,41.4433425 C82.375433,41.3475806 82.3519627,41.244195 82.2854052,41.1698058 C82.2188477,41.0954165 82.1185911,41.0605249 82.020126,41.0774611 C81.9013434,41.1049487 81.8593271,41.303077 81.9839147,41.3565733 C82.0331673,41.3768168 82.020126,41.3826021 81.9839147,41.4332207 C81.9364938,41.4943309 81.8792242,41.5471078 81.8144282,41.5894033 C81.6743072,41.6844057 81.5086641,41.7348246 81.3392978,41.7340152 C81.1834131,41.7291492 81.0323425,41.6788802 80.9047223,41.5894033 C80.840797,41.5466082 80.7832473,41.4950003 80.7337846,41.4361184 C80.7106146,41.4095101 80.6897866,41.3809534 80.6715008,41.350798 C80.6628133,41.3377786 80.6526745,41.3059546 80.6396233,41.2972817 C80.626592,41.2886088 80.6569983,41.2972817 80.6396233,41.3218617 L80.5773394,41.3840509 C80.611559,41.381473 80.6459387,41.381473 80.6801783,41.3840509 L80.8670498,41.3840509 L81.2393314,41.3840509 C81.4868452,41.3751581 81.7335784,41.3510078 81.9781097,41.3117399 C82.1012361,41.2929552 82.0693585,41.0977146 81.9491346,41.0977146 L81.9404571,41.1121728 C81.5696267,41.1121728 81.1944326,41.0977046 80.8236022,41.0673294 Z" id="Path-841" fill="#000000" transform="translate(81.323, 41.5615) scale(-1, 1) translate(-81.323, -41.5615)"></path>
                <path d="M83.8066428,43.1221879 C83.844096,43.3479357 83.8685739,43.5736934 83.8844148,43.8008909 C83.9161067,44.2350189 83.9233008,44.6691568 83.9305049,45.1134334 C83.9305049,45.2005509 84.0007842,45.2711608 84.0874817,45.2711608 C84.1741792,45.2711608 84.2444486,45.2005509 84.2444486,45.1134334 C84.2314932,44.6590283 84.2199707,44.2046233 84.1681194,43.751688 C84.1421987,43.534619 84.1105168,43.31755 84.0687452,43.1019208 C84.038118,42.877163 83.9745452,42.6582142 83.8800964,42.4521537 C83.8565837,42.4124993 83.8096478,42.3934621 83.7653389,42.4056103 C83.72103,42.4177586 83.6902038,42.4581128 83.6899948,42.5042562 L83.6899948,42.5042662 C83.7058358,42.7112067 83.7735281,42.9181471 83.8066428,43.1221879 Z" id="Path-842" fill="#000000" transform="translate(83.9655, 43.8358) scale(-1, 1) translate(-83.9655, -43.8358)"></path>
                <path d="M78.3154941,43.8510457 C78.2899638,44.2997996 78.3104463,44.7499452 78.3766097,45.1945534 C78.3998976,45.3539815 78.6764164,45.3177521 78.6589504,45.156872 C78.6095893,44.7239398 78.5935311,44.2878732 78.6109267,43.8524877 C78.6298406,43.417703 78.7084322,42.9829083 78.7491861,42.5481035 C78.76082,42.424915 78.5847228,42.4191171 78.546885,42.5205659 L78.546885,42.5249318 C78.4052068,42.9533579 78.3272486,43.4001389 78.3154941,43.8510457 Z" id="Path-843" fill="#000000" transform="translate(78.5279, 43.8718) scale(-1, 1) translate(-78.5279, -43.8718)"></path>
                <path d="M77.7152089,37.8752832 C78.0420049,37.2272287 78.3745755,36.5574761 78.4251884,35.8342128 C78.4497656,35.4986268 78.4251884,35.1109493 78.6724484,34.8809555 C78.8647695,34.6972462 79.1554091,34.6769973 79.4214716,34.6712005 C81.0250698,34.6364896 82.6228735,35.2975471 84.6718373,34.3457391 C84.9610383,34.2097637 84.7036478,34.6104538 84.7441301,34.9388137 C84.833527,35.5013852 84.9733871,36.0547518 85.1620216,36.592207 C85.3181864,36.9928972 85.584248,37.2142256 85.6131611,37.6554236 C85.9254905,37.3834628 85.9992424,36.9321603 86.046958,36.5213456 C86.1539584,35.7083915 86.2479411,34.8260058 85.8372831,34.1157453 C85.686923,33.877456 85.5098472,33.6571168 85.3095036,33.4590354 C84.7932838,32.9093469 84.2423668,32.3509832 83.5309386,32.1036188 C83.1056343,31.9764186 82.6647542,31.9087657 82.2208772,31.9025591 C81.595459,31.8483288 80.9665241,31.8483089 80.3411059,31.9025591 C79.7123609,31.9560997 79.1083828,32.1724811 78.5885664,32.5303448 C78.0521055,32.923809 77.6819398,33.4951956 77.3233334,34.0535593 C77.1828042,34.2506912 77.0712879,34.4669825 76.9922015,34.695817 C76.9133149,34.9275199 76.9358839,35.1817706 77.0543737,35.3959332 C77.1339097,35.5217941 77.2568153,35.6172618 77.3291081,35.7474604 C77.390491,35.8767994 77.4263276,36.0167826 77.4346699,36.1597142 L77.5792654,37.3719292" id="Path-844" fill="#000000" transform="translate(81.5424, 34.8693) scale(-1, 1) translate(-81.5424, -34.8693)"></path>
                <path d="M78.4084941,36.6297164 C78.4828811,36.4163671 78.5337881,36.1955173 78.5603256,35.971117 C78.568179,35.7437064 78.5899105,35.5170057 78.6254004,35.2922554 C78.7425312,34.8059114 79.2616916,34.8319638 79.6680474,34.8406446 C80.0743933,34.8493254 80.4431507,34.888429 80.8249273,34.9289427 C81.6607794,35.0172407 82.4951827,35.0838367 83.329576,34.9390736 C83.5560242,34.8996 83.7796751,34.8454552 83.9991193,34.776969 C84.1046799,34.7436759 84.2088016,34.7074926 84.3129234,34.6684091 C84.3779883,34.6438069 84.4416243,34.6177444 84.5052505,34.5902419 C84.5688866,34.5627394 84.7120454,34.5308965 84.7380733,34.4903629 L84.6411753,34.3991847 L84.6411753,34.4353681 C84.6300747,34.4667009 84.6227911,34.4992637 84.6194839,34.5323467 C84.5983319,34.6219848 84.5828749,34.7128732 84.5732031,34.8044615 C84.5691265,34.9628358 84.5861422,35.1210301 84.6238203,35.274884 C84.7003954,35.6801806 84.8032979,36.080037 84.931839,36.4719424 C84.995525,36.6654899 85.0793843,36.8517865 85.1820173,37.0277624 C85.3136259,37.2188797 85.4010619,37.4369298 85.4379807,37.6661005 C85.4395993,37.7338966 85.4811435,37.7943117 85.5438404,37.820044 C85.6065273,37.8457764 85.6784965,37.8319453 85.7272053,37.784791 C86.1234397,37.4171277 86.1769449,36.8584272 86.240571,36.3518014 C86.311431,35.7815098 86.3591499,35.1938466 86.2188787,34.6264453 C86.0742712,34.0329816 85.678037,33.6030827 85.2687836,33.1717436 C84.8923524,32.7405846 84.4460007,32.3760317 83.9484921,32.0933861 C83.3787346,31.8038999 82.7467797,31.7590359 82.1177325,31.7213925 C81.4600295,31.6639673 80.7982102,31.6731681 80.1423557,31.748905 C79.5619673,31.8211115 79.0069274,32.0299504 78.5227175,32.35827 C78.0685521,32.7110119 77.6823991,33.1436212 77.3831825,33.6349356 C77.0592569,34.1227297 76.5921625,34.7292145 76.8307704,35.3487306 C76.8889611,35.4787923 76.9691932,35.5977931 77.0679395,35.7004623 C77.1778764,35.8309941 77.2432411,35.9932889 77.2544816,36.1636343 C77.3050987,36.5674808 77.3499307,36.9713274 77.3990991,37.3766041 C77.4265758,37.6067549 77.792446,37.6096552 77.7635105,37.3766041 L77.6507159,36.4487901 C77.6189029,36.1897066 77.6160154,35.8944199 77.4858656,35.6613789 C77.3557158,35.4283278 77.1431359,35.3096471 77.1272293,35.0302818 C77.1113328,34.7509165 77.2559303,34.5019641 77.3976503,34.2747035 C77.6622762,33.816322 77.9754809,33.3878132 78.3318291,32.9966078 C78.7072111,32.6133831 79.1787617,32.3383882 79.6969528,32.2004958 C80.2591966,32.0634434 80.8385959,32.0102786 81.4163666,32.0427215 C82.012162,32.0600831 82.6441167,32.0629834 83.2254443,32.2033961 C83.7393491,32.346379 84.2092114,32.6161234 84.5920172,32.9879171 C84.9810177,33.3425491 85.4220743,33.7449254 85.688159,34.2023368 C85.9875154,34.7205237 85.9932907,35.3414798 85.9441223,35.9204621 C85.9007391,36.4400991 85.8964023,37.1594843 85.4857101,37.5401788 L85.7749348,37.6588697 C85.7344391,37.2072589 85.4437753,36.8974907 85.2933826,36.4864135 C85.1616842,36.1111395 85.0563441,35.7271149 84.9781303,35.3371396 C84.9330485,35.1771351 84.9063706,35.0125101 84.8985872,34.8464451 C84.8985872,34.6857705 84.9810176,34.5265462 84.9665499,34.3673418 C84.9641219,34.3017058 84.9317596,34.2408005 84.8787146,34.202117 C84.8256795,34.1634335 84.7578567,34.1512424 84.6946802,34.169034 C84.5817059,34.2087876 84.4719685,34.2571719 84.3664179,34.313777 C84.2218004,34.3731223 84.0771932,34.425237 83.923913,34.4715512 C83.0070795,34.7610474 82.0671054,34.734985 81.1228051,34.6380062 C80.6889726,34.5945723 80.2551502,34.5395775 79.8213177,34.5207658 C79.4337559,34.5048543 78.9536524,34.4686511 78.6224929,34.7147233 C78.1886604,35.0375026 78.3029036,35.6497878 78.2262585,36.11587 C78.1012544,36.7118839 77.8954487,37.2880062 77.6145566,37.8282151 C77.5581644,37.9469059 77.7287999,38.0525654 77.7938747,37.9324446 L77.7953435,37.9324346 C78.0351104,37.5157669 78.2401967,37.0800671 78.4084941,36.6297164 Z" id="Path-845" fill="#000000" transform="translate(81.5382, 34.8324) scale(-1, 1) translate(-81.5382, -34.8324)"></path>
                <path d="M81.3333275,47.8504989 C81.3964788,47.8862463 81.4756603,47.8755751 81.5271587,47.8244116 C82.5671513,46.9550929 83.5709758,45.961194 84.3332586,44.8339856 C84.4157081,44.7123084 84.2247754,44.5616109 84.1278648,44.6746291 C83.6939308,45.1904083 83.2599965,45.716348 82.7884555,46.2060599 C82.3185635,46.6970832 81.8216582,47.1614386 81.3000679,47.5969439 L81.4953382,47.5723181 C80.3209081,46.7530717 79.2626166,45.7783328 78.3493364,44.6746191 C78.2625396,44.5717415 78.0802913,44.7108369 78.1612916,44.8195005 L78.1612816,44.818059 C79.0439506,45.997602 80.1158438,47.0223332 81.3333275,47.8504989 Z" id="Path-846" fill="#000000" transform="translate(81.246, 46.2541) scale(-1, 1) translate(-81.246, -46.2541)"></path>
                <path d="M65.625422,59.2506235 C65.3566144,59.0914173 65.077407,58.9505515 64.7896878,58.828987 C64.5511007,58.7275547 64.1477045,58.5188938 63.9221247,58.7347927 C63.8806352,58.779302 63.8689865,58.8440436 63.8923637,58.9002558 C63.9157509,58.956498 63.9697981,58.9937693 64.0305688,58.9956113 C64.0912995,58.9956113 64.1505817,58.9825669 64.2113124,58.9883733 C64.2746506,58.9992754 64.3366601,59.0167547 64.3963917,59.040521 C64.5323091,59.0869023 64.6667778,59.13905 64.799808,59.1941009 C65.3127972,59.4072868 65.7982734,59.6816704 66.2457266,60.0113151 C66.4842038,60.175717 66.7073159,60.3614325 66.9122958,60.5662191 C66.9903796,60.6488305 67.1479859,60.5358255 67.0756764,60.4401897 L67.0713408,60.4401997 C66.6954077,59.9446514 66.1575326,59.5708278 65.625422,59.2506235 Z" id="Path-847" fill="#000000" transform="translate(65.4846, 59.6213) scale(-1, 1) translate(-65.4846, -59.6213)"></path>
                <path d="M68.4275568,62.9362013 C68.0966265,62.8872592 67.7657063,62.8742849 67.4391391,62.7922205 C66.8015404,62.6425285 66.2077828,62.3466967 65.7050622,61.9281862 C65.5417787,61.791369 65.3047809,62.0261102 65.4695122,62.1628975 C65.9837846,62.5933675 66.5881054,62.9038353 67.2382644,63.0715659 C67.5628248,63.1511528 67.8943041,63.1993686 68.2281299,63.2155765 C68.6269635,63.2414754 68.9983404,63.3595573 69.3928509,63.420051 C69.5185734,63.4373235 69.5778206,63.257335 69.4477549,63.22278 L69.4390883,63.2242029 C69.0951585,63.1320496 68.7772576,62.9822979 68.4275568,62.9362013 Z" id="Path-848" fill="#000000" transform="translate(67.466, 62.6545) scale(-1, 1) translate(-67.466, -62.6545)"></path>
                <path d="M71.4031737,64.6417987 C71.7758448,64.2976235 72.1441732,63.9495716 72.5081689,63.5976526 C72.6819567,63.4299065 72.8547738,63.2611912 73.0266304,63.0914966 C73.1164261,63.0032771 73.2047613,62.9121998 73.2931061,62.8210826 L73.4379258,62.6764581 C73.4683447,62.6446535 73.5233688,62.5578727 73.5595713,62.5463119 L73.4104185,62.5231704 L73.4335828,62.5390877 L73.3351021,62.3698828 L73.3351021,62.3915655 L73.4799318,62.2050045 L73.5653749,62.2180241 C73.5019655,62.1471606 73.394659,62.1368789 73.318902,62.194363 C73.243145,62.251877 73.224343,62.3578325 73.2757249,62.4378186 C73.335542,62.5454327 73.4569777,62.6034563 73.578403,62.5824431 C73.6447541,62.565027 73.6963458,62.5129486 73.7130961,62.4465016 C73.7379516,62.3491094 73.6970164,62.2468311 73.6117735,62.1933738 C73.5265306,62.1399164 73.4164924,62.1475403 73.3394446,62.2122187 C73.2377616,62.2968711 73.1441935,62.3908161 73.0599313,62.4927847 C72.9556666,62.5997892 72.8514018,62.7068138 72.7485681,62.8152772 C72.3459584,63.241417 71.9380554,63.6632001 71.5248191,64.0806868 C70.6983666,64.9146509 69.8502007,65.7254634 68.9802912,66.5131345 C68.8731247,66.6100371 69.0295317,66.7647637 69.1381491,66.6707888 L69.1337964,66.6664624 C69.9028133,66.0069889 70.6587921,65.3301891 71.4031737,64.6417987 Z" id="Path-852" fill="#000000" transform="translate(71.331, 64.4268) scale(-1, 1) translate(-71.331, -64.4268)"></path>
                <path d="M77.3615022,44.5051673 C77.1051843,44.6644563 76.9010045,44.8556111 76.8561103,45.1654847 C76.7648813,45.8026305 76.9531325,46.50782 77.1761325,47.0986328 C77.4298289,47.7293054 77.7339425,48.3384873 78.0855516,48.9202757 C78.2303595,49.1707799 78.3751774,49.4473568 78.6126552,49.6167707 C78.8549555,49.7713474 79.1487135,49.8234335 79.4293845,49.7615728 C79.7329277,49.6870859 80.0146893,49.5422441 80.2519069,49.3387432 C80.5415327,49.1157427 80.813779,48.8753834 81.0932593,48.6407971 C81.1758037,48.5727434 81.1873902,48.5162657 81.2786193,48.5857601 L81.4697819,48.7305717 L81.9331713,49.0925713 C82.1938315,49.2967625 82.4559324,49.5559508 82.7658291,49.6833839 C83.0339033,49.7993214 83.3462412,49.7271057 83.5362234,49.5052757 C83.7704094,49.261715 83.9899478,49.0044774 84.1936674,48.7349238 C84.605659,48.2031702 84.9677637,47.6345685 85.2753992,47.0363619 C85.4390372,46.7192447 85.6519119,46.3673604 85.605567,45.9966667 C85.5371802,45.6489343 85.4045884,45.3169797 85.2145662,45.0177914 C85.0472062,44.7189633 84.8497201,44.438034 84.6251893,44.1793758 C84.4224502,43.9462403 84.1690339,43.6073923 83.8214869,43.6812489 C83.650615,43.7174469 83.6853638,44.0099518 83.8634796,43.9911225 C83.9981621,43.9766453 84.1009776,44.1084107 84.1878543,44.1967444 C84.274741,44.2850782 84.3920342,44.4125014 84.4876156,44.5283488 C84.6601584,44.7414244 84.8137505,44.9691472 84.9466619,45.2089361 C85.1031861,45.4580396 85.2167579,45.7316752 85.2826233,46.0183873 C85.3289682,46.3152445 85.1291204,46.620786 84.9929972,46.8756423 C84.7185195,47.4028836 84.4002684,47.906153 84.0415854,48.3801579 C83.8649204,48.6161949 83.6781099,48.8420871 83.4840655,49.0621862 C83.3986196,49.1692193 83.3014675,49.2663571 83.1944399,49.3517995 C83.0409373,49.4575019 82.8787599,49.3822149 82.7368336,49.2924304 C82.4776341,49.1273586 82.2401366,48.9144927 81.9968557,48.7247987 L81.6160007,48.4250402 C81.523701,48.3336449 81.4164433,48.2587176 81.2988701,48.2034903 C81.0454538,48.1224001 80.7992713,48.4337246 80.6283994,48.575635 C80.3923524,48.7711218 80.1621087,48.9796451 79.90435,49.1548519 C79.68127,49.33267 79.4047612,49.4301183 79.1194777,49.4314289 C78.829852,49.4140603 78.6633225,49.2315898 78.522857,48.9970136 C78.2209345,48.5022283 77.9472873,47.990735 77.703226,47.4649844 C77.4071668,46.8660375 77.2324628,46.2144745 77.1891595,45.547754 C77.1673878,45.382202 77.1857677,45.2138486 77.2427383,45.0568808 C77.3236518,44.9292576 77.4364525,44.8249358 77.5700144,44.7542408 C77.8741179,44.5515003 78.1782115,44.3458784 78.4663866,44.1214371 C78.5677611,44.0417877 78.4388718,43.901338 78.3375072,43.9520231 L78.338968,43.9520231 C78.0044581,44.1199864 77.6786328,44.3082497 77.3615022,44.5051673 Z" id="Path-853" fill="#000000" transform="translate(81.2234, 46.732) scale(-1, 1) translate(-81.2234, -46.732)"></path>
                <path d="M64.9546601,60.9843453 C65.1104093,61.094897 65.2588477,61.2153024 65.3990351,61.3448639 C65.543793,61.477524 65.665378,61.6448161 65.8217074,61.7630296 C65.9375017,61.84956 66.0750187,61.685197 66.0113409,61.5741471 C65.891346,61.4072236 65.7446479,61.2610933 65.5770872,61.1415448 C65.4183575,61.006912 65.2510767,60.8826409 65.0762451,60.7695087 C64.7323625,60.5478274 64.3611265,60.3714089 63.9717983,60.2446271 C63.8444125,60.2028215 63.7952064,60.3960479 63.9168015,60.4407429 L63.9225822,60.4392982 C64.2884275,60.5766111 64.6352405,60.7597747 64.9546601,60.9843453 Z" id="Path-854" fill="#000000" transform="translate(64.9353, 61.0115) scale(-1, 1) translate(-64.9353, -61.0115)"></path>
                <path d="M64.8611972,61.5319797 C65.1947583,61.683424 65.5011793,61.8886929 65.7682464,62.1395704 C65.8348906,62.2033844 65.900093,62.270074 65.9624023,62.3396993 C66.0247017,62.4092945 66.0812146,62.4963136 66.1507519,62.5615704 C66.1951413,62.6001554 66.2602638,62.6029108 66.3077567,62.5682334 C66.3552295,62.5335259 66.3724485,62.4706037 66.3492627,62.4165386 C66.2453871,62.2523095 66.1162935,62.1055142 65.9667372,61.9815233 C65.8259906,61.8519715 65.6753229,61.7336616 65.5161158,61.6276857 C65.3620143,61.5245452 65.1996637,61.43435 65.0307258,61.3579315 C64.8411949,61.2906607 64.6598932,61.2021087 64.4902644,61.0940186 C64.3989729,61.0243933 64.2772775,61.1810077 64.3656558,61.2564142 L64.3656658,61.2564242 C64.5179853,61.3697444 64.6846107,61.4623945 64.8611972,61.5319797 Z" id="Path-855" fill="#000000" transform="translate(65.35, 61.8348) scale(-1, 1) translate(-65.35, -61.8348)"></path>
                <path d="M65.949005,62.5083853 C66.0968112,62.6130773 66.2373805,62.7276552 66.3696973,62.8513323 C66.4989282,62.9947313 66.6360133,63.1308726 66.7803155,63.2590895 C66.8970136,63.345553 67.0367765,63.1812774 66.9705086,63.0688998 C66.85613,62.90554 66.7148539,62.7627682 66.5526931,62.6467468 C66.4012734,62.518749 66.2419894,62.4003483 66.075807,62.2922515 C65.7451443,62.0782083 65.386957,61.9100201 65.0110804,61.7922566 C64.8842884,61.7519368 64.8353117,61.9435602 64.9563201,61.9882504 L64.9563101,61.9882504 C65.3081264,62.1183787 65.6417556,62.2931873 65.949005,62.5083853 Z" id="Path-856" fill="#000000" transform="translate(65.937, 62.535) scale(-1, 1) translate(-65.937, -62.535)"></path>
                <path d="M79.9237213,45.754323 C78.001276,45.6023573 76.4233615,45.851264 74.5834332,46.4359293 C73.7148545,46.7137933 72.8462761,47.0813789 72.1441817,47.668934 C70.5792999,48.9714222 70.0523615,51.1422093 69.7859967,53.1581407 C69.3030174,56.8328171 69.3772026,60.559268 70.0060419,64.2118263 C70.1508017,65.0714259 70.3346495,65.9339559 70.6965539,66.7270317 C71.8807075,69.3319781 74.865711,70.7632439 77.7262192,70.8327274 C80.5867274,70.9021809 83.3531475,69.84429 85.9414997,68.6228542 C89.4418595,66.9701488 92.7931087,64.9846146 95.828783,62.5822792 C95.9429965,61.6268985 95.8752118,60.6585689 95.6290112,59.7283859 C95.5800411,59.4654705 95.4587255,59.221414 95.2786884,59.0236225 C94.8849375,58.6531472 94.2566692,58.7732458 93.7340717,58.9121828 C88.6374936,60.2815348 83.4459352,61.2693217 78.202507,61.8673458 C77.6726581,61.9281301 76.9560812,62.2769181 77.1761265,62.7631626 C77.0217147,60.2459979 76.8673028,57.7283831 76.7128811,55.2102785" id="Path-857" fill="#0C3970" transform="translate(82.6765, 58.2742) scale(-1, 1) translate(-82.6765, -58.2742)"></path>
                <path d="M77.8979111,45.5934829 C77.2467526,45.6420299 76.6000834,45.7387639 75.963222,45.8829249 C74.6985075,46.1636975 73.3585583,46.5587829 72.2949831,47.3373946 C70.3414879,48.7773952 69.8350202,51.3158474 69.5658746,53.5822468 C69.2149655,56.5033655 69.2149655,59.4559627 69.5658746,62.3771114 C69.6526971,63.1007265 69.7583357,63.824351 69.8885694,64.5349369 C70.0002568,65.2194644 70.1806005,65.8909941 70.4268707,66.5393639 C70.8437864,67.5593805 71.5141909,68.4560547 72.374577,69.144392 C74.1385106,70.5525646 76.4392955,71.1415774 78.6778631,71.0127754 C81.4720886,70.8521454 84.1028082,69.7334038 86.5873661,68.522089 C89.0642955,67.3283731 91.4450445,65.9445196 93.7082272,64.3829765 C94.2774022,63.9874011 94.8364383,63.5792866 95.3853474,63.1586227 C95.5112419,63.0631087 95.635687,62.9661347 95.7601318,62.8691807 C95.8845767,62.7722067 96.0046827,62.7041806 96.0249386,62.5160522 C96.0663802,62.1529148 96.0804075,61.7871881 96.0669003,61.4219408 C96.0618613,60.7372633 95.9480541,60.0577656 95.7297382,59.4088259 C95.5523341,58.875529 95.0244699,58.5405298 94.4664726,58.6070557 C94.1854994,58.6308542 93.9076768,58.6832202 93.6373215,58.7633553 C93.2741148,58.8602992 92.9138068,58.9543834 92.5491505,59.0527973 C91.843963,59.2341861 91.1382958,59.4073555 90.4321384,59.5723553 C88.9957187,59.9081144 87.5515714,60.2149251 86.0997047,60.4927979 C84.6478481,60.7706706 83.2041892,61.0162058 81.7687292,61.2294426 C81.0307384,61.3394258 80.2922668,61.4412192 79.5533161,61.5347834 C79.1814313,61.5825704 78.8080969,61.6274273 78.436202,61.6708546 C78.1680462,61.6905933 77.9040098,61.748091 77.6519108,61.8416252 C77.2669986,62.0022552 76.8430143,62.3495932 77.0282369,62.8156242 C77.0976928,62.9849537 77.3914434,62.9849527 77.3784161,62.7678661 C77.2235774,60.2525523 77.0557314,57.7372696 76.9008927,55.2219458 C76.8878654,55.0120888 76.5608414,55.0106589 76.5738587,55.2219458 C76.7272477,57.7372596 76.8632702,60.2525423 77.022438,62.7678661 L77.3711672,62.7201099 C77.1584602,62.187523 78.191642,62.0543805 78.5056486,62.0181828 C79.2552072,61.9313381 80.0033256,61.8348741 80.7500048,61.7287407 C82.2713174,61.5193737 83.786851,61.2781491 85.296586,61.005126 C86.806321,60.7320729 88.2987102,60.4262125 89.7737122,60.0875835 C90.5280997,59.9167841 91.2800774,59.7368654 92.0296459,59.5477571 C92.7314541,59.372628 93.4289228,59.1497418 94.1379795,59.0064707 C94.437519,58.9471444 94.7920379,58.9080565 95.0655327,59.0730562 C95.395456,59.2640844 95.4663603,59.6982574 95.5401554,60.042696 C95.725318,60.8765942 95.7688494,61.735711 95.6689396,62.5840683 L95.7195892,62.4624958 C92.7126467,64.8432081 89.3916981,66.8042059 85.9260483,68.4410343 C82.6890323,69.9649898 78.9542277,71.3355061 75.3626833,70.2601929 C73.9272233,69.8260498 72.5771362,69.0329381 71.6307774,67.8548813 C70.4659127,66.4076411 70.2184728,64.4741417 69.9869395,62.6853428 C69.7265822,60.6640782 69.6336609,58.6247442 69.7091057,56.5881605 C69.7467281,55.5827929 69.8258321,54.5793749 69.9464177,53.577877 C70.0367095,52.7327795 70.1890587,51.8954518 70.4022356,51.0727229 C70.5976761,50.3053705 70.9110729,49.572996 71.331228,48.9018676 C71.7961141,48.1887819 72.4350849,47.606018 73.1877828,47.2085826 C74.0039079,46.7744096 74.9068556,46.509586 75.7924466,46.2765705 C76.6925547,46.0447749 77.6136085,45.9036736 78.541811,45.8554266 C79.0035677,45.8307981 79.4663143,45.8307981 79.928071,45.8554266 C80.0640935,45.8626562 80.0597544,45.6614987 79.928071,45.6469996 L79.9469166,45.6513693 C79.266884,45.5727642 78.581303,45.5533854 77.8979111,45.5934829 Z" id="Path-858" fill="#000000" transform="translate(82.6886, 58.3008) scale(-1, 1) translate(-82.6886, -58.3008)"></path>
                <path d="M85.8274703,69.8277174 C84.3920035,76.2925931 83.2391912,82.81003 82.3690429,89.3800678 C81.5008142,95.9317656 80.9171793,102.512924 80.6181183,109.123463 C80.3653682,114.739202 80.3195472,120.35976 80.4806454,125.98518 C80.5660186,128.968178 80.6108797,132.259476 78.6906586,134.544861 C78.5254812,134.709144 78.3967866,134.906403 78.3129832,135.123787 C77.6806279,137.309289 84.3905636,136.510353 85.4411163,136.262848 C86.005465,136.128265 86.1646438,135.750513 86.2630343,135.180252 C88.0197477,124.325061 91.559209,113.565417 91.7386436,102.497482 C91.8109994,98.0309353 91.2148172,93.7684627 92.6806679,89.4394283 C93.9830109,85.5909035 95.6630203,81.8219714 96.7497559,77.9068851 C97.4581361,75.3467152 97.6490078,72.6709729 97.3112144,70.0361615" id="Path-864" fill="#000000" transform="translate(87.8739, 103.2195) scale(-1, 1) translate(-87.8739, -103.2195)"></path>
                <path d="M82.7562809,85.4608622 C81.9661422,90.6854916 81.3593101,95.9328003 80.9357743,101.202778 C80.5112787,106.509434 80.2700896,111.830081 80.2121971,117.164696 C80.1851805,119.843113 80.2054479,122.522007 80.2729793,125.201374 C80.3279722,127.372272 80.4741334,129.612659 79.9025067,131.734329 C79.6286518,132.760776 79.1348551,133.715358 78.4553622,134.531914 C78.1326435,134.924137 77.9242602,135.443671 78.2267115,135.909691 C78.4611514,136.259956 78.8895065,136.435063 79.2831261,136.549408 C79.8633318,136.699702 80.4594753,136.779901 81.0587685,136.7882 C82.2791722,136.824269 83.5003856,136.753527 84.7084708,136.576904 C85.120908,136.519017 85.6274031,136.488622 85.9660397,136.225243 C86.2554626,136.003782 86.3654489,135.660782 86.4305706,135.319237 C86.5477856,134.692553 86.6389634,134.061574 86.7503891,133.43779 C87.6476141,128.398393 88.858879,123.422679 89.8834476,118.410801 C90.9080263,113.398932 91.73869,108.359527 91.8920803,103.262272 C91.9673307,100.755608 91.8023519,98.2503631 91.864584,95.7364693 C91.8838815,94.4942117 91.9970768,93.2551938 92.2032204,92.0300255 C92.4449194,90.7780983 92.7920246,89.5488393 93.2408171,88.3554096 C94.1090958,85.9370217 95.0757918,83.5591626 95.9223633,81.134985 C96.7530268,78.7513556 97.4664665,76.3416374 97.6256561,73.8103743 C97.704396,72.5512373 97.6641805,71.2875005 97.5055408,70.0359033 C97.4751547,69.7913136 97.087314,69.7884137 97.1177101,70.0359033 C97.4395089,72.5496472 97.280389,75.1016393 96.64884,77.5559058 C96.0222303,79.9757237 95.1235563,82.3231952 94.2407894,84.6590967 C93.3580325,86.9949982 92.3377936,89.3496993 91.8862915,91.8187351 C91.4521471,94.1777656 91.4810934,96.5816834 91.5317469,98.9696827 C91.6051075,101.447578 91.5510038,103.927605 91.3696671,106.399971 C91.1627236,108.916775 90.8110689,111.420509 90.3769245,113.906914 C89.5086358,118.869595 88.3263274,123.768618 87.2959595,128.698009 C87.0431919,129.912738 86.8020025,131.128446 86.572382,132.345104 C86.4566168,132.962628 86.3456608,133.581564 86.2395344,134.201958 C86.1570449,134.679568 86.1584952,135.304781 85.9052477,135.731743 C85.6708077,136.129736 85.0876123,136.149995 84.6722856,136.207863 C84.1194764,136.28605 83.5637773,136.339564 83.0080686,136.375763 C81.8156214,136.45535 80.5117487,136.520468 79.3525872,136.178932 C79.0226395,136.080516 78.5653381,135.911181 78.47273,135.533447 C78.4003692,135.23677 78.5769266,134.974822 78.7621529,134.754822 C79.0768825,134.382248 79.354597,133.979957 79.5913666,133.553585 C80.556603,131.760421 80.7056639,129.653207 80.7027743,127.655972 C80.7027743,125.195625 80.5869989,122.723679 80.5768702,120.256073 C80.5585426,115.036293 80.7186921,109.818895 81.0573187,104.603905 C81.3959453,99.3889146 81.9091998,94.1859741 82.5970817,88.9951229 C83.2859234,83.828351 84.1614411,78.690568 85.1715517,73.5759139 C85.4156304,72.3331963 85.6717772,71.0953086 85.9399829,69.8622306 C85.9689292,69.7174968 85.759086,69.665399 85.7272501,69.8043431 L85.7214708,69.8043231 C84.5251641,74.9797648 83.5367709,80.1985941 82.7562809,85.4608622 Z" id="Path-865" fill="#000000" transform="translate(87.8737, 103.2601) scale(-1, 1) translate(-87.8737, -103.2601)"></path>
                <path d="M45.6237166,54.3433769 C45.8132226,54.0913096 46.0157115,53.8479104 46.2196696,53.6045213 C46.4028891,53.3559373 46.6167318,53.131546 46.8561604,52.9366826 C47.1151083,52.7733488 47.4112757,52.6786296 47.7168381,52.6614335 C47.95044,52.6144793 48.1915278,52.6199244 48.4227509,52.6773784 C48.7337703,52.7889034 48.6151454,53.1119876 48.3866107,53.256844 C48.1580661,53.4017204 47.8253386,53.3944835 47.6633475,53.6030899 C47.5906374,53.7321514 47.5527482,53.8779487 47.5533879,54.0260981 C47.472892,54.5278505 47.2646662,55.0003754 46.9487395,55.3980298 C46.8344522,55.5530557 47.0934003,55.7544152 47.217792,55.606626 C47.4295259,55.3521765 47.5976836,55.0643355 47.715409,54.7548141 C47.7782146,54.5962749 47.8266181,54.4324006 47.8600698,54.2651532 C47.8889839,54.1202768 47.8672958,53.8406836 48.0047004,53.7653527 C48.142135,53.6900218 48.3070245,53.6596032 48.4487967,53.5900477 C48.5840725,53.5275189 48.7025675,53.4336805 48.7945271,53.3162599 C48.9742685,53.1042403 48.9820742,52.7953795 48.8133168,52.5745016 C48.6381529,52.4037208 48.3992039,52.3148271 48.1551678,52.3296711 C47.8433589,52.3251769 47.5323995,52.3631827 47.230835,52.4426975 C46.5364859,52.6281121 46.1126484,53.2597467 45.6945977,53.7986541 C45.1907541,54.411531 44.7860961,55.0998391 44.4954256,55.8384144 C44.4549178,55.9514408 44.6400562,56.0339985 44.6906884,55.9210122 L44.6892592,55.9166379 C44.9362837,55.3564205 45.2500516,54.8281833 45.6237166,54.3433769 Z" id="Path-866" fill="#000000" transform="translate(46.7141, 54.1508) scale(-1, 1) translate(-46.7141, -54.1508)"></path>
                <path d="M42.8582624,52.9213824 C42.9405499,52.8882791 43.0199744,52.8522496 43.1022618,52.8220028 C43.256153,52.7633205 43.4139048,52.7151784 43.5743698,52.6779446 C43.7332786,52.6410392 43.8943223,52.6140968 44.0566128,52.5972764 C44.2327493,52.5785649 44.4074293,52.5857609 44.5835757,52.5785649 C44.6619628,52.570941 44.7217557,52.5051822 44.7217557,52.4266041 C44.7217557,52.3479962 44.6619628,52.2822672 44.5835757,52.2746135 C44.2169282,52.2480392 43.8484751,52.2885575 43.4964117,52.3941676 C43.3264201,52.4420709 43.1599898,52.5017485 42.9983078,52.5727922 C42.8222012,52.6324499 42.6597511,52.7264848 42.520424,52.8493732 C42.4895201,52.881969 42.483864,52.930987 42.5066379,52.9697137 C42.529352,53.0084105 42.5750096,53.0274803 42.6186024,53.0164624 L42.6185924,53.0193388 C42.7011791,52.9936703 42.7813717,52.9608954 42.8582624,52.9213824 Z" id="Path-867" fill="#000000" transform="translate(43.6078, 52.6416) scale(-1, 1) translate(-43.6078, -52.6416)"></path>
                <path d="M42.8704469,53.2580439 C42.6460497,53.3052781 42.4355828,53.4034324 42.2555138,53.5448872 C42.1403103,53.6352137 42.2900709,53.8317007 42.4124784,53.7485182 C42.5715326,53.6365415 42.7481986,53.5517241 42.9352527,53.4975638 C43.1240381,53.4546597 43.318495,53.4420758 43.5112903,53.4602779 C43.6264939,53.4688686 43.6481158,53.2896127 43.5386535,53.2609174 L43.5415291,53.2580439 C43.3209229,53.205697 43.0910531,53.205697 42.8704469,53.2580439 Z" id="Path-868" fill="#000000" transform="translate(42.9112, 53.4919) scale(-1, 1) translate(-42.9112, -53.4919)"></path>
                <path d="M42.6770167,54.3931398 C42.5723171,54.4236864 42.4697001,54.4608029 42.3697495,54.5042201 C42.264094,54.5412768 42.1655922,54.5959196 42.0785102,54.6658358 C42.0349742,54.7093427 42.0262811,54.7763378 42.0572905,54.8293357 C42.0882698,54.8823337 42.1512747,54.9081646 42.2109996,54.8923729 C42.3078111,54.849504 42.4021072,54.8013114 42.4935156,54.7480743 C42.57934,54.7049661 42.6678608,54.6673611 42.7585649,54.6355385 C42.9477709,54.56964 43.1427823,54.5213278 43.3410436,54.4912697 C43.4590143,54.4739228 43.4269585,54.2906832 43.3148535,54.2906832 L43.3148234,54.2978812 C43.0987533,54.2998252 42.8840617,54.3318672 42.6770167,54.3931398 Z" id="Path-869" fill="#000000" transform="translate(42.7268, 54.5944) scale(-1, 1) translate(-42.7268, -54.5944)"></path>
                <path d="M42.1422905,57.7845228 C41.897892,57.8395704 41.9976997,58.2189406 42.2464246,58.1624622 C44.1075896,57.7048928 45.9398487,56.8664622 47.362875,55.555995 C47.4481946,55.4777657 47.3339387,55.3242788 47.2370586,55.3923429 L47.2428236,55.3981358 C45.6882257,56.4943255 44.02227,57.3718458 42.1422905,57.7845228 Z" id="Path-870" fill="#000000" transform="translate(44.6977, 56.7734) scale(-1, 1) translate(-44.6977, -56.7734)"></path>
                <path d="M74.8262882,69.8277174 C76.2644579,76.2925931 77.4183707,82.81003 78.2880268,89.3800678 C79.1567326,95.9317656 79.7402025,102.512924 80.0384541,109.123463 C80.2923105,114.739202 80.3405568,120.35976 80.1832333,125.98518 C80.0963637,128.968178 80.0514774,132.259476 81.9741821,134.544861 C82.1389882,134.709504 82.2676816,134.906683 82.3520603,135.123787 C82.9833153,137.309289 76.2712102,136.510353 75.2201023,136.262848 C74.6540095,136.128265 74.4961958,135.750513 74.3977423,135.180252 C72.6400838,124.325061 69.0972577,113.565417 68.9177465,102.497482 C68.8453519,98.0309353 69.4418548,93.7684627 67.976656,89.4394283 C66.6736122,85.5909035 64.9912496,81.8219714 63.9053798,77.9068851 C63.1968585,75.3466854 63.0054033,72.6710928 63.342168,70.0361615" id="Path-874" fill="#000000" transform="translate(72.789, 103.2195) scale(-1, 1) translate(-72.789, -103.2195)"></path>
                <path d="M77.5325785,85.1618586 C78.3142586,90.3530593 78.9183617,95.5683999 79.3449173,100.807852 C79.7685624,106.008723 80.0151207,111.219246 80.0846214,116.439407 C80.1183966,119.053333 80.1072954,121.666317 80.0513268,124.278313 C80.0049896,126.459488 79.8341936,128.675395 80.1960793,130.83778 C80.3479426,131.803774 80.6600787,132.737637 81.1196194,133.600819 C81.3622367,134.024289 81.64276,134.424936 81.9577484,134.797775 C82.1329053,135.013451 82.2906911,135.284094 82.2009373,135.569221 C82.0865897,135.933951 81.6349493,136.094625 81.3063488,136.190147 C80.7388015,136.336761 80.1554722,136.413565 79.5692921,136.418816 C78.3731582,136.453916 77.176224,136.383691 75.9924021,136.208977 C75.5436531,136.145255 74.9617435,136.12212 74.7417097,135.660408 C74.5216859,135.198696 74.518786,134.628435 74.4348431,134.143593 C74.3286867,133.524097 74.2172194,132.905129 74.1004515,132.286613 C73.1725789,127.338059 71.9754448,122.444536 70.9838724,117.509022 C69.99231,112.573507 69.1903569,107.596022 69.1049538,102.563545 C69.0644175,100.127604 69.2308927,97.6902544 69.1382484,95.254343 C69.1015928,94.061133 68.9752938,92.8724116 68.7604408,91.6981621 C68.5041714,90.4693711 68.1508169,89.2628009 67.7037182,88.0898914 C66.8583583,85.732132 65.920344,83.4091141 65.0981376,81.0426846 C64.2686802,78.6501644 63.5535903,76.2301834 63.4146189,73.6886194 C63.350109,72.4707587 63.3951659,71.2495978 63.5492496,70.0398174 C63.5796543,69.7923111 63.1916947,69.7937512 63.1613,70.0397874 C62.8449114,72.565971 63.0074863,75.1290853 63.6404336,77.5950575 C64.2817022,80.07583 65.2153858,82.4799209 66.1258757,84.8724012 C67.0219134,87.2272606 68.0438904,89.5980403 68.476697,92.0933132 C68.9109637,94.5653956 68.828451,97.0867288 68.7792335,99.5848618 C68.7164338,102.131436 68.7985966,104.679529 69.0253215,107.216793 C69.2598275,109.720766 69.6303941,112.211671 70.0748024,114.686653 C70.9824119,119.752451 72.1998094,124.748737 73.2261171,129.787014 C73.4808863,131.041406 73.7221532,132.299157 73.9498882,133.560299 C74.0555545,134.159494 74.1366274,134.765959 74.2567759,135.363724 C74.3262565,135.715453 74.4608772,136.062808 74.7691946,136.269783 C75.1093769,136.499889 75.5957516,136.527421 75.9923725,136.582413 C76.5713915,136.660545 77.1504198,136.718465 77.7294388,136.756096 C78.9352541,136.834258 80.2496163,136.89215 81.4206963,136.544762 C81.8100861,136.428979 82.2429039,136.243721 82.4600372,135.880432 C82.7625737,135.375289 82.4875401,134.858587 82.148798,134.456207 C80.7591544,132.794665 80.4117419,130.601894 80.3596439,128.501781 C80.2930437,126.04127 80.450828,123.580724 80.4682007,121.120213 C80.5077768,115.765918 80.3586741,110.415504 80.0209122,105.068939 C79.6918316,99.7715659 79.1731212,94.4925632 78.4647923,89.2318707 C77.7627344,84.0039887 76.8970915,78.7891378 75.7998428,73.6292777 C75.527711,72.3507755 75.2454374,71.0756534 74.9530325,69.8038914 C74.9211776,69.6591478 74.7112852,69.7242994 74.7402296,69.8617829 L74.7402496,69.8617629 C75.8186754,74.9275306 76.7668208,80.0338292 77.5325785,85.1618586 Z" id="Path-875" fill="#000000" transform="translate(72.799, 103.2669) scale(-1, 1) translate(-72.799, -103.2669)"></path>
                <path d="M75.8287099,33.3530688 C78.6659113,33.2703129 80.7880764,33.2703129 82.1952051,33.3530688 C83.6023338,33.4358248 85.1468355,33.6514685 86.8287099,34 C86.3022573,29.3333333 84.5164985,27 81.4714336,27 C78.4263686,27 76.5454607,29.1176896 75.8287099,33.3530688 Z" id="Path-4" fill="#65D5C9"></path>
            </g>
        </g>
    </g>
</svg>