<?xml version="1.0" encoding="UTF-8"?>
<svg width="139px" height="137px" viewBox="0 0 139 137" version="1.1" xmlns="http://www.w3.org/2000/svg" xmlns:xlink="http://www.w3.org/1999/xlink">
    <title>8219614_culture_marketing_protest_megaphone_announcement_icon</title>
    <g id="Sitio-web-/-dashboard" stroke="none" stroke-width="1" fill="none" fill-rule="evenodd">
        <g id="Home---2024" transform="translate(-850, -1471)">
            <g id="Card-1" transform="translate(782, 1430)">
                <g id="Group-392" transform="translate(11, 41.9288)">
                    <g id="8219614_culture_marketing_protest_megaphone_announcement_icon" transform="translate(57.0001, 0)">
                        <path d="M57.331625,45.2301677 C57.692206,45.6664937 58.3944854,45.8454041 58.8626617,45.4745076 C59.1011255,45.2854227 59.2610683,44.9989239 59.6056271,45.1080129 C59.8848066,45.1967027 60.1189096,45.4105187 60.3660846,45.5617666 C60.6260114,45.7410471 60.9376356,45.8299871 61.2530203,45.8148403 C61.6048801,45.7843066 61.9218451,45.6301273 62.2548122,45.5239697 C62.6137531,45.4019949 63.0085188,45.4484958 63.3293042,45.6504865 C63.6942559,45.8584698 64.0373843,46.1086421 64.3892641,46.3369846 C65.116267,46.8067656 65.8534312,47.2648914 66.5920258,47.7187052 C68.0619938,48.62045 69.5334525,49.5134609 71.0354052,50.359941 C72.729275,51.3140394 74.443538,52.2797828 76.2174091,53.0797319 C76.4602135,53.1902516 76.6753945,52.8426257 76.4311199,52.7146683 C74.9335278,51.9321769 73.4083216,51.2078618 71.9238014,50.4021101 C70.4392812,49.5963584 69.0157998,48.7760698 67.5909081,47.9106612 C66.8639351,47.4743353 66.1601951,47.0118476 65.4550152,46.5464287 C65.1118866,46.3214777 64.7701984,46.0931053 64.4299703,45.8614013 C64.0984733,45.6111089 63.7474133,45.3878886 63.3801713,45.1938014 C63.0647566,45.0385517 62.7062459,44.9939718 62.3623872,45.0672847 C62.0279898,45.1399773 61.7211865,45.3072625 61.3882494,45.3887191 C60.7513793,45.5457996 60.3326499,44.998924 59.7888429,44.7923813 C59.5013222,44.6741382 59.1715355,44.7306135 58.9397227,44.9378365 C58.8276468,45.0685152 58.7002188,45.1852276 58.560239,45.2854326 C58.4220994,45.3523526 58.2660073,45.3727517 58.1153259,45.3435986 C57.7573653,45.28 57.4678043,45.0163618 57.3708705,44.6658344 C57.2748769,44.2457558 57.3496876,43.8046978 57.57879,43.4397639 C57.613735,43.3807474 57.5942022,43.3045432 57.5351738,43.2696175 C57.4761754,43.2346618 57.4000247,43.2542006 57.3650497,43.3132471 L57.3549083,43.3205004 C57.0146501,43.8848137 56.879441,44.6832922 57.331625,45.2301677 Z" id="Path-682" fill="#000000"></path>
                        <path d="M75.7951851,43.2286174 C73.7787094,42.4349738 71.7491426,41.7082104 69.593111,41.4102241 C68.4503925,41.2517673 67.3018444,41.1529418 66.1591558,40.9945151 C65.0164373,40.8360583 63.8926094,40.6151107 62.754261,40.4537643 C60.6752527,40.163067 58.50033,40.0511434 56.4794841,40.7285041 C55.9497716,40.8884206 55.4440701,41.1191968 54.9762203,41.4145935 C54.7726916,41.5526932 54.5923839,41.7605527 54.640356,42.0236341 C54.6945583,42.2380826 54.8620454,42.4055381 55.0765345,42.4597001 C55.322245,42.5336293 55.5761858,42.5765931 55.8325167,42.5876114 C56.1518402,42.6190968 56.4726537,42.6331646 56.7935274,42.6297851 C57.4300644,42.6260656 58.0641516,42.5499969 58.6834979,42.4030385 C58.9495592,42.3376181 58.8288939,41.942226 58.571553,41.9945583 C57.5306188,42.2024179 56.4155214,42.2954742 55.3643867,42.0963234 C55.2611724,42.0774361 54.9980412,42.0323727 55.0736344,41.8811749 C55.1268866,41.8091955 55.1973597,41.751704 55.2786331,41.7140595 C55.4022084,41.6370108 55.5330738,41.5686608 55.6624393,41.5032704 C56.0920276,41.2868421 56.5413867,41.1120878 57.0043263,40.981437 C58.9582994,40.4232588 61.0198172,40.5642581 63.0057716,40.8564553 C64.072897,41.0134122 65.1342216,41.2067439 66.204237,41.3709998 C67.2960534,41.5396151 68.3951603,41.6486391 69.4869967,41.8157846 C70.50682,41.9666424 71.5151625,42.1866401 72.5051346,42.4742579 C73.4632453,42.7562566 74.4038658,43.0905575 75.3386955,43.4364867 C77.4511254,44.218512 79.5548136,45.0673778 81.7791882,45.4714985 C81.9347448,45.5005442 82.0031084,45.263639 81.8446217,45.2316337 L81.8388119,45.2359829 C79.7496431,44.8173743 77.7680489,44.0062733 75.7951851,43.2286174 Z" id="Path-683" fill="#000000"></path>
                        <path d="M63.8432541,39.2832947 C64.4973447,36.3352606 65.2856792,33.4206641 66.2082672,30.539505 C66.3797864,30.0074558 66.6443457,29.3925628 67.193779,29.2835312 C67.4845137,29.2268455 67.7752478,29.3329571 68.0528641,29.4288998 C69.5297948,29.9540195 71.0568604,30.3257012 72.6099319,30.538065 C72.9006366,30.5787618 73.2276856,30.6078298 73.4820747,30.4581013 C73.7887675,30.2822148 73.9181517,29.9115228 74.01408,29.5728188 C74.3295017,28.5159998 74.633294,27.324002 74.105648,26.3544064 C73.7509511,25.7017064 73.1680812,25.0606456 72.4383698,24.9167366 C59.7586088,22.4135187 51.5937605,16.747133 42.4229841,10.4513156 C41.2281191,9.63143849 40.044883,8.73744698 38.6596012,8.31296952 C37.2743294,7.88850208 35.6070417,8.03533077 34.6069732,9.08487034 C34.1839745,9.53113613 33.9150571,10.1024422 33.6781158,10.6693587 C31.3741655,16.2078242 30.2461725,21.9992309 31.5064395,27.8647709 C31.8422188,29.4318208 32.3320793,31.1078919 33.6170533,32.0658684 C35.3948075,33.3901469 37.8906441,32.8145014 40.0128965,32.1821499 C45.7139244,30.4886297 52.729023,29.3009804 58.4183922,27.6176395 C59.3036347,27.3545197 60.3967319,27.1422849 61.0348644,27.8066139 C61.2514481,28.0333865 61.3837334,28.340104 61.6351929,28.5334492 C62.0494826,28.8503549 62.6309232,28.750043 63.15131,28.7122459 C63.6717268,28.6744488 64.3141879,28.8038283 64.4726486,29.2937107 C64.5511291,29.5393819 64.4813483,29.8054016 64.4115868,30.0525227 L62.6498089,36.3396206 C62.4768299,36.9545234 62.302411,37.5999537 62.4361248,38.2293854 C62.5698686,38.8588271 63.1193316,39.4417523 63.7560043,39.3821468" id="Path-684" stroke="#000000" stroke-width="0.300000012" fill="#65D5C9" stroke-dasharray="0,0"></path>
                        <path d="M79.2457714,53.8478565 C78.3188736,55.8738263 76.9337043,57.6567444 75.1996489,59.0559807 C73.973616,60.0432021 72.4174154,60.8545283 70.8772211,60.5273647 C69.8736913,60.3136563 69.0156022,59.6302772 68.4134803,58.7986164 C67.8113584,57.9669357 67.4419437,56.9898751 67.1409178,56.012785 C65.6195914,51.1521878 65.5410686,45.9803982 65.4538121,40.8827896 C65.4406866,40.0104035 65.4262106,39.1380173 65.3345623,38.2772627 C65.2821704,37.7872874 65.1993157,37.2813005 64.9331443,36.8654552 C64.1331897,35.6164988 62.1392555,35.7270136 61.1967812,34.5827312 C61.031242,34.408258 60.942705,34.1746071 60.9510084,33.9342651 C61.0193971,33.3381358 61.8425514,33.2479837 62.4374102,33.3221335 C61.9865416,33.7147158 61.1400575,33.3555678 61.1095848,32.7579982 C61.078992,32.1603987 61.884749,31.7183998 62.3734235,32.0629857 C61.8250941,32.208395 61.3858903,31.3825352 61.7422394,30.9419765 C62.0985284,30.5014279 62.8737527,30.607562 63.2125845,31.0626626 C62.9350684,30.9934134 62.6989396,30.8116692 62.5608819,30.5611658 C62.4229442,30.3106425 62.3955928,30.013993 62.4854103,29.7424668 C62.5139823,29.6552352 62.5669845,29.5780349 62.6381242,29.5200072 C62.776302,29.4167834 62.9682824,29.4414867 63.1369929,29.4720308 C64.4507124,29.7122928 65.7353097,30.0909932 66.969286,30.6017712 C66.6347961,30.5654064 66.2944436,30.180115 66.5096836,29.9227608 C66.6841966,29.7119327 66.4908156,28.9718542 67.8099074,29.2742844 C70.7535789,29.9489343 69.9449611,33.261065 70.320178,35.3562441 C70.695455,37.4514132 70.6779974,39.6134813 71.229188,41.669405 C71.5869376,43.0055829 72.1789252,44.2676408 72.5700788,45.5951176 C72.9613525,46.9225943 73.1417278,48.3707378 72.6704607,49.6662502" id="Path-685" fill="#FFFFFF"></path>
                        <path d="M63.2330916,29.6362425 C63.4060784,29.671124 63.5863046,29.7118357 63.7622212,29.7540175 C64.1241636,29.8397711 64.4890359,29.9386553 64.842279,30.0447698 C65.5476652,30.2497684 66.2416123,30.4924187 66.9210105,30.7717005 L67.0126138,30.4416665 C66.8672349,30.4184155 66.6535408,30.3209914 66.6200933,30.1509142 C66.5997749,30.0564002 66.6884482,29.9720767 66.7218657,29.884853 C66.7503035,29.7588677 66.79629,29.6374626 66.8585453,29.5243078 C67.0038942,29.3352998 67.3236897,29.3702213 67.5286641,29.4007325 C67.8746477,29.4512747 68.2097623,29.5593692 68.5200486,29.720566 C69.6161251,30.3021006 69.8763551,31.5596638 69.9737377,32.6980219 C70.0246038,33.3042775 70.0275037,33.913433 70.0682106,34.5196886 C70.1220065,35.3149222 70.2921035,36.0971156 70.3793168,36.8894491 C70.4926782,37.9172926 70.569732,38.9480659 70.7165709,39.9730492 C70.8660995,40.9979625 71.1168708,42.0055749 71.4652042,42.9810162 C72.2138672,45.0890753 73.2910253,47.3658118 72.4929562,49.6221371 C72.4130023,49.8475166 72.7691151,49.943441 72.8476391,49.7210217 C73.6021316,47.5911417 72.7022899,45.3595072 71.9754553,43.3691931 C71.5758557,42.3288091 71.2793088,41.2516733 71.0901432,40.153327 C70.9098869,39.0367599 70.8241433,37.9085717 70.6903934,36.7876744 C70.591551,35.9647897 70.4229238,35.1535756 70.3778572,34.3263307 C70.3429799,33.6706629 70.3458794,33.010635 70.2819142,32.3563673 C70.2420573,31.7218806 70.0791397,31.1011844 69.8022108,30.5289003 C69.5039835,29.9659165 69.0171409,29.5258678 68.4270458,29.2858977 C67.9051756,29.0692486 66.8614652,28.749405 66.5198412,29.4123631 C66.4790743,29.4955866 66.4469367,29.5828102 66.4238985,29.672594 C66.4137092,29.7104056 66.4006202,29.7481872 66.3889911,29.7859688 C66.3991803,29.7510874 66.388991,29.7932591 66.3817315,29.7990594 C66.3634229,29.8206403 66.3473742,29.8440113 66.3337653,29.8688523 C66.0939135,30.2701193 66.5430991,30.7062577 66.9152308,30.7629601 C67.003974,30.7819709 67.0922174,30.7285686 67.1164756,30.6410949 C67.1407337,30.5536312 67.0926775,30.4623774 67.006834,30.4329262 C66.2666904,30.1221831 65.5054885,29.8642021 64.7289276,29.6609535 C64.3451369,29.5635394 63.9599161,29.4777458 63.5659962,29.4036227 C63.25346,29.3440201 62.8551404,29.2175148 62.5658624,29.4036227 C62.5068769,29.4381441 62.4870084,29.5139773 62.5215558,29.5729698 C62.5560332,29.6319923 62.6318674,29.6518632 62.6908829,29.6173417 L62.7010321,29.6275122 C62.8653296,29.5344882 63.0601048,29.601361 63.2330916,29.6362425 Z" id="Path-686" fill="#000000"></path>
                        <path d="M76.9841537,57.0867748 C76.1292574,58.0871511 75.1304948,59.0264003 73.9877462,59.6908607 C72.8450577,60.3553512 71.4842805,60.7086388 70.2427177,60.1357708 C69.0432668,59.578905 68.2669235,58.4462708 67.760982,57.2627296 C67.1896077,55.9265177 66.8363227,54.4841821 66.5470004,53.0636387 C66.2576181,51.6026597 66.0513091,50.1264381 65.9291739,48.6421061 C65.8011785,47.1706856 65.7342757,45.6934643 65.6907039,44.2176733 C65.647062,42.7200893 65.6499923,41.2210151 65.5990901,39.7234411 C65.574369,39.0080737 65.5569781,38.2621822 65.3926611,37.5613768 C65.2790063,37.0230335 64.9775435,36.542688 64.542165,36.2062722 C63.7440311,35.5955891 62.7016369,35.4618208 61.8627312,34.9238376 C61.6610626,34.7949401 61.480575,34.6355283 61.3277385,34.4513033 C61.1736219,34.2695785 60.9134109,34.5327343 61.0660674,34.7130289 C61.7377259,35.5097974 62.8106514,35.6988531 63.7163899,36.11611 C64.1802196,36.3313193 64.6134581,36.622099 64.8591385,37.0844719 C65.1949728,37.7184083 65.1979028,38.5282683 65.2342143,39.2261534 C65.3141777,40.7484907 65.2981774,42.2795188 65.3388991,43.8003559 C65.3796109,45.321223 65.4450435,46.8464513 65.5758491,48.364398 C65.6995743,49.855321 65.899963,51.3388934 66.1762748,52.8092136 C66.439466,54.2670221 66.8286423,55.6992271 67.339344,57.0897064 C67.8075039,58.3139331 68.5111439,59.4945729 69.6480923,60.2055798 C70.7849805,60.9165566 72.1457582,60.9005954 73.3698702,60.3844051 C74.5940422,59.8682548 75.671298,58.9682617 76.5974274,58.015892 C77.5206866,57.0654726 78.3039209,55.9883953 78.9235172,54.8171558 C79.0805639,54.5263762 79.2142993,54.2210059 79.3596954,53.9142342 C79.4221981,53.7688244 79.214298,53.6437767 79.1445351,53.7891865 L79.1357956,53.7891769 C78.5621612,54.9756786 77.8390501,56.0838583 76.9841537,57.0867748 Z" id="Path-687" fill="#000000"></path>
                        <path d="M90.8598633,56.9528406 C91.0125003,66.5101573 93.6510596,78.9019747 98.4440575,87.165554 C99.6782838,89.2950604 101.169835,91.4463844 103.410092,92.462429 C106.462954,93.8462746 110.018796,92.777876 113.128416,91.5364914 C119.505983,88.986901 122.615532,87.1524973 128.295303,83.2903118 C130.787076,81.5954677 133.720738,79.6898108 136.581703,80.6317253 C137.041104,80.7770959 137.589136,80.9936765 137.967178,80.6927567 C138.40333,80.3424633 138.211372,79.6462071 137.977306,79.1345253 L135.812679,74.416193 C135.459416,73.6458157 135.000016,72.7853119 134.172882,72.5948772 C133.78239,72.4976002 133.371566,72.5219461 132.995354,72.6646271 C127.96097,74.7272823 122.382948,75.2389345 116.803465,76.3770828 C112.747513,77.2027128 111.911588,77.4091156 108.048992,78.8946877 C107.083681,69.4100819 104.244566,61.6973586 100.656675,55.8932018" id="Path-688" fill="#FFFFFF"></path>
                        <path d="M137.980191,79.1332378 L135.815577,74.4140319 C135.462385,73.6435466 135.003,72.7828573 134.175834,72.5924186 C133.785415,72.4950642 133.374547,72.5194153 132.998287,72.6621818 C132.139203,73.0140079 131.26407,73.3178518 130.381667,73.5911843 C130.527469,74.3473188 130.718749,75.094063 130.954447,75.8271866 C131.463269,77.5180639 131.979292,79.2146115 132.723582,80.8138647 C133.995544,80.361754 135.301024,80.2061664 136.590445,80.6306858 C137.043971,80.7818727 137.591981,80.9927024 137.970011,80.6917286 L137.970001,80.6917191 C138.406078,80.341363 138.214188,79.6449813 137.980191,79.1332378 Z" id="Path-689" fill="#65D5C9"></path>
                        <path d="M94.4432404,78.5147495 C95.562754,81.8497052 96.9484193,85.1338508 98.8050909,88.128624 C99.7544842,89.6536558 100.879858,91.1394163 102.409401,92.1250839 C104.048026,93.181972 106.007911,93.4480362 107.917019,93.2125244 C109.93508,92.9624625 111.852849,92.2486777 113.732773,91.4897919 C115.412113,90.8079666 117.076862,90.0897588 118.705286,89.2916527 C121.771692,87.7899011 124.651916,85.9682977 127.481354,84.058033 C129.151903,82.9327843 130.816709,81.6883255 132.730087,81.0050602 C133.627834,80.6573375 134.59261,80.5172065 135.552204,80.5950871 C136.047993,80.6474275 136.495857,80.8175284 136.972664,80.9468994 C137.349299,81.0501402 137.781173,81.0922906 138.100971,80.8247986 C138.76401,80.2723643 138.246377,79.2779756 137.965763,78.6702709 L136.551044,75.5940475 C136.162878,74.746511 135.834288,73.7782629 135.216354,73.0630474 C134.655797,72.4173224 133.7514,72.1908508 132.952595,72.4960232 C131.958026,72.8711161 130.972257,73.2403498 129.953026,73.5398521 C128.957057,73.8305944 127.950959,74.0835862 126.937588,74.3074379 C124.848228,74.7683215 122.734206,75.1172234 120.625984,75.4821262 C118.590461,75.833939 116.554938,76.2206633 114.533947,76.6626167 C113.162753,76.955859 111.810963,77.3330904 110.486105,77.7922039 C109.651595,78.0829462 108.824226,78.3998801 107.999847,78.7168026 L108.239807,78.8999729 C107.891866,75.4065959 107.247378,71.9491396 106.313247,68.5650234 C105.492719,65.5982606 104.4111,62.7099385 103.081171,59.933887 C102.39841,58.5180161 101.64277,57.1384852 100.817351,55.8007349 C100.690876,55.5942833 100.365207,55.7833048 100.493093,55.9897664 C101.97758,58.4080251 103.239941,60.9557748 104.264663,63.6017952 C105.431432,66.6192784 106.333818,69.7323618 106.961763,72.9060364 C107.358721,74.8846016 107.653867,76.8835781 107.860312,78.8927135 C107.870443,79.0017544 107.973725,79.1238848 108.10021,79.0759144 C109.554184,78.51472 111.02701,77.9535952 112.53623,77.531992 C114.087625,77.0958586 115.673814,76.7905663 117.251392,76.4765339 C121.350091,75.6624076 125.521419,75.1564841 129.55175,74.0225353 C130.530257,73.7477832 131.498643,73.4410216 132.448036,73.0717487 C132.936554,72.8856473 133.380095,72.6647058 133.917999,72.7286663 C134.328078,72.7803667 134.702154,72.9887682 134.961945,73.3101807 C135.224186,73.6368132 135.440333,73.9977756 135.604603,74.3830986 C135.83431,74.8715624 136.055277,75.3643658 136.280643,75.8542995 L137.653187,78.8476734 C137.829108,79.2300264 138.051556,79.6370791 138.055946,80.0703125 C138.055946,80.6169167 137.592139,80.7303181 137.138535,80.6183872 C136.68487,80.5064464 136.255978,80.3276438 135.789192,80.2636433 C135.340409,80.1987928 134.885336,80.189024 134.434113,80.2345943 C132.530935,80.4279558 130.799279,81.4281427 129.230492,82.4530506 C127.661644,83.4779885 126.127761,84.5552059 124.547253,85.5641537 C123.199432,86.4247903 121.828419,87.2491073 120.420971,88.0065231 C118.967057,88.7901292 117.481109,89.5024468 115.970428,90.1639519 C114.176264,90.948988 112.355928,91.7311341 110.477404,92.2937584 C108.59895,92.8563527 106.599741,93.1907316 104.680512,92.7182579 C102.880558,92.2821245 101.448377,91.103109 100.318662,89.676918 C99.2456536,88.3263476 98.3922215,86.7926143 97.6099682,85.2603226 C96.8230043,83.7077906 96.1212006,82.113508 95.5075474,80.4846554 C94.2254744,77.063369 93.2166841,73.5457921 92.4905875,69.9650745 C91.7579001,66.4759777 91.2840235,62.93752 91.0730583,59.3785625 C91.0274629,58.5702362 90.9973693,57.7614501 90.9828375,56.9521838 C90.9828375,56.8839133 90.9275309,56.8286128 90.8592828,56.8286128 C90.7910347,56.8286128 90.7357281,56.8839133 90.7357281,56.9521838 L90.7327777,56.9521738 C90.9079686,64.2824904 92.1581178,71.5474358 94.4432404,78.5147495 Z" id="Path-690" fill="#000000"></path>
                        <path d="M83.6289291,56.9515388 C79.9621463,66.5233991 77.5858874,77.7409754 76.312758,87.0046291 C74.5818117,99.6004133 73.8711483,112.300879 73.9001899,125.020226 C73.9089173,128.938248 73.0179965,131.004082 70.7304623,133.161537 C70.4996994,133.382402 70.4184831,133.717427 70.5224528,134.019493 C70.6264226,134.321559 70.896614,134.535492 71.2143915,134.567352 C72.8843155,134.724366 74.5934781,134.744726 76.2299619,134.964241 C77.7530186,135.167795 79.5145261,135.268079 80.6002102,134.180656 C81.2731144,133.507542 81.5157733,132.527673 81.7308607,131.598694 C83.5722449,123.633287 85.2698109,116.098187 87.108326,108.13134 C87.8596973,104.880602 88.6154584,101.599375 88.6677532,98.2628746 C88.7185784,95.0892282 88.1358065,91.866102 88.8654442,88.770977 C89.3377767,86.770535 90.3362072,84.9416447 91.2764835,83.1142063 C94.8779156,76.1112494 98.162539,63.6433689 96.7789116,55.8907166" id="Path-691" fill="#FFFFFF"></path>
                        <path d="M70.7302651,133.163818 C70.4995298,133.384766 70.4183472,133.719814 70.5222865,134.022014 C70.6262558,134.324153 70.896398,134.538139 71.2140825,134.570008 C72.8834873,134.727089 74.5921093,134.747424 76.2281237,134.966962 C77.7507943,135.170565 79.5117257,135.270932 80.5970917,134.183186 C81.2697988,133.509909 81.512387,132.529801 81.7274714,131.600597 C81.8335494,131.139656 81.938168,130.683056 82.0441761,130.224995 C79.1121688,130.446003 76.0349267,130.382017 73.3339343,129.313256 C72.8399029,130.790694 72.0015824,131.964162 70.7302651,133.163818 Z" id="Path-692" fill="#65D5C9"></path>
                        <path d="M79.0154696,71.5724936 C77.8624562,76.3701124 76.9536819,81.2185631 76.2528205,86.0961342 C75.4589343,91.6206326 74.8772916,97.174192 74.4687867,102.737942 C74.0529506,108.381644 73.810602,114.034576 73.741801,119.696709 C73.7214078,121.111757 73.7107261,122.526801 73.7097559,123.941879 C73.7097559,125.144182 73.7301491,126.347925 73.5556214,127.541527 C73.3090622,129.333845 72.5201168,131.007965 71.2947021,132.339081 C70.8075646,132.871195 69.9584296,133.442558 70.4382459,134.26104 C70.6432985,134.611419 70.9806321,134.723336 71.3630129,134.758217 C72.0289488,134.819288 72.6977552,134.854169 73.3652213,134.89344 C74.6374536,134.967572 75.8980937,135.13917 77.1688657,135.232193 C78.1546824,135.304855 79.2248524,135.26418 80.1045122,134.761147 C81.0379506,134.227592 81.4727104,133.252073 81.7358723,132.253326 C82.0833975,130.936181 82.3567608,129.594282 82.6621094,128.264046 C83.2883089,125.529902 83.9125475,122.793814 84.5349064,120.05579 C85.1513944,117.342007 85.7750934,114.633553 86.4061737,111.93045 C87.0386643,109.203047 87.7293245,106.480072 88.2425861,103.726528 C88.4983068,102.397172 88.6802766,101.054706 88.7878437,99.7052994 C88.8700068,98.3316925 88.8700068,96.9544066 88.7878437,95.5808296 C88.6598334,92.8345656 88.5174103,90.0883112 89.4537792,87.4539604 C90.2927226,85.0900967 91.6551192,82.9471595 92.6409359,80.6428375 C93.6393246,78.2951143 94.4852896,75.8855398 95.1738091,73.4290237 C95.538307,72.137059 95.8634982,70.8330035 96.1494236,69.5168381 C96.1989315,69.291492 95.8586679,69.1955395 95.8034191,69.4222956 C94.7317787,74.3551383 93.1193411,79.1774082 90.8001823,83.6696892 C89.6369774,85.9289699 88.6031741,88.1765499 88.3879299,90.7498093 C88.1626141,93.4321015 88.5857117,96.1158338 88.4868259,98.8010559 C88.3850598,101.56331 87.822349,104.292114 87.2101917,106.986027 C86.5980944,109.679919 85.9801367,112.354971 85.3694496,115.041603 C84.164548,120.350946 82.9490247,125.657856 81.7228098,130.962349 C81.459648,132.096319 81.2677178,133.43386 80.3210974,134.231972 C79.4574301,134.958861 78.2331753,134.992339 77.1644654,134.909447 C75.9184173,134.814934 74.6825006,134.641953 73.4349322,134.563461 C72.7675261,134.52272 72.09872,134.486369 71.4327841,134.418037 C71.1506992,134.391857 70.8903978,134.351176 70.7377836,134.083679 C70.6132538,133.868923 70.6222252,133.60188 70.7610373,133.396034 C71.0198084,133.022424 71.4443759,132.719991 71.7482542,132.378342 C72.0219777,132.068553 72.2764181,131.742302 72.5102153,131.401382 C72.9667678,130.730224 73.3219945,129.995435 73.564343,129.220634 C74.2346795,127.095207 74.080535,124.821434 74.0921369,122.624725 C74.1212515,117.068206 74.3029903,111.515629 74.6373935,105.9669 C74.9776576,100.448231 75.489949,94.9431024 76.1742578,89.4515648 C76.7893456,84.5783539 77.5847023,79.7313328 78.6170263,74.9279537 C79.6475902,70.0158014 80.9583381,65.1667013 82.54282,60.4043131 C82.9310617,59.2587422 83.3265747,58.1160116 83.7453413,56.9820411 C83.8005901,56.8366472 83.5664832,56.7726855 83.5097742,56.9180794 L83.5112438,56.9224095 C81.6341155,61.6763472 80.2106096,66.6062598 79.0154696,71.5724936 Z" id="Path-693" fill="#000000"></path>
                        <path d="M78.8267508,22.2283604 C78.0175028,23.6516528 78.7483094,25.6535522 77.7473404,26.9474607 C77.6419358,27.058994 77.5599567,27.190478 77.5061001,27.3341722 C77.4261897,27.6336512 77.6514599,27.8691785 77.9419897,28.0305634 C78.4955362,28.3373025 78.4650452,29.1325358 78.5347619,29.6791821 C78.610335,30.2607093 78.6379678,30.8422262 78.7468503,31.4092331 C78.8413316,31.8977076 79.0446954,32.3920226 79.4428284,32.6885815 C79.7718443,32.9140182 80.1663196,33.0239518 80.5644426,33.0011511 C81.1572148,32.9880607 81.7165577,32.7641935 82.3078709,32.7351027 C82.5069074,32.7249224 82.7307087,32.7191122 82.8890505,32.8514061 C82.9815231,32.949069 83.0467326,33.069413 83.0778933,33.2003069 C83.3162054,33.9146181 83.5447634,34.6328098 83.7636876,35.3548813 C83.8021138,35.547897 83.8972745,35.725042 84.036768,35.8637161 C84.2300081,36.0192707 84.507546,36.0091103 84.7530637,35.9698391 C86.6358654,35.6916808 88.3284256,34.6694005 89.4516888,33.1320047 C89.5650784,33.0042209 89.6299176,32.8405257 89.6347446,32.6696806 C89.5978975,32.5011556 89.5089729,32.3485311 89.3804426,32.2335377 C88.3673412,31.0427022 87.6588509,29.6232203 87.3159237,28.097415 C86.7507843,25.7087739 87.8316532,22.585991 85.9952726,20.5840715 C85.5559053,20.1089574 84.9821717,19.7792976 84.3506036,19.6390934 C83.2799178,19.4161667 82.1672082,19.5173998 81.1542866,19.929862 C80.2622601,20.2816825 79.1086858,20.9707829 78.9604578,22.0189941" id="Path-694" fill="#FFFFFF"></path>
                        <path d="M78.2304017,24.2852502 C78.1795586,25.0133404 78.1824288,25.764672 77.8684397,26.4244566 C77.792265,26.5838797 77.6981393,26.7340562 77.5878426,26.872067 C77.4505643,27.0130067 77.3571186,27.1906829 77.3188463,27.383604 C77.2767337,27.7556513 77.561661,28.0041432 77.8480484,28.1814499 C78.1345059,28.3587566 78.2231913,28.6624785 78.2740344,28.974947 C78.3307378,29.3208136 78.3525292,29.6768562 78.3889114,30.0241823 C78.4775968,30.8540062 78.4790069,31.8175223 79.0111393,32.510705 C79.5432717,33.2039276 80.406854,33.2489716 81.1920018,33.1036434 C81.6281283,33.020803 82.078776,32.8740355 82.5280833,32.9074535 C82.7824888,32.9263368 82.8479226,33.0934668 82.9220271,33.3114491 L83.1532412,34.0162773 C83.29857,34.4755134 83.4439691,34.9361894 83.5894279,35.3983345 C83.7013148,35.7572764 83.8685548,36.0784516 84.2726994,36.1482067 C84.6391116,36.2121439 85.0505165,36.1060623 85.4066782,36.0217724 C85.781031,35.9313347 86.1475638,35.8113074 86.5029354,35.6628304 C87.2160488,35.3629974 87.8781991,34.9541132 88.4656448,34.4508028 C88.7656531,34.1943043 89.0433801,33.9128143 89.2957754,33.6093626 C89.5138687,33.3463365 89.8410383,33.012086 89.803196,32.6429577 C89.7753043,32.4731883 89.6961294,32.316004 89.5763721,32.1924381 C89.4310433,32.0151514 89.2754537,31.8451228 89.1402454,31.6605587 C88.8785695,31.312143 88.6428351,30.9449139 88.4351225,30.5618906 C88.0282377,29.8060903 87.7184687,29.0018571 87.5133762,28.1683846 C87.3569367,27.4600374 87.2856426,26.7355456 87.3010836,26.0102944 C87.3010836,24.5875522 87.4304814,23.0718131 86.8867483,21.7202754 C86.6274525,21.0420074 86.1794958,20.452038 85.5957203,20.0199721 C84.9051283,19.527308 84.0458856,19.3500112 83.2099547,19.3601876 C82.3815944,19.375852 81.5652047,19.560826 80.8110688,19.9037136 C80.1887809,20.1798251 79.5752736,20.5605793 79.1769394,21.1229886 C78.990888,21.3811165 78.8697306,21.6801898 78.8235878,21.9949474 C78.8017964,22.1576994 79.0475414,22.2318129 79.0765932,22.0647125 C79.1914101,21.4092764 79.7003511,20.9296975 80.2396839,20.5823815 C80.8471408,20.1967791 81.5218622,19.9290646 82.2285752,19.793263 C83.0485751,19.6116579 83.9023867,19.6543326 84.7001653,19.916789 C85.402238,20.1832239 85.9866834,20.6906228 86.3488255,21.3482682 C87.0350872,22.5486498 86.9783843,24.0135171 86.9609232,25.3490705 C86.9373018,26.0278283 86.9572025,26.7074159 87.0204964,27.3836346 C87.1155922,28.1213213 87.3036535,28.8439931 87.5802803,29.5344467 C87.8667377,30.2881578 88.2467613,31.0029325 88.7113895,31.6620274 C88.8218663,31.8175219 88.9382134,31.9686681 89.0588207,32.1168852 C89.1794981,32.2651323 89.3641394,32.4162583 89.4383039,32.593565 C89.5124685,32.7708717 89.3714695,32.9466996 89.2696533,33.0862198 C89.1504461,33.2475422 89.0225082,33.4030368 88.88731,33.5527134 C87.8957897,34.6584588 86.5771093,35.4190672 85.1232309,35.7238884 C84.8237127,35.7849166 84.3061614,35.9418606 84.0808077,35.6541233 C83.9841218,35.4937305 83.9161878,35.3176531 83.8801756,35.1338787 C83.8113214,34.9090889 83.741557,34.6843292 83.6708727,34.4595394 C83.5341444,34.023565 83.394546,33.587601 83.246347,33.1516066 C83.2038644,32.9857258 83.1162689,32.834829 82.9933414,32.7156515 C82.8455025,32.6055808 82.6643414,32.5496608 82.4801302,32.5572281 C81.65434,32.5426933 80.8489311,32.9844857 80.0231309,32.7679529 C79.1972706,32.5514202 78.9515955,31.6998046 78.85997,30.9324884 C78.8047266,30.5037814 78.7698146,30.0721554 78.7146412,29.6434383 C78.6924799,29.3347885 78.6526275,29.027658 78.595374,28.7235365 C78.5417207,28.4405974 78.3978519,28.1826493 78.185379,27.9881887 C77.9295034,27.7774639 77.4933169,27.62051 77.7609132,27.2237716 C77.9625854,26.9614152 78.1297056,26.6742277 78.2580734,26.3692665 C78.3684901,26.0448023 78.4388145,25.7080323 78.4674362,25.3664942 C78.5386705,24.6660441 78.5008881,23.9539384 78.6229656,23.2578368 C78.6758288,22.9228264 78.7833754,22.598782 78.941465,22.2986791 C78.9681366,22.2402 78.9461052,22.1709747 78.8905019,22.1386862 C78.8348985,22.1063777 78.7638442,22.1215223 78.7262419,22.1736937 L78.7174914,22.1678758 C78.3510791,22.8131255 78.2813048,23.55718 78.2304017,24.2852502 Z" id="Path-695" fill="#000000"></path>
                        <path d="M79.6255976,25.867334 C79.6286968,25.8615324 79.6331414,25.8565752 79.6386124,25.8528896 L79.6111179,25.8745463 L79.6285175,25.8644332 L79.5951833,25.8788776 L79.6081981,25.8788776 C79.6241327,25.8738608 79.6396488,25.8675823 79.654547,25.8600919 L79.6183528,25.8759768 C79.6270526,25.8720527 79.6363602,25.8696089 79.645907,25.8687645 L79.605338,25.8687645 L79.6444521,25.8687645 L79.6038233,25.8687645 C79.6138584,25.8702944 79.6236544,25.873225 79.6328325,25.8774172 L79.5951833,25.8615324 L79.6255976,25.880318 L79.5937284,25.8557605 C79.6039429,25.8637974 79.6131907,25.8730263 79.6212228,25.8832089 L79.5951933,25.8499788 C79.6072314,25.8666684 79.6173961,25.8845898 79.6256674,25.9034152 L79.608208,25.8644232 C79.6141075,25.8788577 79.6184823,25.8938585 79.6212228,25.909187 L79.6212826,25.8644232 C79.6227376,25.8802783 79.6227376,25.8962228 79.6212826,25.9120779 L79.6212826,25.8673141 C79.6196981,25.8786789 79.6167783,25.8898351 79.6125828,25.9005243 L79.6285175,25.860082 C79.6255976,25.8685062 79.6211531,25.8763444 79.6154429,25.8831791 L79.6415322,25.8485284 L79.6255976,25.8658538 L79.6589318,25.8384153 C79.6541883,25.8425976 79.6487771,25.846025 79.6429971,25.8485284 L79.6835662,25.8312031 L79.6618516,25.8312031 L79.7082006,25.8312031 L79.682171,25.8312031 L79.7284602,25.8384153 C79.7189133,25.8368358 79.7096655,25.8339251 79.7009657,25.8297427 L79.7429299,25.8470879 L79.7241352,25.8369749 L79.7588645,25.8644133 C79.7533337,25.8598336 79.7484607,25.854489 79.7444446,25.8485284 L79.7719391,25.8846196 C79.7588645,25.8658538 79.7444446,25.847088 79.7299052,25.8297427 L79.7559945,25.8644133 L79.7487596,25.8514093 L79.7661592,25.8904113 C79.7573398,25.8636881 79.7430495,25.8390809 79.7241252,25.818209 L79.6907911,25.7936516 C79.6731524,25.7820384 79.6525938,25.7755414 79.6314274,25.7748659 C79.6172566,25.7705345 79.6021092,25.7705345 79.5879385,25.7748659 C79.5733392,25.7745976 79.5588695,25.7780746 79.5459743,25.7849789 C79.5328399,25.7893898 79.5209114,25.7968007 79.5111852,25.8066356 C79.4936661,25.8178216 79.4791964,25.8332197 79.4691513,25.8513994 C79.4505957,25.8835467 79.4401421,25.9197471 79.438737,25.9568218 C79.437581,26.0108145 79.4585082,26.0629198 79.4966457,26.1012561 C79.529671,26.136473 79.5718245,26.1619345 79.6183528,26.1749086 C79.6658577,26.1871278 79.7157942,26.1871278 79.7632991,26.1749086 C79.8236992,26.1562521 79.87528,26.1161674 79.9081159,26.0622541 C79.9212502,26.0405478 79.9314149,26.0172519 79.93859,25.9929329 L79.93859,25.9727266 C79.9424267,25.9522123 79.9448582,25.9314696 79.945765,25.9106176 C79.9455258,25.857052 79.933109,25.8042216 79.9095708,25.7560802 C79.9041596,25.7450035 79.8978316,25.7343738 79.8907761,25.7243104 C79.8752102,25.7008556 79.8567145,25.6795069 79.8356676,25.6607709 C79.7949192,25.6239843 79.7447934,25.5989996 79.6907811,25.5885587 C79.651667,25.579906 79.6111578,25.579906 79.5720537,25.5885587 C79.5474791,25.5945292 79.5240007,25.6042747 79.5024755,25.6174376 C79.4413479,25.6566978 79.4059509,25.725582 79.4097776,25.7979729 L79.4097776,25.8311832 C79.412817,25.846929 79.4203608,25.8614827 79.4314921,25.8730859 C79.4471876,25.8943552 79.4696296,25.909644 79.4952306,25.9164092 C79.5508274,25.9336551 79.6109186,25.9102897 79.6401172,25.860082 L79.6443923,25.841336 L79.6255976,25.867334 Z" id="Path-696" fill="#000000"></path>
                        <path d="M79.3183521,24.993558 L79.3444891,24.993558 L79.3212074,24.993558 C79.3483427,24.993558 79.3638405,24.993558 79.3677008,24.993558 L79.3865298,24.993558 C79.3531947,24.993558 79.3459467,24.993558 79.3619103,24.993558 C79.3897545,25.0040657 79.4192458,25.0094852 79.4489868,25.0096056 L79.5418538,25.0169119 L79.4736063,25.0081505 C79.5533049,25.0187184 79.6322847,25.0338126 79.7102762,25.0533729 L79.6420287,25.0241981 L79.6536695,25.0241981 C79.7230152,25.059786 79.8025342,25.070093 79.8785788,25.0533729 C79.9649864,25.0300391 80.0351209,24.9666012 80.067228,24.8826897 C80.1000139,24.8054321 80.0980571,24.717747 80.0619866,24.642045 C80.0258561,24.566333 79.9590063,24.5099504 79.8785688,24.4872689 C79.6597495,24.4471648 79.435569,24.4471648 79.2167596,24.4872689 C79.1413838,24.5070499 79.0770398,24.5564675 79.0382238,24.6244317 C79.0072049,24.6824401 78.995025,24.7487785 79.0034312,24.8140932 C79.020493,24.9620247 79.1455968,25.0733246 79.2937227,25.0723411 C79.4932838,25.0545773 79.6941827,25.0580096 79.8931348,25.0825578 L79.814774,25.0708858 C79.9134314,25.0869335 80.0121387,25.1117427 80.1050056,25.1219594 L79.9598549,24.5631415 L79.900323,24.5981673 C79.8093429,24.6540582 79.7596848,24.7585636 79.7734521,24.8648556 C79.7872793,24.9711675 79.8619862,25.0593243 79.9642376,25.0898641 L80.0309577,25.1102774 C80.1890272,25.1524088 80.3516592,25.0596655 80.3967448,24.9016377 C80.4369586,24.7429375 80.3453795,24.5805942 80.1891969,24.5339667 C80.1023601,24.5109038 80.0133367,24.4971945 79.9235846,24.4931098 C79.8524718,24.4843484 79.7784339,24.4770622 79.7102562,24.4726965 C79.5705964,24.4624698 79.4304474,24.4624698 79.2907776,24.4726965 L79.3691384,25.0562934 L79.3865697,25.0562934 L79.3067413,25.0665101 C79.3880872,25.0557916 79.4699823,25.0494689 79.5520071,25.047532 C79.6347607,25.047532 79.7145791,25.0562934 79.7973327,25.0606691 L79.7189119,24.4843484 L79.7058735,24.4843484 L79.7828366,24.4741517 C79.6541387,24.47366 79.52594,24.4893564 79.4010758,24.5208395 C79.3720736,24.5280654 79.3442894,24.5393661 79.3183222,24.55439 L79.2704311,24.590851 C79.2573926,24.6010677 79.2588502,24.6010677 79.2704311,24.590851 C79.2820719,24.5806544 79.2704311,24.590851 79.2603178,24.590851 C79.2478284,24.5967422 79.2361876,24.6040986 79.2254652,24.6127497 C79.1630681,24.656517 79.0803145,24.716352 79.0643508,24.7995007 C79.0444236,24.881686 79.0914661,24.9653366 79.1717737,24.9906275 L79.1732712,24.993558 C79.220743,25.0064543 79.2708305,25.0064543 79.3183521,24.993558 Z" id="Path-697" fill="#000000"></path>
                        <path d="M83.9151964,25.7170264 C83.8795751,25.8097959 83.8795751,25.9125713 83.9151964,26.0053607 C83.9470909,26.0634619 84.0069067,26.1006094 84.0728548,26.103396 C84.1486129,26.1058751 84.2169766,26.0577004 84.2405007,25.9851705 C84.2628909,25.906185 84.2292513,25.8219933 84.1588468,25.7804528 C84.0799535,25.7361455 83.9816868,25.7477677 83.9151964,25.8092902 C83.8778892,25.8473302 83.866699,25.903934 83.8865554,25.9534475 C83.9088766,26.0022469 83.9563585,26.0344758 84.0097954,26.037064 C84.0350645,26.035051 84.0600379,26.0302116 84.0842915,26.0226453 L84.0470435,26.0226453 L84.0714154,26.0226453 L84.0341082,26.0226453 L84.0484336,26.0226453 L84.0154546,26.0096645 L84.0255603,26.0096645 L83.9982404,25.9880463 L84.0069067,25.9967036 L83.9853643,25.969314 C83.986084,25.9726261 83.986084,25.9760969 83.9853643,25.979409 L83.9724882,25.9462579 C83.9724882,25.9510575 83.9724882,25.9549019 83.9724882,25.9577909 L83.9724882,25.921764 L83.9724882,25.8857073 C83.9732671,25.8895054 83.9732671,25.8934422 83.9724882,25.8972502 L83.9853643,25.8640793 C83.9947503,25.8501167 84.0069658,25.8383061 84.0212321,25.8294902 L84.0527618,25.8150716 L84.0441547,25.8150716 L84.0799633,25.8150716 L84.0656379,25.8150716 L84.1015057,25.8150716 L84.0857408,25.8150716 L84.1187198,25.8294803 C84.1015057,25.820843 84.1358749,25.8453568 84.1387537,25.8510984 C84.1406796,25.8549527 84.1406796,25.8549527 84.1387537,25.8510984 L84.151689,25.8828315 L84.151689,25.8626414 L84.151689,25.8986881 C84.1460298,25.8536867 84.1460298,25.8081597 84.151689,25.7631682 L84.151689,25.7991951 C84.1565003,25.7684141 84.1635989,25.7380297 84.1731722,25.7083791 C84.1723933,25.7036092 84.1723933,25.6987402 84.1731722,25.6939604 L84.1731722,25.7098368 C84.1773229,25.7035596 84.1806948,25.6967767 84.1831596,25.6896467 C84.1889371,25.6763882 84.1962132,25.663814 84.2046428,25.652162 C84.2204668,25.6305439 84.1946554,25.6651329 84.2046428,25.652162 L84.2190865,25.6377434 C84.2230598,25.6322397 84.227871,25.6273805 84.2333528,25.6233246 C84.2476749,25.6108364 84.2476749,25.6108364 84.2333528,25.6233246 C84.2118696,25.6420571 84.2333528,25.6233246 84.2405106,25.6233246 L84.2577247,25.6146675 C84.2792079,25.6016966 84.2433993,25.6146675 84.2577247,25.6146675 L84.2806473,25.6074779 C84.3404039,25.5907388 84.3753647,25.5284627 84.3587519,25.4683583 C84.34208,25.408244 84.2802234,25.3730402 84.2204668,25.3897794 L84.2290739,25.3897794 C84.0712971,25.4302688 83.9497332,25.5569629 83.9151964,25.7170264 Z" id="Path-698" fill="#000000"></path>
                        <path d="M79.2455216,28.573245 C79.4139916,28.4743157 79.5970985,28.4031635 79.7879867,28.3624679 C79.981054,28.3217323 80.1818926,28.3757064 80.3289891,28.5078221 C80.4483938,28.6576658 80.5141061,28.8435356 80.5156186,29.0354947 C80.5431314,29.2342231 80.5373004,29.4361811 80.4982451,29.6329497 C80.4582247,29.8314481 80.3431386,30.0065792 80.1770965,30.1213467 C80.0955332,30.1788005 79.9943577,30.200808 79.8964558,30.18241 C79.8262459,30.163752 79.7635784,30.1236064 79.7170504,30.0675725 C79.5521626,29.8815127 79.5347892,29.6125919 79.5246498,29.3640389 L79.5015748,28.6357682" id="Path-699" fill="#000000"></path>
                        <path d="M80.0644733,28.5530135 C80.3217821,28.6547479 80.3173924,28.9526344 80.3290519,29.1720461 C80.3435812,29.4248928 80.3290518,29.7344041 80.1240407,29.9160327 C80.0615434,29.9698086 79.9787271,30.0235745 79.8973006,29.9683492 C79.8145442,29.8868158 79.7630864,29.7787941 79.7519169,29.6632059 C79.7286679,29.5127133 79.7170084,29.3606515 79.7170084,29.2083797 C79.7063289,29.0146166 79.6975993,28.8208734 79.6908296,28.6271302 C79.6792301,28.384459 79.3012565,28.3830096 79.3114561,28.6271302 L79.3332451,29.2592469 C79.3328151,29.4470428 79.3508844,29.6344188 79.3870128,29.8186862 C79.4243012,29.9994652 79.5216469,30.1623122 79.6632507,30.2807891 C79.8322534,30.4081621 80.0606935,30.4229954 80.2447655,30.3185523 C80.60235,30.1398323 80.7418739,29.7111544 80.7434038,29.3377018 C80.7448037,28.9642591 80.7040955,28.509433 80.37123,28.2943594 C79.9845868,28.0458708 79.5265967,28.2464109 79.1864715,28.4687313 C79.0803361,28.53848 79.1457633,28.7390301 79.2780175,28.6866935 L79.2765476,28.6881429 C79.5149972,28.5951546 79.8071645,28.4512791 80.0644733,28.5530135 Z" id="Path-700" fill="#000000"></path>
                        <path d="M79.8943074,29.6526076 L79.9045348,29.6364924 L79.9045348,29.6364924 L79.9308106,29.604262 C79.9482744,29.583783 79.9673239,29.5646746 79.9876581,29.5471182 L80.0198154,29.519282 L80.0387445,29.5060895 C80.0604336,29.4900348 80.0833372,29.4758244 80.1072946,29.4636196 L80.1452732,29.4431002 L80.1627972,29.4357834 C80.1788457,29.4284666 80.1321653,29.4475045 80.1540352,29.4357834 L80.234288,29.4094287 L80.2722064,29.4006304 C80.2959731,29.393767 80.3190072,29.3844245 80.3407565,29.3727639 C80.3913612,29.3429322 80.4167137,29.2836316 80.4035456,29.226266 C80.3848574,29.1684772 80.3326068,29.1282749 80.2722064,29.1251708 C80.1934891,29.1271965 80.1163677,29.1483004 80.0475065,29.1866886 C79.9863734,29.216863 79.9290944,29.2542635 79.8767835,29.2980536 C79.7779127,29.375989 79.6988843,29.476409 79.6462623,29.5910696 C79.6318096,29.6205989 79.6277046,29.6541495 79.6346198,29.6863194 C79.6485908,29.7334354 79.6888979,29.7678527 79.7374752,29.7741919 C79.7859922,29.7805312 79.8337766,29.7575829 79.8593198,29.7155968 L79.8505678,29.7258666 C79.8637359,29.7006205 79.8783793,29.6761605 79.8943074,29.6526076 Z" id="Path-701" fill="#FFFFFF"></path>
                        <path d="M83.2802186,25.3423257 C83.4707048,25.0734882 83.6713207,24.7959243 83.959095,24.6389899 C84.2469293,24.4820456 84.6540314,24.4936808 84.8648372,24.7407074 C84.9490055,24.85411 85.0044245,24.9862547 85.026154,25.1257963 C85.1324119,25.6730074 85.0145543,26.2399401 84.6991305,26.6995878 C85.0072944,27.2808546 85.3968663,27.917338 86.0394335,28.0437651 C86.2482893,28.0728229 86.4600757,28.0728229 86.6689415,28.0437651 C86.8212185,28.0451345 86.9699649,27.9977749 87.0934324,27.9086123 C87.1696609,27.8262367 87.2245303,27.7264479 87.2532797,27.6179733 C87.6619016,26.4280112 87.945406,25.1988057 88.0993929,23.9501681 C88.196801,23.1596489 88.2447797,22.3429806 88.0165043,21.5771511 C87.7555795,20.6790568 87.1472618,19.9219936 86.3262281,19.4735812 C85.5052045,19.0251788 84.5392135,18.9224518 83.6422014,19.1881306 C83.4008762,18.5429406 82.6652308,18.2116092 81.9776244,18.1549329 C81.2900181,18.0982566 80.599482,18.2464946 79.9104657,18.2261431 C79.294018,18.2086904 78.69076,18.059023 78.0787122,17.992171 C77.891156,17.9718195 77.6643505,17.9790964 77.5670024,18.1375002 C77.5265932,18.2157574 77.5123135,18.3048602 77.5262932,18.3918038 C77.587332,19.0471795 78.2167695,19.478769 78.7837782,19.8130091 L77.7996078,19.8449757 C77.6962198,19.8362094 77.5931319,19.8645476 77.5088436,19.9249023 C77.3503367,20.0702115 77.4797942,20.3375997 77.6425709,20.4785607 C77.9515848,20.7472782 78.3495868,20.891308 78.7590686,20.8825316 C78.3055276,21.0074994 77.7792282,20.7866117 77.3663964,21.0147662 C77.233829,21.0777299 77.1443508,21.2058465 77.1308711,21.3519053 C77.132881,21.4283634 77.1570506,21.5026021 77.2006297,21.5655158 C77.3460168,21.7922009 77.6178614,21.9026548 77.8751763,21.9840307 C79.2983679,22.4359716 80.8233575,22.4199885 82.3178377,22.3981776 C82.0867023,22.755668 81.849707,23.2076088 82.0561829,23.5796132 C82.1695206,23.7815987 82.3861363,23.8978498 82.5634928,24.0460777 C82.9382453,24.3639047 83.1426414,24.8386965 83.115912,25.3292212" id="Path-702" fill="#000000"></path>
                        <path d="M84.0277619,24.7558346 C84.2619601,24.6381114 84.6095603,24.625023 84.7724295,24.863409 C84.9353586,25.1017951 84.9295553,25.5087971 84.8858914,25.7864375 C84.8380152,26.0837851 84.722592,26.3662351 84.5484867,26.6120501 C84.51789,26.6667123 84.51789,26.7332926 84.5484867,26.7879448 C84.7350488,27.1925671 84.9949616,27.5592256 85.3150167,27.8693914 C85.7208188,28.2226111 86.1776085,28.2822221 86.6998043,28.2284298 C86.9267385,28.2051831 87.1506713,28.1572001 87.2947302,27.9638777 C87.438729,27.7705652 87.5085268,27.4551302 87.5855989,27.2080154 C87.761115,26.6527646 87.9095068,26.0892447 88.0307331,25.5175261 C88.2678629,24.4011852 88.4860018,23.1918073 88.3216019,22.0536594 C88.1715598,20.9841518 87.5636172,20.0327075 86.6557703,19.446731 C85.7480435,18.8607445 84.6301217,18.6981176 83.592814,19.0011744 L83.8357468,19.137795 C83.6140654,18.6245581 83.1726639,18.2385131 82.6342793,18.0868547 C81.9884158,17.8731851 81.3004192,17.9545835 80.6356254,18.0039965 C80.2583389,18.0388915 79.8785011,18.0388915 79.5010946,18.0039965 C79.1330932,17.9647521 78.7738264,17.8906426 78.4028934,17.8397599 C78.1265622,17.8005055 77.7948307,17.726376 77.5418222,17.8906426 C77.2886937,18.0548792 77.2945569,18.3906614 77.3686974,18.6537639 C77.5461646,19.2845941 78.1497649,19.6799678 78.6778239,19.9954028 L78.7796296,19.6189264 C78.4116282,19.6305547 78.0290989,19.6189265 77.6625583,19.6596307 C77.5235622,19.6673196 77.3955621,19.7374995 77.3144678,19.8504734 C77.2333734,19.9634473 77.2078394,20.1070569 77.2450898,20.2410479 C77.400695,20.8355632 78.2138199,21.0972058 78.7534252,21.0943062 L78.6996258,20.6916535 C78.1526965,20.8239246 77.3396315,20.4837931 76.9846973,21.1015651 C76.8261605,21.376296 76.9643661,21.6829925 77.1854271,21.8806744 C77.4279298,22.0648781 77.7079931,22.1934197 78.0058261,22.2571507 C79.4050919,22.6539741 80.8742162,22.6380061 82.3142743,22.6045609 L82.1426702,22.3051338 C81.8371429,22.794974 81.5608119,23.4432817 82.0640774,23.9040461 C82.2764736,24.1002881 82.5294818,24.2281995 82.6953425,24.4738545 C82.8668864,24.7266285 82.9525034,25.0277959 82.9397364,25.3329225 C82.9397364,25.5567706 83.2728086,25.553851 83.2858758,25.3329225 C83.3162924,24.7855304 83.0899685,24.2551959 82.6735406,23.8982468 C82.4800747,23.7368897 82.202273,23.5973597 82.1717362,23.3168197 C82.1411995,23.0362796 82.3346652,22.7353725 82.485868,22.4999061 C82.5210472,22.4384848 82.5209174,22.3630357 82.4856281,22.3017244 C82.4503288,22.2404032 82.385053,22.2024085 82.3142743,22.2019286 C81.1142776,22.2019286 79.8938795,22.2251949 78.7112923,21.9824495 C78.4278772,21.9253777 78.1480539,21.8516082 77.8734336,21.7615011 C77.7134961,21.7077187 77.3265043,21.5768974 77.3352391,21.3530393 C77.3439739,21.1030449 77.8225658,21.110304 77.9811026,21.1146533 C78.2572537,21.1406696 78.5356061,21.1294212 78.8087056,21.081238 C78.9039677,21.0504624 78.9634501,20.9558859 78.9498327,20.8567801 C78.9362152,20.7576742 78.85347,20.682585 78.7534353,20.6785855 C78.3927078,20.6786055 77.8807077,20.5521235 77.6785671,20.2178011 C77.6334424,20.1407721 77.6087088,20.092799 77.6916342,20.0564642 C77.7949607,20.0355472 77.9009787,20.0306478 78.0058361,20.0419261 L78.7796396,20.0157599 C78.8696589,20.0134103 78.9474515,19.9522789 78.9709044,19.8654213 C78.9943572,19.7785837 78.9580773,19.6866268 78.8814954,19.6392835 C78.4872996,19.4052669 78.0465685,19.1392647 77.8254374,18.7206244 C77.7468444,18.5752751 77.6087088,18.2264148 77.8589057,18.1871804 C78.1091027,18.147926 78.4407042,18.2395129 78.6981751,18.2816469 C79.2898089,18.3917113 79.8919483,18.4346251 80.4931674,18.4095587 C81.0749658,18.3717841 81.6756945,18.2729182 82.250289,18.3921212 C82.7389564,18.4953365 83.2568198,18.7511601 83.4517565,19.2395605 C83.4788713,19.3458253 83.5864703,19.4105861 83.6932187,19.3848997 C84.5458553,19.1309059 85.4648784,19.2294519 86.244175,19.6584808 C87.0235315,20.0874996 87.5979457,20.8110765 87.8387375,21.6670146 C88.1165395,22.6525342 87.9638661,23.7281808 87.7965345,24.7195096 C87.7121383,25.2166288 87.6079517,25.7088991 87.4838037,26.1963396 C87.4216998,26.439575 87.3544027,26.6818401 87.2816029,26.9231358 C87.2219402,27.1864182 87.1371734,27.4434218 87.0285339,27.6906166 C86.9092687,27.9144447 86.5412672,27.8926573 86.3172646,27.8926573 C86.0792843,27.8964567 85.8463677,27.8241372 85.6525316,27.6862469 C85.285941,27.4260639 85.060537,27.0045246 84.8481307,26.6222391 L84.8481307,26.7981033 C85.069692,26.4590816 85.197202,26.0673076 85.2175932,25.6628752 C85.2365236,25.3038563 85.189928,24.8285342 84.8961272,24.5785098 C84.6360949,24.3829177 84.2895953,24.346043 83.9942636,24.4825735 C83.6277331,24.6279428 83.3891322,24.9738835 83.1710029,25.2892985 C83.0808035,25.4201199 83.2917393,25.5378731 83.3833394,25.4128609 L83.386301,25.4026823 C83.5622974,25.1613867 83.7528315,24.8924851 84.0277619,24.7558346 Z" id="Path-703" fill="#000000"></path>
                        <path d="M93.7726498,31.895299 C89.5699821,32.2678047 85.4707687,33.4046575 81.6767364,35.2498598 C79.4756038,36.3210573 77.2309494,37.8195283 76.4923417,40.15378 C76.2780436,40.9073894 76.1693896,41.6870927 76.1696396,42.4705753 C76.1190977,44.327425 76.3037346,46.183175 76.7191602,47.9936752 C77.2905316,50.4848714 78.292219,52.8568938 79.3738596,55.1737194 C80.025194,56.5690036 80.7245005,58.0166475 80.7012396,59.5558491 C80.6776787,59.7864769 80.6964194,60.0194235 80.7564816,60.2433128 C80.9309282,60.7258736 81.4979696,60.9220786 81.9995084,61.0325336 C84.9563494,61.6768578 88.0348942,61.4753648 90.882411,60.4511566 C91.6646103,60.1677408 92.4264184,59.8218073 93.2288685,59.6008873 C93.8758028,59.4235874 94.5373291,59.3276708 95.1973839,59.1852131 C96.2886149,58.925022 97.3634144,58.6003239 98.4161339,58.2128716 C99.4338721,57.8596815 100.546034,57.42802 101.033052,56.4687271 C101.22929,56.0864936 101.302042,55.6155597 101.114475,55.2274876 C101.004001,54.9978295 100.810574,54.8147107 100.687029,54.5908813 C100.407908,54.0879752 100.508253,53.471715 100.601276,52.9048634 C101.518551,47.2567019 100.876126,41.465343 98.7432957,36.155355 C98.3390405,35.156831 97.8709533,34.1641055 97.1615067,33.3559984 C96.45201,32.5478913 95.4532536,31.9388992 94.3774033,31.9025574" id="Path-704" fill="#0C3970"></path>
                        <path d="M84.763936,33.7489634 C83.3676573,34.2495651 82.0098461,34.8516275 80.7012949,35.5503697 C79.5932837,36.1552023 78.5201996,36.8807372 77.6666292,37.8214145 C77.2429646,38.2797719 76.8882738,38.7974954 76.613929,39.3581934 C76.3101584,40.011821 76.1203605,40.7124937 76.052657,41.430028 C75.9027271,43.0338339 75.9540673,44.650031 76.2053375,46.2410755 C76.6575778,49.3874009 77.8528264,52.3476081 79.1890831,55.2059937 C79.8419834,56.6046983 80.5486047,58.0440558 80.5195489,59.6244793 C80.5195489,59.9487328 80.5195485,60.2758574 80.7144074,60.5521259 C80.8865018,60.7821897 81.1212288,60.957807 81.3905725,61.0580673 C82.0259494,61.3183143 82.7616965,61.3968137 83.4379215,61.4826126 C84.9717377,61.6720522 86.5247173,61.642179 88.0501719,61.3939533 C88.8032522,61.2725408 89.5466912,61.0976231 90.2748566,60.8705196 C91.0135341,60.6393557 91.7290067,60.3340239 92.4486904,60.0694065 C93.2070218,59.8102197 93.9850678,59.6128183 94.7752056,59.4790745 C95.5762655,59.3214682 96.3668922,59.1145966 97.142437,58.8597202 C97.8331249,58.6372872 98.529614,58.4133553 99.2028484,58.140007 C99.7627102,57.9132036 100.318121,57.6340632 100.748507,57.2022285 C101.178952,56.7704239 101.51483,56.1132463 101.394146,55.4691696 C101.330173,55.1260241 101.103318,54.8875996 100.920172,54.611351 C100.730924,54.2882276 100.65761,53.910229 100.712181,53.5398006 C100.742707,53.1734327 100.818342,52.8128248 100.870663,52.4464569 C100.923043,52.080059 100.973952,51.6933291 101.01614,51.3153 C101.097516,50.5592718 101.151788,49.8007738 101.178953,49.0399151 C101.284874,45.9773383 100.949418,42.9155014 100.182905,39.9485245 C99.8047197,38.4769022 99.3162106,37.0358434 98.7215519,35.6375887 C98.1690116,34.3465152 97.4274752,33.0699732 96.2031708,32.3110147 C95.6566117,31.965699 95.0309965,31.7655283 94.3855476,31.7294545 C94.1558218,31.7192735 94.1572921,32.0740202 94.3855476,32.0856614 C95.7538608,32.149628 96.8720037,33.1034067 97.584486,34.2112913 C97.9657921,34.8247548 98.2885458,35.4726518 98.5485477,36.1464615 C98.8277135,36.8298222 99.0806951,37.5228837 99.3075504,38.2255964 C100.685636,42.4743261 101.134884,46.9694819 100.624952,51.4068909 C100.543576,52.1251352 100.382163,52.8419185 100.326862,53.5630531 C100.289565,53.8939573 100.331933,54.2289526 100.450487,54.5400848 C100.579903,54.8526772 100.86195,55.0780401 100.976843,55.3950329 C101.203698,56.0158271 100.774713,56.6744646 100.321012,57.0670452 C99.8674319,57.4595758 99.3133617,57.692201 98.7666225,57.8943119 C97.336287,58.4414585 95.8624821,58.867491 94.3608322,59.167942 C93.608602,59.3052263 92.8696238,59.5070883 92.1520805,59.7713356 C91.4497903,60.0344828 90.7591028,60.3223523 90.0422897,60.5404549 C88.606033,60.9761699 87.1154356,61.206724 85.614646,61.2252159 C84.8857405,61.2341268 84.1571448,61.1943025 83.4335504,61.1060333 C83.0554849,61.0594885 82.6788799,60.9969812 82.3052154,60.9214134 C81.9974739,60.8749586 81.6970039,60.78944 81.4109368,60.6669273 C81.1426333,60.5627266 80.9455138,60.3294922 80.8875122,60.0475731 C80.8694986,59.8658843 80.866148,59.6830958 80.8772602,59.5008869 C80.8784805,59.3148677 80.8688387,59.1289294 80.8482046,58.9440403 C80.7617574,58.2219156 80.5783106,57.5147815 80.3029256,56.8416519 C79.7532558,55.441547 79.0495052,54.1054096 78.47224,52.7168961 C77.8730603,51.3115706 77.380222,49.8632697 76.9978256,48.3841667 C76.6157293,46.8532484 76.3996863,45.2855771 76.3536571,43.708334 C76.3115387,42.2544435 76.3217307,40.7001822 77.0108883,39.3756752 C78.1959349,37.0944293 80.7275102,35.832459 82.9725885,34.8379462 C85.7116654,33.626851 88.5949306,32.7722424 91.5515709,32.295053 C92.2887781,32.1772708 93.0289158,32.0856814 93.7719841,32.0158842 C93.9174031,32.0028028 93.9260649,31.7658083 93.7719841,31.7788896 L93.7791653,31.7745292 C90.6996906,32.0289955 87.6678958,32.6929941 84.763936,33.7489634 Z" id="Path-705" fill="#000000"></path>
                        <path d="M73.1501786,130.770868 C73.1941881,130.807934 73.2558612,130.815304 73.3073399,130.789795 C73.3588186,130.764236 73.3903264,130.710486 73.3875914,130.652967 C73.384916,130.595448 73.3484353,130.545048 73.2948382,130.524476 C73.2192611,130.486861 73.1472049,130.442794 73.0793456,130.392524 C73.0572066,130.375159 73.0543124,130.375159 73.0706631,130.392524 L73.0475991,130.373657 L72.9998898,130.33306 L72.9073156,130.244687 C72.8784235,130.213704 72.8509237,130.181813 72.8249457,130.149004 C72.8104582,130.130622 72.8065927,130.126261 72.8133491,130.135921 L72.8032144,130.121431 L72.7627257,130.064829 C72.7164684,129.993857 72.6731253,129.919914 72.6340985,129.84596 C72.601437,129.796359 72.5381826,129.777123 72.4836108,129.800188 C72.4290389,129.823314 72.3986251,129.882169 72.4113755,129.940237 L72.4099035,129.934393 C72.5456319,130.295146 72.809152,130.592895 73.1501786,130.770868 Z" id="Path-706" fill="#000000"></path>
                        <path d="M72.0768096,131.422479 C72.1429258,131.510543 72.217602,131.591791 72.2995965,131.665116 C72.3803797,131.741145 72.4709341,131.806075 72.568827,131.858045 C72.6352536,131.892842 72.717068,131.871356 72.7580052,131.808337 C72.7917341,131.742 72.7704696,131.660752 72.7085081,131.619822 L72.5891705,131.543792 L72.5265983,131.498448 C72.5061848,131.482372 72.5498752,131.518949 72.5149249,131.489731 L72.487303,131.466355 C72.4138583,131.404251 72.3466408,131.33528 72.2863913,131.260225 C72.2587695,131.225187 72.242761,131.204686 72.2136774,131.162348 C72.1845939,131.11994 72.1627187,131.081956 72.1393718,131.040965 C72.0940295,130.959597 72.0579779,130.873252 72.0317076,130.78378 C72.0122151,130.723576 71.9490322,130.689522 71.8883522,130.706333 C71.8276122,130.723143 71.7907697,130.784886 71.8046357,130.846618 L71.8046457,130.846628 C71.8559749,131.05496 71.9484916,131.250845 72.0768096,131.422479 Z" id="Path-707" fill="#000000"></path>
                        <path d="M71.8273508,132.74723 C71.8788104,132.795647 71.958932,132.795647 72.0104016,132.74723 C72.0594236,132.696062 72.0594236,132.615165 72.0102817,132.563997 C71.8666224,132.433822 71.7384578,132.287351 71.6283956,132.127746 C71.5196121,131.964179 71.4335763,131.786567 71.3727858,131.599793 C71.3532749,131.538492 71.2904065,131.501919 71.2274781,131.515474 C71.1657685,131.5344 71.1290644,131.597782 71.1433305,131.660914 L71.1389348,131.657983 C71.2641222,132.077498 71.502349,132.454339 71.8273508,132.74723 Z" id="Path-708" fill="#000000"></path>
                        <path d="M133.365574,80.2618831 L133.374513,80.2792232 C133.383951,80.3048945 133.391771,80.3309246 133.398097,80.3575027 L133.407037,80.3994677 C133.407037,80.4081843 133.407037,80.4149575 133.407037,80.4197875 C133.408521,80.4482492 133.408521,80.4767806 133.407037,80.5052423 C133.407037,80.5139588 133.407037,80.5202438 133.407037,80.5240971 C133.407037,80.5298772 133.407037,80.5023224 133.407037,80.5240971 L133.398097,80.5661319 C133.391761,80.592162 133.383941,80.6177734 133.374513,80.6429564 C133.374513,80.6602268 133.38333,80.6226367 133.374513,80.6428967 C133.371157,80.6478196 133.368675,80.6531712 133.367068,80.6588316 C133.360611,80.6719064 133.353166,80.6844431 133.344847,80.6965413 C133.322748,80.7356562 133.288729,80.770446 133.296062,80.819656 C133.29718,80.8582227 133.316046,80.8941685 133.347339,80.9175278 C133.378622,80.9408871 133.419098,80.9491585 133.457205,80.9399105 C133.547464,80.9239755 133.594754,80.7950211 133.621451,80.7240463 C133.643428,80.6570777 133.655347,80.5872489 133.656832,80.5168123 C133.660432,80.3772844 133.61959,80.2401183 133.540009,80.1242486 C133.506987,80.0723081 133.43833,80.0544797 133.38334,80.0836788 C133.32946,80.1156085 133.311713,80.1839823 133.343494,80.2372582 L133.344837,80.2242332 C133.352281,80.2372482 133.359614,80.2488083 133.365574,80.2618831 Z" id="Path-709" fill="#000000"></path>
                        <path d="M134.328523,79.994398 C134.327065,80.0088509 134.327065,80.0234737 134.328523,80.0379866 L134.328523,80.059751 C134.328523,80.0819848 134.328523,80.0868224 134.328523,80.0742639 C134.328523,80.0554261 134.328523,80.0815153 134.328523,80.0843819 C134.329192,80.0916933 134.329192,80.0989548 134.328523,80.1062062 C134.329252,80.1202297 134.329252,80.1342532 134.328523,80.1483366 L134.328523,80.1976584 C134.33078,80.2116819 134.33078,80.2258852 134.328523,80.2397888 C134.328523,80.2252792 134.328523,80.2252792 134.328523,80.2397888 L134.328523,80.2616131 C134.328523,80.276126 134.328523,80.2920972 134.318348,80.3080683 C134.308233,80.3240395 134.302381,80.3632433 134.292206,80.3907908 L134.292206,80.3995106 L134.292206,80.406762 L134.270448,80.4503506 C134.255939,80.4764998 134.24138,80.4997325 134.225474,80.5244234 L134.216756,80.5360696 C134.20061,80.5554568 134.185552,80.5758827 134.171722,80.5970378 C134.136553,80.6597739 134.15258,80.7388407 134.209507,80.7828588 C134.266614,80.8261378 134.346817,80.8212036 134.398192,80.7712725 C134.451154,80.7171962 134.493513,80.653671 134.523069,80.5839931 C134.557319,80.5146149 134.581824,80.4408519 134.595594,80.3647116 C134.609853,80.2910684 134.614736,80.2159569 134.610162,80.1410951 C134.608275,80.1006128 134.603402,80.0603203 134.595654,80.0205671 C134.595654,80.0031277 134.588404,79.9842899 134.584011,79.9682588 C134.572008,79.939183 134.555302,79.9122348 134.534643,79.8884528 C134.501551,79.8551021 134.451574,79.8453536 134.408367,79.863702 C134.366558,79.8828494 134.339068,79.9238112 134.337181,79.9697171 L134.328523,79.9726336 C134.328523,79.9435579 134.328523,79.9871465 134.328523,79.994398 Z" id="Path-710" fill="#000000"></path>
                        <path d="M135.348713,80.097275 C135.347388,80.1812913 135.332303,80.2645156 135.304187,80.3435792 C135.293085,80.3793814 135.278603,80.4140707 135.260986,80.4471158 C135.24071,80.4862766 135.21827,80.5242844 135.193407,80.5608085 C135.170837,80.5922595 135.145253,80.6215749 135.117256,80.6482536 L135.068381,80.6934099 L135.046899,80.7123185 C135.010934,80.7429775 135.066928,80.6977511 135.029638,80.7254725 C134.995849,80.7449326 134.971233,80.7774863 134.961456,80.8156747 C134.951679,80.853863 134.957719,80.8944274 134.977866,80.9280239 C134.997539,80.9627233 135.03036,80.9876274 135.068737,80.9969915 C135.106995,81.0063556 135.147418,80.9993777 135.180486,80.9776517 C135.365845,80.8391752 135.501607,80.6432307 135.56713,80.4193944 C135.596699,80.3166498 135.611785,80.2101757 135.611656,80.10309 C135.6096,79.9853569 135.583778,79.8692078 135.535506,79.7620619 C135.506669,79.7112711 135.444754,79.6905879 135.391776,79.7139681 C135.339163,79.7366064 135.311038,79.7949867 135.325649,79.8509809 L135.324216,79.8450957 C135.343523,79.9276483 135.351728,80.0125168 135.348713,80.097275 Z" id="Path-711" fill="#000000"></path>
                        <path d="M91.0075843,65.7681988 C91.6633128,65.5954048 92.3160514,65.456011 92.9804502,65.3064393 C93.1520276,65.2672361 93.0764041,65.0160456 92.9092169,65.0479575 C92.2417079,65.1570774 91.5814593,65.3064394 90.9320211,65.4952043 C90.2775728,65.6678485 89.6338648,65.878717 89.0042075,66.1268412 C88.8733418,66.1805771 88.9199138,66.3896778 89.0653101,66.3461198 L89.0653001,66.3490163 C89.7122382,66.1558866 90.3519159,65.9409628 91.0075843,65.7681988 Z" id="Path-712" fill="#000000"></path>
                        <path d="M100.180324,63.5952345 C100.434998,63.5234653 100.690532,63.4574825 100.947105,63.3973262 L101.347937,63.3100098 C101.406106,63.2969054 101.462687,63.2852625 101.520787,63.2750613 L101.635537,63.2518156 C101.687793,63.2518156 101.68053,63.2416144 101.612311,63.2066959 L101.626826,63.0960738 L101.745902,63.0742297 L101.815589,63.195063 L101.815589,63.1775838 C101.799366,63.1128423 101.741327,63.0674423 101.674746,63.0674423 C101.608166,63.0674423 101.550056,63.1128423 101.533843,63.1775838 C101.533843,63.4686749 102.005881,63.3333056 101.873639,63.0756914 C101.806878,62.9447169 101.65152,62.9534565 101.530976,62.9767322 C101.329096,63.0145539 101.130084,63.0625769 100.931201,63.1106399 C100.133323,63.3063558 99.3500891,63.5577531 98.5872742,63.8630599 C98.4419756,63.9227258 98.5015436,64.1657939 98.6540346,64.1061281 L98.6525562,64.1061081 C99.1530745,63.912044 99.6623637,63.7417861 100.180324,63.5952345 Z" id="Path-713" fill="#000000"></path>
                        <path d="M80.1431913,36.3514924 C78.2538521,36.5608989 75.7265888,40.6834409 73.9550016,43.4769144 L72.4449898,45.8632078 C71.8636977,46.7735133 71.26928,47.7798046 71.3971686,48.8486328 C71.4727042,49.4753618 71.7924308,50.0439358 72.1397885,50.5703478 C73.3150085,52.3511581 74.8582695,53.8591042 76.6653652,54.9924698 C77.1188286,55.2832882 77.6114695,55.5435781 78.1463366,55.5610428 C78.8032242,55.5814083 79.4237531,55.2164109 79.8713684,54.7336407 C80.3190337,54.2508405 80.6227163,53.6589804 80.9410334,53.0831451 C82.2773314,50.6680636 83.9282874,48.4412035 85.850276,46.4608793" id="Path-714" fill="#0C3970"></path>
                        <path d="M78.1540432,37.39569 C77.3790088,38.1777508 76.677587,39.0295242 76.0587697,39.9402483 C75.3724906,40.9101229 74.7312694,41.9119433 74.0929086,42.9152141 C73.7207141,43.4968288 73.3479692,44.081834 72.9747945,44.6702299 C72.5807461,45.2882012 72.1663043,45.8974408 71.8115728,46.5386963 C71.4887668,47.120281 71.2212004,47.7455144 71.1819435,48.4144049 C71.1426867,49.0832554 71.3884594,49.7230203 71.7242776,50.304635 C72.3944339,51.4207761 73.2154464,52.43902 74.164151,53.3304806 C74.6393934,53.7840223 75.1440609,54.2056373 75.674973,54.592577 C76.1966735,55.0048512 76.7682428,55.3497331 77.3761382,55.6191616 C77.9763423,55.8629155 78.6539494,55.8261404 79.2242384,55.5188351 C79.8058193,55.2120198 80.2419949,54.6943752 80.5967865,54.1418457 C80.9617798,53.560231 81.2671328,52.9480608 81.614603,52.3591747 C81.9621333,51.7703187 82.3415996,51.1872445 82.729847,50.6143513 C83.5210042,49.4825274 84.3794831,48.3992615 85.3006029,47.3703861 C85.5288525,47.1130198 85.7600322,46.8571142 85.9956131,46.6055689 C86.1744141,46.4150746 85.895316,46.1330141 85.704793,46.3147469 C83.8402696,48.1969858 82.236721,50.3208971 80.9370556,52.6296329 C80.3554147,53.6474563 79.7738338,55.0564012 78.4826498,55.3094368 C77.8196348,55.4402904 77.2045385,55.0753239 76.6680055,54.7278214 C75.091562,53.7254708 73.7190636,52.4338584 72.6229335,50.9211359 C72.2550697,50.4093237 71.8740836,49.8669562 71.6850908,49.2591867 C71.4858963,48.6150607 71.5891242,47.9607032 71.8435683,47.3471327 C72.0980025,46.7335322 72.4789885,46.1635389 72.8352003,45.6022778 L74.0115545,43.7338414 C74.6105984,42.7799996 75.2053017,41.8232476 75.8305302,40.8868289 C76.434765,39.9500802 77.0971699,39.0521483 77.8138442,38.1983246 C78.3459765,37.5832238 78.9770062,36.8984104 79.7389784,36.5828636 C79.8788927,36.5259734 80.0254678,36.4868963 80.1751537,36.4665427 C80.3074367,36.4491095 80.2783817,36.2179279 80.1446285,36.2324605 L80.1416874,36.2324605 C79.3623122,36.3167957 78.694967,36.873686 78.1540432,37.39569 Z" id="Path-715" fill="#000000"></path>
                        <path d="M62.853071,31.1000291 C63.1239054,31.2919776 63.4343243,31.4201306 63.7613168,31.4750433 C63.827481,31.4748727 63.8833692,31.4256409 63.8920958,31.3597678 C63.8959043,31.2951392 63.8568596,31.23574 63.7961832,31.2138391 C63.6508499,31.1656914 63.5157125,31.1306722 63.3791058,31.0679306 C63.2425291,31.0128573 63.1112003,30.9454685 62.9867389,30.8665673 C62.7367464,30.7109629 62.5150628,30.5135442 62.3313545,30.2829028 C62.2484968,30.177835 62.0625093,30.3193875 62.1438676,30.4288315 L62.1438776,30.427346 C62.3400611,30.6907985 62.5799575,30.9183585 62.853071,31.1000291 Z" id="Path-716" fill="#000000"></path>
                        <path d="M63.3268149,32.8054392 C63.5131165,32.8054392 63.5072802,32.5377709 63.3268149,32.5145054 C63.0041957,32.4890685 62.6891949,32.4032113 62.3983201,32.2613568 C62.1065344,32.1124876 61.8445609,31.9113136 61.6255138,31.6678213 C61.5381993,31.5703564 61.3591756,31.7027446 61.4406838,31.8133083 L61.4348775,31.8162102 C61.8888288,32.4085849 62.581138,32.770566 63.3268149,32.8054392 Z" id="Path-717" fill="#000000"></path>
                        <path d="M62.2845244,33.7824565 C62.3558113,33.7975207 62.4271081,33.7569144 62.4509965,33.6876047 C62.4705036,33.6151738 62.4285718,33.5403744 62.3569165,33.5198203 C61.986183,33.4692883 61.6417577,33.298774 61.3754302,33.0339701 C61.2726573,32.9303569 61.1206536,33.0864993 61.2176512,33.192993 L61.2176512,33.1988441 C61.4989251,33.5076063 61.8744084,33.7129661 62.2845244,33.7824565 Z" id="Path-718" fill="#000000"></path>
                        <g id="Group-384" transform="translate(79.6254, 34.7591)" fill="#024547">
                            <path d="M1.74047911,17.3092048 C1.48870534,17.7758033 1.23686147,18.2424117 0.989423096,18.7119699 L0.635712266,19.3835402 C0.574536022,19.5012997 0.51342988,19.619019 0.450851887,19.7353187 C0.425920816,19.7922936 0.395733185,19.8468188 0.360589385,19.8981142 C0.338772194,19.9271916 0.28927052,19.9591791 0.284935117,19.9533496 C0.194612548,19.8167318 -0.0571612418,19.8995841 0.00541675091,20.0711088 C0.0331012532,20.1558813 0.0956191644,20.2248752 0.177200839,20.260942 C0.258842587,20.2969788 0.351978675,20.296679 0.433380127,20.2600923 C0.667742208,20.1670505 0.768147357,19.8530883 0.870024323,19.6481166 C1.16115716,19.092806 1.45234999,18.5365556 1.74342275,17.9793153 L3.45955157,14.6359229 C3.53087046,14.4905459 3.32272102,14.3713565 3.24700665,14.5109341 L3.24558496,14.5065645 L1.74047911,17.3092048 Z" id="Path-719"></path>
                            <path d="M14.1346242,16.7134972 C14.2161023,17.6670629 14.3121207,19.1729592 15.4672437,19.4477005 C15.5371835,19.4669278 15.6094351,19.4259446 15.6287389,19.3561344 C15.6480426,19.2862543 15.6069935,19.2140338 15.5371237,19.1947765 C14.5186981,18.9040475 14.475087,17.5376903 14.4008741,16.6786213 C14.2815892,15.310344 14.1147803,13.9468861 13.9004576,12.5882874 C13.4680796,9.85146284 12.8398919,7.14914346 12.0208184,4.50205612 C11.5562574,3.00485694 11.0329946,1.5285347 10.4511,0.0730497167 C10.3972917,-0.0592516586 10.1804572,-0.00255964696 10.2343356,0.132611319 L10.2343255,0.126812145 C12.3365332,5.43624465 13.6505794,11.0242381 14.1346242,16.7134972 Z" id="Path-720"></path>
                            <path d="M15.9066972,21.3506537 C15.9684339,21.3144674 15.9892781,21.2363198 15.9535538,21.1749825 C15.9157944,21.1155768 15.8374649,21.0954183 15.7749222,21.1289102 C15.7497761,21.1432737 15.7238846,21.1562703 15.6972576,21.1677908 C15.6826193,21.1677908 15.6811484,21.1677908 15.6972576,21.1677908 L15.6738343,21.1764387 L15.6386641,21.1893758 C15.5811082,21.2070281 15.5223838,21.2209657 15.4629239,21.2311588 L15.4380196,21.2311588 L15.3941148,21.2311588 C15.3653419,21.2325754 15.3364985,21.2325754 15.3077257,21.2311588 L15.2197951,21.2311588 L15.2007945,21.2311588 L15.1524065,21.2210647 C15.082862,21.201986 15.0107989,21.2419563 14.9913651,21.3103664 C14.9718708,21.3787468 15.012582,21.4497028 15.082187,21.4687716 L15.0777542,21.4702179 C15.3597506,21.5280782 15.6534838,21.4857305 15.9066972,21.3506537 Z" id="Path-721"></path>
                        </g>
                        <g id="Group-385" transform="translate(38.2053, 10.8364)" fill="#FFFFFF">
                            <path d="M34.5034024,18.4520538 C34.5633326,18.6134287 34.8172808,18.5509128 34.7661759,18.3793569 C34.629026,17.9358757 34.6024997,17.4657723 34.6888358,17.00977 C34.7832744,16.5594283 34.93433,16.1227278 35.1383882,15.7099795 C35.2040815,15.564576 35.0011178,15.4482652 34.9296613,15.5878482 L34.9296713,15.5878482 C34.4917557,16.4456377 34.145889,17.5011857 34.5034024,18.4520538 Z" id="Path-722"></path>
                            <path d="M34.6211006,19.2285013 C34.6375504,19.2291681 34.6538336,19.2251573 34.6681267,19.2169167 C34.697203,19.204735 34.7202994,19.181317 34.7322692,19.1518281 C34.7416018,19.1389496 34.7479445,19.1241106 34.7508169,19.1084157 L34.7508169,19.0751448 C34.7454937,19.0546628 34.7346612,19.0361115 34.719525,19.0216108 L34.6952326,19.0013478 C34.676381,18.9910371 34.6553825,18.9855732 34.6339624,18.9854339 L34.5755058,18.9854339 C34.5592324,18.9843292 34.5429591,18.9878324 34.5284797,18.9955654 C34.5129808,19.0000141 34.4990406,19.0090808 34.4886296,19.0216108 C34.4771402,19.0321206 34.4687683,19.0456359 34.464396,19.060674 C34.4562593,19.0752045 34.4523086,19.0917454 34.4529655,19.1084157 L34.4529655,19.1416865 C34.4588278,19.1619297 34.4696015,19.1803218 34.4842574,19.1952205 L34.5099222,19.2154836 C34.5285875,19.2264611 34.5496547,19.2324425 34.5712512,19.2328605 L34.5627028,19.2285013 L34.6211006,19.2285013 Z" id="Path-723"></path>
                            <path d="M8.04265594,5.9339819 C10.7618365,7.69778216 13.598803,9.29725945 16.6044178,10.5201292 C18.2865855,11.2107103 20.0222063,11.7631526 21.7940941,12.1719561 L21.7243176,11.910223 C21.5250828,12.1472414 21.5788656,12.420607 21.7577457,12.6532545 C21.9802357,12.9338918 22.2986671,13.0662094 22.6185989,13.2043476 C23.4008746,13.5387859 24.1991836,13.8383268 25.0105858,14.0956993 C26.63262,14.6085541 28.3005048,14.9630664 29.9908943,15.1542654 C30.9564711,15.2637978 31.9273302,15.3196194 32.8990784,15.3214798 C32.9826271,15.3214798 33.0503197,15.253766 33.0503197,15.170249 C33.0503197,15.0867319 32.9826171,15.0190277 32.8990784,15.0190277 C29.7681854,15.005745 26.6651964,14.4294871 23.7382393,13.31777 C23.4997858,13.2261613 21.5571201,12.5907316 21.9511585,12.1326981 C21.9901673,12.0927699 22.005311,12.035248 21.9910278,11.981287 C21.9767146,11.927316 21.935044,11.8848576 21.881382,11.8695145 C18.7317748,11.1541083 15.7217698,9.93996072 12.8659286,8.43789387 C9.99263358,6.92420471 7.273453,5.13132811 4.61972713,3.25848556 C3.11908019,2.19846904 1.63879795,1.10936665 0.161416247,0.0173635464 C0.040749155,-0.0713345725 -0.0726763196,0.129326418 0.0451201312,0.216574237 L0.0451001264,0.216564238 C2.66244784,2.18247586 5.29584932,4.14256597 8.04265594,5.9339819 Z" id="Path-724"></path>
                            <path d="M34.2662106,15.7909833 C34.3143522,15.783057 34.3536934,15.7491012 34.3677059,15.7034224 C34.3816583,15.6577435 34.3678863,15.6082777 34.3321034,15.5758289 C34.2963805,15.5433801 34.2448009,15.5335848 34.1991651,15.5505626 L33.71831,15.6714922 C33.6562762,15.690026 33.6188995,15.7517531 33.6323607,15.8137346 C33.6513848,15.8778102 33.7191119,15.9155628 33.7853655,15.8990937 L33.7853555,15.9062274 L34.2662106,15.7909833 Z" id="Path-725"></path>
                        </g>
                        <g id="Group-386" fill="#024547">
                            <path d="M86.1038084,89.816537 C86.1672154,89.8096375 86.2153554,89.7560512 86.2153554,89.6922157 C86.2153554,89.6284402 86.1672053,89.574794 86.1037483,89.5678944 C85.3600008,89.5849232 84.6216323,89.6992952 83.9076087,89.9080806 C83.847741,89.9276092 83.8138779,89.9906548 83.8305945,90.0513205 C83.8473111,90.1119863 83.9087685,90.1487837 83.9700959,90.1348746 L83.9700859,90.1348746 C84.6642835,89.9354886 85.3816665,89.8284362 86.1038084,89.816537 Z" id="Path-726"></path>
                            <path d="M86.1721128,90.9940767 C86.3178512,90.9009783 86.1808638,90.6695836 86.0380625,90.7656144 C85.6843069,91.0012227 85.2885911,91.1666518 84.872256,91.2530245 C84.8091151,91.2763642 84.774362,91.3440411 84.7921646,91.4087956 C84.8100273,91.4736101 84.8745114,91.5140442 84.9407096,91.5018339 L84.9436567,91.5018239 C85.3819643,91.412819 85.7990311,91.2404339 86.1721128,90.9940767 Z" id="Path-727"></path>
                            <path d="M105.910703,80.516655 C105.890245,80.5813272 105.916764,80.6515841 105.974758,80.6864711 C106.032812,80.7213581 106.107101,80.7115269 106.154319,80.6628844 C106.393099,80.1414515 106.882278,79.779581 107.449609,79.7047758 C107.517888,79.7024413 107.572761,79.6474694 107.575029,79.5789331 C107.574236,79.510085 107.518319,79.45462 107.449549,79.45462 L107.449549,79.4516818 C106.786748,79.5138383 106.203855,79.9172874 105.910703,80.516655 Z" id="Path-728"></path>
                            <path d="M106.292033,78.7949187 C106.359271,78.7751639 106.398639,78.7054257 106.380782,78.6375218 C106.361715,78.5696779 106.291482,78.5299779 106.223573,78.5487003 C105.618078,78.7802454 105.173149,79.3058472 105.0443,79.9416289 C105.029939,80.0043913 105.066002,80.0677649 105.127312,80.0873493 C105.190274,80.1033155 105.254507,80.0666123 105.272844,80.0042709 L105.272844,80.0057343 C105.384397,79.4548051 105.768438,78.9985103 106.292033,78.7949187 Z" id="Path-729"></path>
                            <path d="M6.57520151,35.5005307 C7.76599026,34.646102 9.11816883,33.8672376 10.544507,33.4923537 C11.2031493,33.3194349 11.9781061,33.2366138 12.593133,33.5926166 C13.2721378,33.9864116 13.477144,34.8103047 13.5585642,35.5354042 C13.733096,37.1175212 13.4077053,38.7145412 12.6280279,40.1024694 C12.2645325,40.7476465 11.7832819,41.4843602 11.0635719,41.7662678 C10.5226943,41.9784181 9.69976196,41.8244107 9.53546143,41.1850309 C9.42204726,40.7491057 9.66195683,40.2913803 9.87277317,39.919385 C10.0574262,39.5938878 10.2537111,39.2742083 10.4543562,38.9603357 C10.8760089,38.3094314 11.3357759,37.6839849 11.8312578,37.0873151 C12.8121403,35.9055901 13.9259403,34.8407204 15.1506433,33.9137557 C15.7539587,33.4537017 16.3852168,33.0315101 17.0407887,32.6495495 C17.6776182,32.2833914 18.4627568,31.9229906 19.2217216,32.047962 C19.9160984,32.1715039 20.432283,32.759178 20.4648571,33.4632874 C20.5230144,34.1782216 20.1638801,34.8204701 19.6230125,35.2665806 C19.346318,35.491455 19.0350184,35.6700811 18.7011967,35.7955022 L18.8553162,36.0585284 C20.7515731,33.7784393 23.2472351,32.0728802 26.0611267,31.1339911 C26.8487951,30.8683359 27.6563457,30.665701 28.4761581,30.5280457 C28.6535403,30.49751 28.5779306,30.227257 28.4005585,30.2562933 C25.4375384,30.7433646 22.668643,32.0450033 20.40378,34.0154579 C19.7630699,34.5741555 19.1684153,35.1835194 18.6255875,35.8376322 C18.5368964,35.9451817 18.6168666,36.1631296 18.779707,36.1006589 C19.4892356,35.8289365 20.1522377,35.3595865 20.5171833,34.6766472 C20.8530553,34.0533399 20.8687377,33.3067508 20.5593491,32.6698999 C20.2104055,31.9767755 19.4630712,31.6527376 18.7099171,31.7196062 C17.8855241,31.7951607 17.1381907,32.2049482 16.4490147,32.6350362 C13.5917077,34.4140508 11.2278026,36.8824613 9.57470608,39.8133049 C9.20830029,40.4730251 8.95385915,41.3536015 9.66339779,41.8854218 C10.2449805,42.321377 11.0417495,42.228371 11.6160612,41.8287487 C12.2776139,41.368115 12.7399714,40.6227155 13.0932856,39.9135685 C13.4786037,39.1399118 13.734496,38.3083919 13.8508005,37.452044 C13.9702554,36.6310796 13.9496129,35.795842 13.7897329,34.9817643 C13.6312531,34.2189125 13.2430449,33.508336 12.4811697,33.2090065 C11.7919936,32.9372841 10.9981339,33.0506011 10.3002367,33.2554948 C9.52075928,33.4998001 8.76925594,33.825627 8.05823708,34.2276382 C5.13723207,35.8260076 2.86759818,38.3674746 0.800079942,40.9249334 C0.541277617,41.2446033 0.283925481,41.5671816 0.0294836834,41.88978 C-0.0693886727,42.013292 0.105093136,42.1905988 0.203955486,42.0655975 L0.211226389,42.0598001 C2.10137253,39.6825266 4.08602047,37.2849127 6.57520151,35.5005307 Z" id="Path-730"></path>
                            <path d="M11.2963362,22.3629866 C11.8057973,22.0020928 12.3244725,21.6528308 12.8523421,21.3152205 L12.6634703,21.1696838 C12.3490571,22.4851898 11.723159,23.7055798 10.8386726,24.7277601 C10.7994772,24.7799026 10.7997569,24.8518152 10.8393321,24.9036574 C10.8789173,24.9555097 10.9481339,24.974619 11.008656,24.9503946 C12.8334539,23.883219 14.6553538,22.8131403 16.4743452,21.7401388 L16.2607689,21.6178956 C16.1639095,22.3765503 16.0646313,23.135235 15.962925,23.8938897 C15.9648737,23.9369431 15.9857804,23.9769233 16.019989,24.0030396 C16.0542076,24.0291759 16.0982307,24.0387657 16.1401844,24.0292361 C16.7264374,23.8092844 17.2632408,23.4749074 17.7194452,23.0454845 C17.8487543,22.9232413 17.6555261,22.7297062 17.526227,22.8504779 C17.1037414,23.2426232 16.6107093,23.5508039 16.0733557,23.7585633 L16.2506046,23.8938897 C16.347464,23.134254 16.4482014,22.3755893 16.5528059,21.6178956 C16.5673268,21.5058427 16.4220477,21.444721 16.3392296,21.4941909 C14.5163605,22.5613665 12.6944711,23.6319456 10.8735309,24.7059281 L11.0449734,24.9271111 C11.9540843,23.8648704 12.5957628,22.5998553 12.9162722,21.2380728 C12.9280348,21.1879723 12.9094365,21.1356395 12.868722,21.1042679 C12.8279975,21.0728963 12.772722,21.0683117 12.7274103,21.0925361 C10.857051,22.3040372 9.08883762,23.6668006 7.44042945,25.167213 C6.96969411,25.5969962 6.50962211,26.0364993 6.06020341,26.485682 C6.01607104,26.5294762 6.01574124,26.6008178 6.05947387,26.6450224 C6.1032065,26.6892269 6.1744419,26.6895475 6.21856429,26.6457534 L6.21128884,26.6428604 C7.78630295,25.0790142 9.48704863,23.6475613 11.2963362,22.3629866 Z" id="Path-731"></path>
                            <path d="M24.968418,21.2536271 C24.9222907,21.1801937 24.826903,21.1553967 24.7508223,21.1970708 C24.6760786,21.2422261 24.6509944,21.3387408 24.6942482,21.4145781 L25.051104,21.9540072 C25.097391,22.0289966 25.1943751,22.0545218 25.2715933,22.0120098 C25.3473846,21.9662261 25.3725387,21.8682053 25.3281574,21.79159 L25.3281474,21.7915999 L24.968418,21.2536271 Z" id="Path-732"></path>
                            <path d="M12.2392454,14.9950112 C12.3035518,14.9880572 12.3523171,14.933639 12.3523171,14.8688249 C12.3523171,14.8039907 12.3035518,14.7495726 12.2392454,14.7426286 C11.4846722,14.7235627 10.7536706,14.4753043 10.1429906,14.0307273 C10.0148886,13.9388295 9.89260442,14.151826 10.0192545,14.2437337 L10.0192445,14.2437237 C10.6665737,14.7130263 11.440523,14.9749318 12.2392454,14.9950112 Z" id="Path-733"></path>
                            <path d="M14.6567626,6.31234264 C15.5520557,7.1529513 16.5331072,7.94264048 17.6551428,8.45747566 C18.6725349,8.92577317 19.8585144,9.21663344 20.9689131,8.92141151 C21.9616015,8.65818173 22.9876911,7.80739939 22.9470015,6.6861043 C22.9352444,6.21527582 22.6716019,5.78707358 22.2566271,5.56481934 C21.878233,5.38896267 21.4485616,5.35791089 21.0488529,5.47756624 C20.6211313,5.59044904 20.2432068,5.84272477 19.9747849,6.19454813 C19.6390499,6.64975068 19.5460342,7.2663846 19.6012602,7.81758356 C19.7218896,9.04357827 20.4558635,10.1663238 21.2712269,11.0520096 C22.0978974,11.968347 23.1320748,12.6730339 24.2870522,13.1069784 C24.8902093,13.3236706 25.5863923,13.4298307 26.206995,13.2189608 C26.7215146,13.0463753 27.1421381,12.6691425 27.3697205,12.1762056 C27.474084,11.9387256 27.512265,11.6773967 27.4801731,11.4199591 C27.4720352,11.3316656 27.3980138,11.2641201 27.3094063,11.2641201 C27.2207987,11.2641201 27.1467778,11.3316656 27.1386299,11.4199591 C27.0964806,12.3550835 27.6502302,13.1971431 28.3754864,13.7468815 C29.2126442,14.3766102 30.2649174,14.6092976 31.2663136,14.8259897 C31.4639835,14.8681657 31.5482825,14.5671217 31.3506126,14.5205841 C30.4335051,14.3053425 29.4728085,14.084289 28.6836185,13.5505466 C27.9845157,13.0735258 27.4438619,12.2939999 27.4801826,11.4243202 L27.1386299,11.4243202 C27.1860679,11.9204083 26.9549569,12.4019515 26.5383625,12.675045 C26.0645626,13.0139035 25.4643042,13.05753 24.9061956,12.9426365 C23.7986963,12.7143099 22.749332,12.0205866 21.9310694,11.2599783 C21.1128067,10.49936 20.4020873,9.57004809 20.0663424,8.51420784 C19.7654886,7.57326114 19.829442,6.39088267 20.8119431,5.89641523 C21.5139351,5.54592237 22.5560412,5.70880407 22.6417894,6.63811636 C22.7406144,7.69832826 21.6883507,8.4691204 20.7697935,8.67417812 C19.7349658,8.90832688 18.6318356,8.61309519 17.6929336,8.17097759 C16.6755514,7.69104567 15.7831572,6.98860943 14.9561667,6.23235273 C13.2091695,4.65004289 11.8022761,2.730335 10.4971169,0.777174592 C10.3343381,0.534302533 10.1744586,0.289979924 10.0131295,0.0500089563 C9.93609902,-0.0692462511 9.74425764,0.0412856489 9.82273775,0.161991403 L9.82272775,0.157629758 C11.2427079,2.3391166 12.7455269,4.52061343 14.6567626,6.31234264 Z" id="Path-734"></path>
                        </g>
                        <path d="M64.7637016,38.0851662 C65.8177882,36.1984112 67.7766597,34.9944511 69.936749,34.9055985 C70.1707117,34.8983449 70.4351804,34.9172184 70.5906191,35.0929652 C70.6754202,35.2052972 70.7303847,35.3372022 70.7505155,35.4764508 C70.8231122,35.8008479 70.8832049,36.1271935 70.9306731,36.4554273 C70.9583104,36.6544438 70.9713641,36.8911774 70.8260407,37.0277383 C70.6342387,37.2121775 70.3246807,37.1075986 70.06461,37.0538654 C69.3641913,36.9086021 68.6580253,37.2369058 68.041858,37.6000192 C67.3918261,37.9818563 66.7724202,38.41358 66.1891878,38.8912835 C65.9770051,39.0495955 65.7915401,39.2408286 65.6398797,39.4577794 C65.4045177,39.825259 65.3608976,40.2798725 65.3216656,40.7141938 C65.0819056,40.696779 64.9903376,40.3975399 64.9583723,40.1578889 L64.6939036,38.1563044" id="Path-735" fill="#000000"></path>
                        <path d="M66.8621035,36.0727049 C67.6702513,35.539223 68.5949927,35.2087711 69.5578089,35.1093082 C69.7934949,35.0692567 70.034179,35.0692567 70.269865,35.1093082 C70.5416067,35.180642 70.560519,35.4614825 70.615737,35.6986979 C70.6902872,35.9989085 70.7412971,36.3044546 70.7683263,36.6126335 C70.7869988,36.7146991 70.7628388,36.819998 70.7014632,36.9036746 C70.6084803,36.9924464 70.438448,36.9545974 70.328012,36.9313233 C70.0654167,36.8658255 69.7945944,36.8397986 69.5243721,36.8541834 C69.2506212,36.8839642 68.9824782,36.9525853 68.7279997,37.0579143 C68.1973312,37.2895639 67.6918527,37.5753295 67.219631,37.9106965 C66.6978689,38.2599979 66.131135,38.6383794 65.7010064,39.0996966 C65.2708179,39.5610239 65.1967474,40.131494 65.1444682,40.7237868 L65.3696585,40.5520692 C65.2098122,40.5273236 65.1720473,40.3497699 65.1444682,40.2115369 C65.1008456,39.984492 65.0819332,39.7502097 65.0514253,39.5217333 C64.9904097,39.0560415 64.9540542,38.5772461 64.8479564,38.1188219 C64.8266649,38.0417421 64.7518048,37.9922908 64.6726763,38.0029218 C64.5935479,38.0135528 64.5343615,38.0810628 64.5340616,38.1610456 C64.5544435,38.7431578 64.6707271,39.3354502 64.7477264,39.916131 C64.7942179,40.2653723 64.829114,40.8271037 65.2752261,40.8955045 C65.3286148,40.9087582 65.3851023,40.8970659 65.4289148,40.8636713 C65.4727174,40.8303068 65.4990169,40.7788638 65.5004764,40.7237868 C65.5146307,40.4304233 65.5633813,40.1397827 65.6458085,39.8579011 C65.7481277,39.5846984 65.9217584,39.3439695 66.148598,39.1608 C66.6278969,38.7474723 67.1379536,38.3714132 67.6744797,38.035886 C68.1990506,37.6996882 68.7585776,37.3475239 69.3790603,37.2310934 C69.6725833,37.1907417 69.9711142,37.207509 70.2582297,37.2805846 C70.4951353,37.3256712 70.7639482,37.3387848 70.9499741,37.1554551 C71.100544,36.9760095 71.16052,36.7372624 71.112689,36.507845 C71.0749241,36.1803863 71.0124488,35.854399 70.9427166,35.5328063 C70.8918369,35.2897548 70.8337505,35.0409074 70.6230245,34.8851963 C70.4177863,34.7559426 70.1753927,34.6990938 69.9342089,34.7236492 C68.9036797,34.7600368 67.8984004,35.0525995 67.008925,35.57499 C66.0294554,36.1425672 65.1401,36.993908 64.6605612,38.0315115 C64.6343216,38.0862882 64.6545836,38.1520861 64.7071126,38.1825776 C64.7595817,38.2130391 64.826635,38.1979736 64.8611012,38.1479318 L64.8639401,38.1494033 C65.3755761,37.3232286 66.0567045,36.6153764 66.8621035,36.0727049 Z" id="Path-736" fill="#000000"></path>
                        <path d="M65.3362748,39.8004999 C65.0641727,38.8673245 64.9088173,37.9041062 64.8737403,36.9328279 C64.8510193,36.7060885 64.8783525,36.4770918 64.9537391,36.2620279 C65.0248836,36.1106651 65.1235015,35.9738145 65.2446503,35.8583573 C65.7098461,35.37931 66.2886769,35.0251882 66.9274769,34.8289311 C67.0353792,34.7895797 67.1502451,34.7727905 67.2649207,34.7795521 C67.4759631,34.8261245 67.6560706,34.9624359 67.7579601,35.1527204 C68.0241393,35.563622 68.1100009,36.0601976 68.1754327,36.5436994 C68.229719,36.9308803 68.2738705,37.3152047 68.3077869,37.6966028 C68.3536792,37.9555325 68.3259556,38.2221027 68.227788,38.4661307 C68.1280396,38.6366398 67.9895124,38.7813807 67.8234518,38.888638 C67.2519444,39.3132227 66.6084722,39.6314292 65.92388,39.8280859 C65.847703,39.8564308 65.7650829,39.8629826 65.6853642,39.8469524 C65.6028341,39.8281757 65.5509289,39.7465165 65.5690077,39.6640086" id="Path-737" fill="#65D5C9"></path>
                        <path d="M65.0502026,37.1371069 C65.034199,36.9396121 65.0371315,36.7409875 65.05891,36.5440127 C65.0985238,36.3412983 65.2002006,36.1558925 65.3499283,36.0134435 C65.7402112,35.6071647 66.2150763,35.291579 66.7409449,35.0889246 C66.9257025,35.01914 67.1658074,34.9043088 67.3549287,35.0104106 C67.6692269,35.1862971 67.8001985,35.6631003 67.8743818,35.9872954 C67.9597846,36.3936641 68.0205365,36.8048325 68.056267,37.2185507 C68.0955205,37.5732334 68.2163136,38.0616558 68.0373309,38.3916504 C67.9146062,38.5712666 67.7523577,38.7204851 67.5629861,38.8277469 C67.3828725,38.9525573 67.195853,39.0670487 67.0028484,39.1708307 C66.8057803,39.2791924 66.602727,39.3762249 66.3946295,39.4615483 C66.3378811,39.4847965 65.7413021,39.6650527 65.7413021,39.6636229 C65.7602383,39.4586486 65.4081279,39.4077822 65.3775619,39.6141863 C65.3563638,39.7113788 65.3773216,39.8129914 65.4352611,39.8938851 C65.4932305,39.9747789 65.5827269,40.0273847 65.6816913,40.0386539 C65.9042912,40.0750011 66.1749121,39.9514403 66.3800671,39.877316 C66.8489471,39.7090889 67.2951578,39.4835166 67.7085004,39.205678 C68.1115542,38.932419 68.4636646,38.6416912 68.5058706,38.124191 C68.5143278,37.890929 68.501687,37.657397 68.4679983,37.4264348 C68.4398943,37.1541157 68.407857,36.8827766 68.3719964,36.6123774 C68.2716008,35.8651849 68.0198858,34.341772 66.9329586,34.6194307 C66.4651495,34.7482308 66.0254746,34.9631843 65.6365628,35.2532319 C65.2829912,35.5134019 64.8784961,35.8346672 64.7373257,36.2707636 C64.6678364,36.5561717 64.6535142,36.8521989 64.6951497,37.1429765 C64.7155271,37.4336942 64.7460632,37.7244117 64.7897104,38.0151594 C64.8874238,38.6287321 65.0289245,39.2345155 65.2131416,39.8278899 C65.2321078,39.8905351 65.2975936,39.9266723 65.3607575,39.9093037 C65.4239214,39.891945 65.4617036,39.8274302 65.4459402,39.7639251 L65.4459602,39.7682848 C65.2155737,38.9088509 65.0828004,38.0262585 65.0502026,37.1371069 Z" id="Path-738" fill="#000000"></path>
                        <path d="M71.622246,50.3171633 C71.8856047,49.8552046 72.1897503,49.4193776 72.4662108,48.9661128 C72.5869603,48.7685301 72.293024,48.6101603 72.1620753,48.788866 C71.852835,49.231918 71.5774954,49.6976241 71.3385189,50.1820673 C71.0911347,50.655678 70.8699843,51.1423695 70.6691522,51.6348271 C70.6182361,51.7612392 70.83214,51.8512867 70.8903327,51.7278426 L70.8946866,51.7307305 C71.1187997,51.2464772 71.3612995,50.7752748 71.622246,50.3171633 Z" id="Path-739" fill="#000000"></path>
                        <g id="Group-387" transform="translate(17.6022, 16.3659)" fill="#024547">
                            <path d="M5.92979336,0.271722674 L5.86291361,0.0216978192 C4.80262482,0.553734362 3.74378598,1.08673078 2.68640709,1.62068713 C2.62323716,1.66113306 2.60119719,1.74297477 2.63553715,1.80966806 C2.70531707,1.96666229 2.87831688,1.99572936 3.03531671,1.9942795 C3.31299639,1.9942795 3.59212613,1.96958205 3.86980581,1.95648336 L5.57361364,1.87798119 C6.71047235,1.82564645 7.84732163,1.77089195 8.98416042,1.7137177 C9.15426023,1.70500857 9.15571024,1.44189511 8.98416042,1.44915438 C7.94520152,1.49276999 6.90526259,1.53879534 5.8643837,1.58725047 L4.34517527,1.66283286 L3.54704618,1.70063901 L3.18359661,1.71806729 C3.11236669,1.71806729 2.9175569,1.76168296 2.87976694,1.67593157 L2.828897,1.86491251 C3.88722587,1.32996631 4.94510448,0.793580264 6.00247335,0.255734295 C6.0533333,0.224197466 6.07739354,0.162973616 6.06161356,0.105239421 C6.04583358,0.0475252233 5.99398348,0.00702929369 5.93414354,0.0057294243 C3.9789257,-0.00802919315 2.02528772,0.119727969 0.088519901,0.388031006 C-0.0452399552,0.406919107 -0.0147099942,0.643865304 0.120499864,0.624957204 L0.114689872,0.622047484 C2.0420578,0.365113318 3.98550546,0.248035055 5.92979336,0.271722674 Z" id="Path-740"></path>
                            <path d="M10.6190141,3.89380664 C10.6190141,3.82880381 10.5711724,3.77424408 10.5080776,3.76728201 C10.4449827,3.77425414 10.397141,3.82881387 10.397141,3.89380664 C10.397141,3.95880947 10.4449827,4.01336919 10.5080776,4.02033126 C10.5711724,4.01335913 10.6190141,3.95879941 10.6190141,3.89380664 Z" id="Path-741"></path>
                            <path d="M5.24603033,8.63044813 L5.05113888,8.55198926 C5.19703984,9.0470629 5.17712162,9.57622305 4.9944253,10.0589416 C4.86208001,10.413521 4.69336939,10.8102636 4.97550726,11.1372139 C5.022767,11.1861945 5.09768825,11.1958407 5.15585256,11.1604748 C6.4240824,10.3679991 7.68453908,9.56631699 8.93725252,8.75541857 C9.09286754,8.65367892 8.95034818,8.40664691 8.79182196,8.50546771 C7.51971042,9.29310536 6.25586224,10.0923585 5.00022769,10.9032469 L5.180583,10.9265075 C5.04386587,10.7710091 5.1224087,10.5399409 5.180583,10.3655601 C5.25735508,10.1696078 5.3205215,9.9685874 5.36964202,9.76394856 C5.45260669,9.33709785 5.42911679,8.89640267 5.30130339,8.4807675 C5.29029879,8.44111323 5.26142681,8.40884603 5.22324085,8.39346213 C5.1850449,8.37808823 5.14186674,8.38136693 5.10640192,8.40230862 C4.05248165,9.15505008 3.02664306,9.94608641 2.02892621,10.7753775 C1.90967639,10.8756477 2.08128809,11.0456704 2.20054792,10.9468496 L2.20637035,10.9468496 C3.18952113,10.1359712 4.20274448,9.36384729 5.24603033,8.63044813 Z" id="Path-742"></path>
                        </g>
                    </g>
                </g>
            </g>
        </g>
    </g>
</svg>