<?xml version="1.0" encoding="UTF-8"?>
<svg width="105px" height="101px" viewBox="0 0 105 101" version="1.1" xmlns="http://www.w3.org/2000/svg" xmlns:xlink="http://www.w3.org/1999/xlink">
    <title>Group 19</title>
    <g id="Sitio-web-/-dashboard" stroke="none" stroke-width="1" fill="none" fill-rule="evenodd">
        <g id="Home---2024" transform="translate(-1179, -1825)">
            <g id="Group-19" transform="translate(1179.8067, 1825.9628)">
                <path d="M64.7745867,31.5881186 C63.8168889,30.1758101 62.9711334,28.6907674 62.2450066,27.1465158 C62.0277683,26.6874489 61.8193254,26.2109979 61.7729592,25.7055874 C61.7265931,25.2001868 61.8641624,24.6498724 62.2464659,24.3153312 C61.7309808,23.9344565 61.6875531,23.1451869 61.9843306,22.5659226 C62.281178,21.9866583 62.8169128,21.5999857 63.3367256,21.2249089 C63.5522548,21.0427535 63.8070039,20.9128897 64.0809731,20.8454936 C64.3590302,20.7991501 64.6847927,20.9193474 64.7803836,21.1828938 C64.9657083,20.9338022 65.3407056,20.8932667 65.6274183,21.010565 C65.9066947,21.1468966 66.1512589,21.3450062 66.3426905,21.5898592 C67.6283497,23.0269688 68.7840059,24.5753689 69.7960558,26.2167859" id="Path-998" fill="#000000"></path>
                <path d="M62.8204458,27.9794469 C62.5206867,27.3811656 62.184691,26.7684256 62.0138642,26.1179986 C61.8690179,25.5385758 61.8994666,24.8678905 62.3701124,24.4420152 C62.4385671,24.3730808 62.4385671,24.2617597 62.3701124,24.1928253 C62.0858576,23.9559646 61.9408912,23.5911944 61.984875,23.2237244 C62.0304481,22.810828 62.2183686,22.4266693 62.5163583,22.1372929 C62.8379593,21.8142892 63.1933577,21.5267726 63.576386,21.2797627 C63.8660688,21.0841886 64.4264713,20.8191102 64.621959,21.2797327 C64.6506384,21.3293187 64.7007299,21.3627359 64.7574689,21.3701153 C64.8142679,21.3775047 64.8712569,21.3579963 64.911582,21.3174196 C65.3200009,20.8205401 65.9253068,21.4072223 66.2149296,21.7273562 C66.6368335,22.196708 67.0442726,22.6795486 67.4371972,23.1759381 C67.8301218,23.6723277 68.2115108,24.183176 68.581244,24.7085233 C68.9490879,25.2343605 69.2821548,25.7862556 69.6499987,26.3120928 C69.7022293,26.3907864 69.8068006,26.4150243 69.8883104,26.3673282 C69.9697603,26.3196321 69.9998986,26.2166104 69.9569445,26.1324873 C69.6831158,25.6511765 69.3833669,25.1849945 69.0591469,24.7360511 C68.7434037,24.2811881 68.4166246,23.8340847 68.0787396,23.3946705 C67.7408547,22.9552563 67.3894148,22.5206915 67.0244398,22.0909466 C66.6986304,21.7085277 66.3727611,21.2652738 65.9528165,20.9798871 C65.5661796,20.7176985 64.9767378,20.6626529 64.6494689,21.0581007 L64.9390917,21.0957877 C64.7204226,20.5815496 64.0702134,20.5931086 63.6502588,20.8060513 C63.390225,20.9532293 63.1435461,21.1228855 62.9131014,21.31306 C62.6880847,21.4786065 62.4764331,21.6616916 62.2802756,21.8606254 C61.906574,22.2225659 61.67399,22.7058365 61.6242684,23.2237344 C61.5784454,23.7026354 61.7791811,24.1720172 62.1571512,24.4695129 L62.1209746,24.1928353 C61.3230499,24.9316351 61.5880318,26.0875809 61.9761282,26.9581699 C62.4514123,27.9983652 62.9882036,29.009333 63.5836233,29.9857235 C63.9234675,30.5535473 64.2811152,31.1107822 64.6566563,31.6573677 C64.7508014,31.7949865 64.9752683,31.666067 64.8811831,31.5255384 L64.8855414,31.525548 C64.1241032,30.3876407 63.4344186,29.2032872 62.8204458,27.9794469 Z" id="Path-999" fill="#000000"></path>
                <path d="M32.4438236,43.1288463 L32.4438236,98.6978149 L31.6312616,98.6978149 L31.6312616,43.1288463 L32.4438236,43.1288463 Z" id="Path-1001" stroke="#000000" stroke-width="1.54999995" fill="#000000" stroke-dasharray="0,0"></path>
                <path d="M55.18585,43.1288463 L55.18585,98.6978149 L54.373288,98.6978149 L54.373288,43.1288463 L55.18585,43.1288463 Z" id="Path-1002" stroke="#000000" stroke-width="1.54999995" fill="#000000" stroke-dasharray="0,0"></path>
                <path d="M58.703289,41.3376557 L58.703289,43.3666403 L0.334668568,43.3666403 L0.334668568,41.3376557 L58.703289,41.3376557 Z" id="Path-1003" fill="#000000"></path>
                <path d="M2.70431232,43.0236707 C1.95242167,43.0236707 1.18460101,42.9758653 0.434170365,43.0236707 L0.335660279,43.0236707 L0.673210561,43.3608754 L0.673210561,41.3432908 L0.335660279,41.6804957 L56.3235283,41.6804957 C57.073929,41.6804957 57.8432077,41.7268424 58.5921783,41.6804957 L58.6921616,41.6804957 L58.3517113,41.3432908 L58.3517113,43.3608754 C58.3517113,43.7950996 59.0267906,43.7950996 59.0267906,43.3608754 L59.0267906,41.3432908 C59.0237106,41.1583436 58.8743902,41.0091331 58.68927,41.006016 L2.70430231,41.006016 C1.94807166,41.006016 1.190411,40.9915595 0.434190363,41.006016 L0.335680276,41.006016 C0.150010124,41.0083338 0,41.1577941 -0.00331000285,41.3432908 L-0.00331000285,43.3608754 C0,43.546372 0.150010124,43.6957725 0.335680276,43.6980803 L56.3235168,43.6980803 C57.0797475,43.6980803 57.8374406,43.7125967 58.5922012,43.6980803 L58.6921501,43.6980803 C59.1296805,43.6980803 59.1311097,43.0236607 58.6950493,43.0236607 L58.6950188,43.0236707 L2.70431232,43.0236707 Z" id="Path-1004" fill="#000000"></path>
                <path d="M39.2031898,39.7152216 L39.2031898,41.7341619 L6.98657886,41.7341619 L6.98657886,39.7152216 L39.2031898,39.7152216 Z" id="Path-1005" fill="#000000"></path>
                <path d="M8.29716074,41.4032466 C7.88138199,41.4032466 7.45839363,41.381498 7.04408479,41.4032466 L6.9890376,41.4032466 L7.32657033,41.7410555 L7.32657033,39.7126515 L6.9890376,40.0504603 L37.892519,40.0504603 C38.3082678,40.0504603 38.7298163,40.0707376 39.145565,40.0504603 L39.2006111,40.0504603 L38.8616409,39.7126515 L38.8616409,41.7338493 C38.8616409,42.1687911 39.5381432,42.1687911 39.5381432,41.7338493 L39.5381432,39.7126515 C39.5358233,39.5267626 39.3862616,39.3764841 39.2006111,39.3733114 L8.29713082,39.3733114 C7.87994212,39.3733114 7.46126348,39.364634 7.04408479,39.3733114 L6.9890376,39.3733114 C6.80392706,39.3764241 6.65461467,39.5259118 6.65150483,39.7111902 L6.65150483,41.732388 C6.65385471,41.9179667 6.80359708,42.0678849 6.9890376,42.0701969 L37.892519,42.0701969 C38.3097377,42.0701969 38.7283563,42.0789343 39.145565,42.0701969 L39.2006111,42.0701969 C39.6352189,42.0716581 39.6352189,41.4032466 39.2006111,41.4032466 L8.29716074,41.4032466 Z" id="Path-1006" fill="#000000"></path>
                <path d="M40.9118178,40.5596852 C40.4270009,40.3370209 39.9939354,40.0153369 39.6403017,39.6152322 C39.4650743,39.4135976 39.2811799,39.1640954 38.9900839,39.1481429 C38.7546379,39.1218558 38.5366358,39.2755828 38.4817854,39.5064386 C38.4470078,39.7226238 38.7786794,39.8169369 38.8148564,39.5978777 C38.8365787,39.4629172 38.9929528,39.4832759 39.0842302,39.5384037 C39.1911221,39.6193881 39.2841089,39.7173664 39.359402,39.8285433 C39.5254227,40.0241294 39.7102268,40.2029718 39.9111451,40.3623768 C40.3141412,40.6755589 40.7718578,40.9107608 41.2608232,41.0558556 C42.2398437,41.3533355 43.294827,41.2699077 44.2151484,40.8222458 C44.3512699,40.7555617 44.2310727,40.5625993 44.0978203,40.6220733 L44.0978103,40.6264294 C43.0730861,41.0506082 41.9179885,41.026404 40.9118178,40.5596852 Z" id="Path-1007" fill="#000000"></path>
                <path d="M39.4372642,37.5238605 C39.5173147,37.5238605 39.5822194,37.4591303 39.5822194,37.379295 C39.5822194,37.2995196 39.5173147,37.2347893 39.4372642,37.2347893 C38.7294148,37.3169393 38.0825586,37.6742625 37.6373191,38.2291886 C37.5489055,38.3419078 37.7010634,38.5038232 37.7996109,38.3910441 L37.802482,38.3910542 C38.220301,37.9093187 38.8031729,37.600164 39.4372642,37.5238605 Z" id="Path-1008" fill="#000000"></path>
                <path d="M40.0173736,36.4632553 C40.0864164,36.4803103 40.1568619,36.4411494 40.1785135,36.373786 C40.1962476,36.3046493 40.15589,36.2338788 40.0870275,36.2135961 C39.516901,36.1284703 38.9388792,36.1081278 38.3641137,36.152977 C38.2189946,36.164533 38.2189946,36.3867666 38.3641137,36.379564 L38.3641037,36.379564 C38.9166164,36.3539615 39.4703615,36.3819947 40.0173736,36.4632553 Z" id="Path-1009" fill="#000000"></path>
                <path d="M40.5507517,35.3865473 C40.6178875,35.4041124 40.6867332,35.3649694 40.705772,35.2985429 C40.722681,35.2314493 40.6838035,35.1629517 40.6173975,35.1427479 C40.2116026,35.0044183 39.7872487,34.9276062 39.3585651,34.9148108 C39.2136741,34.9148108 39.2136741,35.1355486 39.3585651,35.1427479 C39.76601,35.1636885 40.1679653,35.2458578 40.5507517,35.3865473 Z" id="Path-1010" fill="#000000"></path>
                <path d="M43.033941,35.3490615 C43.1787744,35.4941143 43.4004443,35.2678392 43.2555509,35.1271318 C42.4054295,34.2895561 41.3213688,33.730141 40.1468022,33.5228497 C40.0019088,33.4996304 39.9410615,33.7099756 40.085955,33.7433376 C41.1994943,33.9912701 42.221048,34.5476614 43.033941,35.3490615 Z" id="Path-1011" fill="#000000"></path>
                <path d="M44.3735515,35.273448 C44.49381,35.4975408 44.5904927,35.7335985 44.6620066,35.9778097 C44.7289707,36.2386277 44.7795871,36.5033875 44.8134375,36.7705882 C44.8451573,36.956085 45.1379931,36.9155183 45.1365296,36.7256496 C45.1365296,36.1676784 44.899965,35.5661993 44.6245123,35.0966448 C44.3392729,34.6034904 43.9443483,34.1833363 43.4706717,33.8690861 C43.3422692,33.7835707 43.2370243,33.982143 43.3523546,34.0719902 L43.3552817,34.0719902 C43.7723883,34.3988156 44.118877,34.807645 44.3735515,35.273448 Z" id="Path-1012" fill="#000000"></path>
                <path d="M78.2848465,60.8659523 C76.4320691,65.5796783 74.127207,60.3993497 76.6188829,64.8087926 C79.1105587,69.2182455 86.3900325,83.730464 88.3399267,88.4036503 C88.5615392,88.9339881 88.7745423,89.5164684 88.6165876,90.0714722 C88.4905519,90.5380746 88.1225844,90.9264181 88.0719261,91.4074841 C88.0009485,92.0842172 88.6209176,92.6811706 89.288805,92.8145027 C89.9566324,92.9478348 90.6417896,92.7362354 91.2777481,92.494297 C92.2440255,92.1235377 93.1789935,91.675799 94.0736732,91.1553535 C95.087679,90.5757439 96.1292637,89.7410724 96.2466297,88.5789223 C96.297348,88.0573165 96.1451939,87.5399716 95.9960289,87.0371704 C95.1760466,84.2782054 94.3551536,81.5191808 93.5332813,78.7602158 C93.0610673,77.176394 92.5901937,75.5925817 92.194767,73.9870348 C91.4979506,71.1614037 91.0358063,68.2546332 89.888505,65.5826092 C88.7412037,62.9105752 86.7956491,60.4080219 84.0620413,59.4096712" id="Path-1013" fill="#FFFFFF"></path>
                <path d="M94.2511039,83.891092 C91.872555,84.379584 89.6107125,85.323998 87.5901594,86.6722956 C87.8928205,87.33636 88.149103,87.9207608 88.3489013,88.4007049 C88.5704797,88.931406 88.7833321,89.5143454 88.6255045,90.0697293 C88.4995223,90.5365914 88.131711,90.9252613 88.0810142,91.4066567 C88.0100668,92.0837933 88.6298325,92.6812156 89.2973763,92.8146391 C89.96492,92.9480626 90.6498458,92.7363171 91.2855341,92.4942131 C92.2514011,92.1231397 93.1859723,91.675095 94.0802121,91.1543531 C95.0938472,90.5743464 96.1349997,89.7391032 96.2522459,88.5761571 C96.3029426,88.054124 96.1509125,87.5364953 96.0017509,87.0333498 L95.0229096,83.7591298 C94.7622892,83.7939521 94.5045276,83.8389137 94.2511039,83.891092 Z" id="Path-1014" fill="#65D5C9"></path>
                <path d="M77.1696651,62.4635317 C76.8199254,62.8605695 76.2539668,62.9863721 75.7689866,62.7749979 C75.6386354,62.728667 75.432915,62.6504255 75.3822623,62.8489094 C75.3315496,63.0474032 75.5517279,63.2834877 75.634306,63.4283905 C75.9239943,63.9282202 76.2209515,64.4294502 76.5033809,64.93648 C76.8785669,65.6087332 77.2421046,66.2881861 77.6027727,66.9647193 C78.6283251,68.903107 79.6345205,70.8516351 80.6214385,72.8103533 C81.7744126,75.0857875 82.9115185,77.3689733 84.0326271,79.6599178 C85.0248543,81.6881573 86.0069531,83.7163355 86.9556665,85.7648354 C87.3076659,86.5254102 87.6567364,87.2874452 87.9884787,88.0552902 C88.2231249,88.5985708 88.5302102,89.1954523 88.4722385,89.8096542 C88.4331242,90.2225623 88.1651529,90.5615602 88.0072756,90.9338875 C87.858307,91.2521937 87.8396396,91.6160892 87.955163,91.9480057 C88.2187951,92.6535294 88.9589286,93.0389063 89.6817245,93.0519066 C90.5508595,93.0678969 91.406877,92.6709214 92.1890545,92.3275948 C93.0069268,91.979988 93.7955117,91.5672691 94.5472336,91.0932598 C95.1599354,90.6977421 95.7595796,90.2109835 96.1217175,89.5663109 C96.5374276,88.8289265 96.4780471,88.0422304 96.2549992,87.2483349 C95.9884375,86.3066666 95.6987397,85.3649984 95.4191799,84.4334602 L93.7592583,78.8486309 C93.2145966,77.0145452 92.671405,75.1804696 92.2324982,73.3173933 C91.8182478,71.5354986 91.4648478,69.7448142 90.949172,67.9904499 C90.0800971,65.0060818 88.6315753,62.0231132 86.0242805,60.1846973 C85.4354353,59.7755094 84.7949678,59.446153 84.119525,59.2053683 C83.8616921,59.1097264 83.751598,59.5211744 84.0065613,59.6153463 C86.7833216,60.6395962 88.704005,63.2371869 89.7932682,65.8840184 C90.47548,67.5413407 90.9115177,69.2841045 91.3112402,71.0255384 C91.7197514,72.8031031 92.1210045,74.5777978 92.6148834,76.333622 C93.6520241,79.9858532 94.7876697,83.6076939 95.855196,87.252655 C95.9826777,87.6872935 96.1014415,88.1465321 96.0478592,88.6072311 C96.000746,88.9463477 95.8741729,89.2694738 95.6784611,89.5503693 C95.2728794,90.1588411 94.6442513,90.5963501 94.0242805,90.9628773 C93.2469924,91.4194262 92.4375973,91.8188521 91.6024475,92.1580887 C90.8477361,92.4652247 89.9091516,92.8722728 89.0936489,92.5564766 C88.7761246,92.4380043 88.5132924,92.2070404 88.3549252,91.9074745 C88.1854595,91.5670179 88.2795564,91.2265531 88.4446926,90.9049568 C88.6098288,90.5832905 88.8053607,90.2558926 88.8488045,89.8777752 C88.8794401,89.4402067 88.803401,89.0017191 88.6272163,88.5999813 C88.337528,87.8553368 88.0014566,87.1280916 87.6712341,86.4037075 C86.8020992,84.4885101 85.886641,82.5935742 84.9625139,80.7030373 C83.8713609,78.4719737 82.7642199,76.2506201 81.6411514,74.038847 C80.6146291,72.0106673 79.5726594,69.988718 78.5153215,67.9730587 C77.6809716,66.3910578 76.8248947,64.8221179 75.9080266,63.286448 C75.8413862,63.1734058 75.773276,63.0618935 75.711035,62.9459913 L75.6863785,62.8967302 C75.6936374,62.9097904 75.6863785,62.8894701 75.6863785,62.8880601 C75.6646516,62.8952602 75.7428903,62.833009 75.6863785,62.9010603 C75.6516535,62.9416511 75.6559829,63.0053723 75.5878827,63.0271027 C75.5589568,63.0358329 75.5097039,63.0155625 75.5632862,63.0358329 L75.6473241,63.0647635 C75.7255029,63.0908841 75.8037316,63.1184146 75.88484,63.138675 C76.5192686,63.295108 77.100115,63.0097625 77.5187647,62.5316732 C77.9115882,62.0488138 78.2183742,61.501933 78.4254944,60.9148816 C78.4921348,60.7439183 78.2169044,60.6715269 78.150264,60.8395602 L78.1502938,60.83374 C77.9171074,61.4132213 77.6274192,62.0216931 77.1696651,62.4635317 Z" id="Path-1015" fill="#000000"></path>
                <path d="M72.6705704,40.2281408 C72.7579708,40.7687215 72.6407206,41.3224824 72.3417091,41.7812099 C67.8507166,43.6066297 63.6972556,45.9376788 59.585845,48.4816961 C55.2643533,51.1575184 50.1590979,53.8319407 49.2406433,59.29809 C47.4312441,70.0550919 47.1762428,81.2988119 49.2406433,92.0398827 C49.4014741,92.8714545 49.5666348,93.7552186 49.2580433,94.5433388 C49.0566923,95.0605686 48.6684404,95.4980831 48.2815984,95.9269295 C47.9125766,96.3350851 47.800086,96.9141473 47.989417,97.4307671 C48.1787479,97.9474468 48.6387702,98.316733 49.1841229,98.3897858 C50.6879104,98.5737528 52.0482775,98.3014027 53.7692862,97.7523117 C55.0499326,97.342326 56.49141,96.7874326 56.9564323,95.5256042 C57.1621834,94.9663829 57.1360628,94.3521023 57.1129227,93.7566795 C56.7333408,84.1224613 60.9186718,72.4686928 60.4680996,62.5621243 C61.6690956,62.8286744 59.2743636,62.8518653 60.4680996,62.5621243 C65.0677328,61.4219407 74.7784104,59.2676897 79.0216618,57.158289 C80.4819391,56.4338912 81.9190763,55.5733279 82.9882317,54.3433609 C84.8888712,52.1702478 85.4191535,49.1278315 85.6610947,46.2506113 C86.0464066,41.6928167 83.1982523,39.7080308 82.533329,35.1821376" id="Path-1016" fill="#FFFFFF"></path>
                <path d="M49.2548085,92.12196 C49.4083712,92.9275352 49.5445436,93.7765754 49.2548085,94.5357552 C49.0534551,95.0530263 48.6651984,95.4905782 48.2783517,95.9194589 C47.9093853,96.3276471 47.7968333,96.9067551 47.9861666,97.4234161 C48.1754999,97.9401372 48.6355278,98.3093811 49.1808872,98.3825097 C50.6846932,98.5664914 52.0450768,98.294119 53.7661066,97.7449841 C55.0467688,97.3349657 56.4882638,96.7800303 56.9532919,95.5181012 C57.1590455,94.9588351 57.1329245,94.3445026 57.1097841,93.7490323 C57.0663234,92.6565531 57.0851241,91.5366109 57.1459751,90.3978063 L56.9460411,90.4412814 L49.2548085,92.12196 Z" id="Path-1017" fill="#65D5C9"></path>
                <path d="M72.137352,41.6952586 C71.7201031,41.9140097 71.2333428,42.0646803 70.7914333,42.2530012 C69.8381629,42.6605632 68.8960724,43.0951658 67.9649525,43.556838 C66.1076727,44.4637024 64.2895837,45.4488167 62.5032854,46.4890118 C60.9096813,47.4147363 59.346478,48.385351 57.7760744,49.3458357 C56.4459659,50.1334695 55.159988,50.9933944 53.9238815,51.921629 C52.7344661,52.8415534 51.6305625,53.8831882 50.7570038,55.1087742 C49.8621446,56.3741003 49.2675919,57.8268074 49.0185065,59.3564148 C48.3139014,63.5283751 47.8634518,67.739265 47.6697276,71.9659157 C47.4740434,76.2452364 47.5829358,80.5330968 47.9957246,84.7970276 C48.2043491,86.8986578 48.4940853,88.9900973 48.8649433,91.0714073 C49.0417071,92.0594521 49.4038948,93.1647987 49.1677498,94.1687737 C49.0518373,94.6627361 48.7563009,95.0756374 48.431774,95.4552193 C48.1912888,95.7449507 47.9334133,95.9883043 47.8059106,96.344696 C47.6079663,96.9139688 47.7246688,97.5454397 48.1130471,98.006382 C48.6012776,98.5858548 49.3575237,98.6191761 50.0616388,98.6235161 C50.9812185,98.613266 51.8952981,98.4797747 52.779407,98.2265434 C53.6239651,98.0161524 54.4481425,97.7310609 55.2422895,97.3747292 C55.8999536,97.0632676 56.5460881,96.6286359 56.9184761,95.9897728 C57.3849161,95.200219 57.2936634,94.2802957 57.2661428,93.4009514 C57.225802,91.5955826 57.3036835,89.7895445 57.4993677,87.9943657 C57.887686,84.1509669 58.6250619,80.3510187 59.284256,76.5496101 C59.9332599,72.8047218 60.5417336,69.0279613 60.654706,65.2207527 C60.6808266,64.3331784 60.6750257,63.4446243 60.6373749,62.55509 L60.417161,62.7231808 C60.5011428,62.7555909 60.5879441,62.7803713 60.676446,62.7970314 C60.6920763,62.721221 60.700307,62.6440813 60.701107,62.5666809 C60.6923768,62.5666809 60.6387851,62.5840811 60.6243248,62.5826111 C60.5074423,62.567411 60.3890898,62.567411 60.2722673,62.5826111 C60.256337,62.5835311 60.2404071,62.5805303 60.2258768,62.5739403 C60.1911461,62.5956704 60.2548673,62.7912308 60.2693377,62.7955608 C60.3826201,62.7785308 60.4930924,62.746851 60.5982046,62.7014408 C60.8676804,62.6333205 61.1386262,62.568141 61.409502,62.5029507 C62.7524908,62.1769591 64.0969387,61.8568261 65.4398575,61.5265045 C68.5256736,60.7702708 71.6114402,59.9879873 74.6378651,59.0188026 C77.432415,58.1249383 80.4327874,57.0616438 82.5957336,54.9986439 C83.8836012,53.7687179 84.6862315,52.1548798 85.1556015,50.4540615 C85.3826564,49.6084774 85.5515496,48.7483625 85.661232,47.8797083 C85.8038151,46.9851739 85.8760161,46.0808103 85.8770561,45.1749859 C85.8365253,43.6494985 85.3743548,42.2210809 84.7542915,40.8404641 C84.1052876,39.391757 83.3765703,37.9821705 82.9752617,36.4364229 C82.8642393,36.0067908 82.7762174,35.5715787 82.711586,35.1325865 C82.6768553,34.9051354 82.3306,35.0022159 82.3653908,35.228197 C82.6188762,36.9376754 83.2693393,38.5008229 83.9937248,40.0625405 C84.6818495,41.5300777 85.343974,43.0135447 85.483017,44.6476727 C85.5627287,45.5922273 85.4670879,46.5309817 85.3569756,47.4726362 C85.2490032,48.447981 85.066868,49.4136864 84.8122826,50.361351 C84.2921914,52.2446601 83.3548502,53.9526778 81.8293076,55.2072639 C79.3795452,57.2224138 76.1590183,58.2119197 73.1688442,59.108654 C69.9816461,60.0633687 66.7495165,60.8572025 63.5173874,61.6380863 C62.8393929,61.8017871 62.1599378,61.9640182 61.4892035,62.129179 L60.6315155,62.3377991 C60.4504216,62.3827193 60.1896757,62.4073799 60.0419025,62.5348206 C59.5087512,62.9969828 61.2689787,63.1606734 60.9647121,62.5956707 C60.8893905,62.45083 60.6532456,62.4203786 60.5170727,62.3899784 C60.4647016,62.3760583 60.4088508,62.3871695 60.3657598,62.4200096 C60.3227289,62.4529098 60.2972783,62.5038098 60.2968483,62.5580101 C60.4591418,66.244978 60.0143723,69.9319465 59.44069,73.5681343 C58.8495474,77.3348126 58.0991107,81.0608506 57.5572891,84.8274689 C57.2994136,86.6209977 57.0893792,88.4231861 56.986537,90.2311249 C56.9358159,91.1003891 56.9111555,91.9840652 56.9213457,92.8619995 C56.9314759,93.7399338 57.1183696,94.7931557 56.718461,95.6304398 C56.3780637,96.3461432 55.6812093,96.7894473 54.9800243,97.1037788 C54.1477265,97.4606506 53.285228,97.7423913 52.4027591,97.9455223 C51.5053399,98.1818535 50.5770999,98.2795726 49.65014,98.2352524 C49.2575516,98.2120623 48.8663732,98.1772732 48.5520365,97.913662 C48.3085013,97.7063209 48.1488279,97.4173793 48.1029269,97.1009178 C47.9812243,96.2765738 48.7142699,95.7970834 49.1271788,95.1842804 C49.6487399,94.4106566 49.6806007,93.5371104 49.5444278,92.638916 C49.3893944,91.6248111 49.1721098,90.6107084 49.0112764,89.5966034 C48.8432428,88.5409982 48.6983396,87.48154 48.576637,86.4181747 C48.0995168,82.2645245 47.9165229,78.082314 48.0290153,73.9027939 C48.1370476,69.7050233 48.5047355,65.5179849 49.1300489,61.3656845 C49.3850543,59.6591362 49.6154093,57.9757181 50.4339068,56.4401207 C51.1394319,55.1232843 52.1390834,54.0004682 53.2560472,53.0182934 C54.4231223,52.0246986 55.6671685,51.1250945 56.9763365,50.3280306 C58.3715063,49.4457663 59.781087,48.5895921 61.1935873,47.7319479 C64.6517313,45.6400177 68.2068565,43.6958883 71.925806,42.1110106 C72.0938396,42.0385602 72.3459164,41.98784 72.470499,41.8502393 C72.5784713,41.7020786 72.6589836,41.5357279 72.7081146,41.359117 C72.8356173,40.9806652 72.8674765,40.5765231 72.8008251,40.1827812 C72.7747646,40.0045903 72.5110897,40.0828006 72.5328102,40.2566614 L72.5357399,40.2595816 C72.5907911,40.6637535 72.5545409,41.4765075 72.137352,41.6952586 Z" id="Path-1018" fill="#000000"></path>
                <path d="M77.2831368,12.6656382 C76.9954152,11.9109322 76.8417446,11.1118218 76.8290255,10.3042509 C76.8199819,10.1951971 76.7288352,10.1112942 76.6193609,10.1112942 C76.5099467,10.1112942 76.4187399,10.1951971 76.4096963,10.3042509 C76.4096963,11.1469949 76.6519999,11.9766527 76.9523805,12.7570002 C77.2647392,13.5472198 77.6342536,14.31363 78.0579193,15.0502238 C78.1420956,15.1952718 78.3683852,15.0661734 78.2886155,14.9138565 L78.2828068,14.9138465 C77.8942838,14.1902687 77.5601024,13.4387968 77.2831368,12.6656382 Z" id="Path-1019" fill="#000000"></path>
                <path d="M67.6118272,6.36058974 C67.6296864,6.91481793 67.5868724,7.46938634 67.4840468,8.01437807 C67.4307698,8.26227334 67.3544924,8.50467031 67.2561265,8.73843098 C67.205295,8.8542967 67.1501239,8.96722383 67.0906032,9.08019066 C67.0166509,9.19330743 66.9534623,9.3130416 66.901839,9.43790388 C66.848562,9.65132232 66.9151782,9.87682591 67.0761114,10.0272784 C67.22127,10.1633964 67.4376248,10.2227941 67.5116373,10.4211683 C67.5559245,10.6177532 67.5706067,10.8198158 67.5551929,11.020699 C67.5551929,11.2220121 67.5639421,11.4232854 67.5726311,11.6245985 C67.6045612,12.4283113 67.6815102,13.3304865 68.1678675,14.0053387 C68.4198205,14.3711689 68.8000549,14.6295202 69.2335563,14.7293921 C69.7577167,14.8438183 70.3021817,14.7569115 70.8176029,14.648303 C71.0702373,14.596173 70.9627613,14.2138688 70.7101269,14.2616405 C69.9261162,14.4238386 69.0274139,14.5136246 68.5047268,13.7794352 C68.0589885,13.1494859 68.0024044,12.2979705 67.9733506,11.5565338 C67.9784919,11.1929927 67.9639299,10.8294819 67.929795,10.4675303 C67.9050808,10.2854698 67.8203047,10.1168344 67.6887861,9.98819351 C67.5610057,9.86799944 67.2430478,9.77095652 67.2880666,9.55372953 C67.3318026,9.45171852 67.3863022,9.3546155 67.4506534,9.26411009 C67.5072978,9.15261269 67.5610056,9.04111542 67.610364,8.92668915 C67.7021755,8.71428032 67.7769295,8.49490428 67.8339346,8.27068996 C67.9453291,7.77670872 67.9941362,7.2707321 67.9791533,6.76461554 C67.9791533,6.20855802 67.9355978,5.65535927 67.9050808,5.10216069 C67.8746139,4.54896212 67.8774902,4.01025794 68.07788,3.49907331 C68.1257751,3.3774198 67.9196327,3.28907356 67.8659248,3.40926763 L67.8688011,3.39767207 C67.4477771,4.31581123 67.6060144,5.3830933 67.6118272,6.36058974 Z" id="Path-1020" fill="#000000"></path>
                <path d="M68.5812597,7.64262858 C68.5979264,7.64376191 68.6129931,7.65339524 68.6207264,7.66816191 C68.6286597,7.68292858 68.6282597,7.70062857 68.6199264,7.71506191 C68.6050597,7.72919524 68.5816931,7.72919524 68.5668264,7.71506191 C68.5379264,7.71506191 68.5330597,7.63306191 68.5668264,7.62339525" id="Path-1021" fill="#000000"></path>
                <path d="M68.4646541,7.4706107 L68.5080413,7.4531076 L68.5556856,7.44583477 L68.6047953,7.4531076 L68.6495783,7.47207935 L68.6885192,7.50265947 C68.67191,7.48392915 68.6503659,7.47029886 68.6264491,7.46333786 C68.6036289,7.45023066 68.5775288,7.44415487 68.5513588,7.44583477 L68.5007935,7.44583477 L68.5513588,7.44583477 L68.6033199,7.44583477 L68.6495683,7.46624498 L68.6885092,7.4968251 L68.7188763,7.5376556 L68.7390745,7.58572875 L68.7390745,7.63818775 L68.7390745,7.69064674 L68.7203319,7.73728141 L68.6899648,7.77808174 L68.6509641,7.8101607 C68.6734154,7.79828072 68.6923375,7.78068708 68.7058462,7.75914016 C68.7389449,7.71846056 68.7531914,7.66538796 68.7448469,7.61341181 C68.7437502,7.58746901 68.7357148,7.56233094 68.7217276,7.54056273 L68.6899648,7.49973223 C68.6658087,7.47566044 68.6359899,7.45813723 68.6033199,7.44874189 L68.5513588,7.44143887 C68.5169142,7.44254539 68.4832073,7.45206144 68.4531493,7.46913199 C68.4376367,7.47821549 68.4235199,7.48948185 68.4112873,7.50265947 C68.3995433,7.51533412 68.3888958,7.52896441 68.3795245,7.54345979 C68.360413,7.57507601 68.3504435,7.61139996 68.3506229,7.64838782 C68.349287,7.66683648 68.349287,7.6853455 68.3506229,7.70376399 C68.3560962,7.72077418 68.3628555,7.73735184 68.3708211,7.75331587 C68.3802523,7.76780119 68.3908997,7.78146163 68.402584,7.79411617 L68.4415846,7.82472646 L68.4661694,7.83494666 L68.4892289,7.8451367 L68.5412597,7.8451367 C68.5585368,7.846545 68.5759436,7.846545 68.5932207,7.8451367 L68.61634,7.83638516 C68.640197,7.82846853 68.6616115,7.81440569 68.6784101,7.79558483 C68.7023269,7.77200595 68.719305,7.74226075 68.7275199,7.70959836 L68.7275797,7.65713938 C68.7276993,7.62284739 68.7186969,7.58913884 68.7015394,7.55951435 C68.6854785,7.53090584 68.6620502,7.50723643 68.6336969,7.49103098 C68.6200686,7.4829534 68.6055231,7.47660601 68.5903695,7.47208941 L68.544121,7.47208941 C68.5289673,7.46852843 68.5131457,7.46852843 68.4979323,7.47208941 C68.4693298,7.48010663 68.4434091,7.49569847 68.4227822,7.51724538 L68.4285745,7.49830381 L68.4646541,7.4706107 Z" id="Path-1022" fill="#000000"></path>
                <path d="M68.1553423,6.58640441 L68.2277086,6.54909593 L68.2609302,6.53760418 C68.3079958,6.52027742 68.3563999,6.5068539 68.405663,6.49742275 L68.4273679,6.49742275 L68.4490728,6.49742275 L68.5257642,6.49742275 L68.6024556,6.49742275 L68.6169088,6.49742275 L68.6545853,6.50458527 C68.7037884,6.516077 68.7529816,6.53330468 68.7992581,6.549086 L68.8441262,6.56486732 C68.8896636,6.58493822 68.9389867,6.59522136 68.9887991,6.59501332 C69.0498885,6.59250693 69.1052445,6.55855679 69.1348103,6.50549668 C69.1643762,6.45240685 69.1638867,6.38789463 69.1335318,6.33526051 C69.0400698,6.21094175 68.8972349,6.13252058 68.741405,6.11996884 C68.5975313,6.0945087 68.4499917,6.09744108 68.3072767,6.12858764 C68.0506133,6.19370415 67.8294989,6.35533142 67.6908591,6.5792419 C67.6521438,6.6456661 67.6688545,6.73021953 67.7299339,6.77729601 C67.7913829,6.82418426 67.8782026,6.81932005 67.9339182,6.76580423 L67.9512981,6.76438761 C68.0073833,6.69282185 68.0766432,6.63242088 68.1553423,6.58640441 Z" id="Path-1023" fill="#000000"></path>
                <path d="M68.8976968,11.4002105 L68.9804211,11.3440107 C69.0438817,11.2989533 69.1027644,11.2477974 69.1560172,11.1912394 C69.2626532,11.075477 69.34684,10.9411008 69.40419,10.7948757 C69.4163612,10.7531611 69.4106112,10.7082828 69.3882322,10.6709456 C69.3693993,10.6415573 69.3420717,10.6184566 69.3098455,10.6046379 C69.2354358,10.5726332 69.1486745,10.6011459 69.1081438,10.6709456 C69.0820383,10.7290556 69.0529976,10.7858026 69.021082,10.8409976 C69.0036516,10.8683862 68.9862312,10.8943422 68.9673983,10.9202684 L68.9543155,10.9390016 C68.9407853,10.9572607 68.9407853,10.9572607 68.9543155,10.9390016 C68.9678458,10.9207426 68.9678458,10.9207426 68.9543155,10.9390016 L68.92821,10.9779207 C68.889202,11.0262512 68.8470184,11.0719751 68.8019498,11.1148139 C68.7787193,11.1364622 68.7540764,11.1566181 68.7293733,11.1768138 C68.7047303,11.1969698 68.7554788,11.1580806 68.7293733,11.1768138 L68.6945826,11.2056251 L68.6553943,11.241659 C68.6138218,11.2834632 68.6056876,11.347801 68.6356498,11.3984694 C68.6656121,11.4491379 68.7260775,11.4734921 68.783127,11.4578528 L68.7830569,11.4506699 C68.8232269,11.4386818 68.8617441,11.4217095 68.8976968,11.4002105 Z" id="Path-1024" fill="#000000"></path>
                <path d="M70.9140215,15.010915 C71.0142441,15.2833447 71.1173336,15.5528438 71.2262372,15.8223728 C71.4237353,16.3063688 71.6154194,16.7932255 71.8071134,17.2713902 C71.8884303,17.4728243 72.2093972,17.4003582 72.144049,17.1786597 C71.9779369,16.6817809 71.7840475,16.1946442 71.5631729,15.7195102 C71.4513321,15.4557824 71.3351409,15.1949553 71.2204232,14.9312476 C71.1408205,14.7103692 71.0436653,14.4962123 70.9299901,14.2907573 C70.8748065,14.202388 70.7034317,14.2284537 70.7165234,14.3472897 L70.7208639,14.3545213 C70.7576329,14.5804908 70.8224899,14.8009991 70.9140215,15.010915 Z" id="Path-1025" fill="#000000"></path>
                <path d="M71.7288208,7.43495655 C71.7505471,6.96729493 72.3212491,6.64299113 72.7616034,6.80659723 C73.2018976,6.97020334 73.430738,7.51026329 73.3148479,7.9649024 C73.1738822,8.42170027 72.8041357,8.77154005 72.3401055,8.88719368 C72.6515119,9.59210914 73.01211,10.2742769 73.4191999,10.9286814 C73.616186,11.2457594 73.8536951,11.5816572 74.2274108,11.6525965 C74.4346551,11.6783717 74.645059,11.6596125 74.8444347,11.597578 L76.5362234,11.1950693 C76.6123203,11.1811273 76.6859781,11.156241 76.7549362,11.1212311 C76.8794848,11.032472 76.9751785,10.9091329 77.030159,10.7665148 C77.7324281,9.3452704 78.1702221,7.80819261 78.322176,6.23032808 C78.4002925,5.64338493 78.3733179,5.04722708 78.2425404,4.46973848 C78.0998049,3.97981963 77.8723636,3.51871419 77.5704756,3.10730028 C77.1460486,2.49773008 76.6130005,1.94176906 75.9409361,1.62901855 C75.2688717,1.31626803 74.4360052,1.28296715 73.8044639,1.67245364 C73.2943617,0.86642617 72.4508768,0.330173949 71.5043197,0.21012284 C70.741021,0.11889519 69.9704634,0.3100155 69.2432985,0.563370109 C68.3614303,0.859859973 67.5256343,1.27904946 66.7606959,1.80853558 C66.5491823,1.95332249 66.3261407,2.1618228 66.3405982,2.42100406 C66.359455,2.73082626 66.7027159,2.90021896 66.9953355,3.00014162 C66.6592734,3.19558945 66.3000852,3.53584427 66.4159652,3.90651155 C66.5245865,4.24383795 66.951883,4.34086239 67.3052822,4.3495574 C68.4828795,4.38862498 69.6445397,4.11498201 70.7917423,3.84426737 C70.51481,4.06466089 70.2968974,4.35020673 70.1572714,4.67533016 C70.0742757,4.79284272 70.0634174,4.94675484 70.1291361,5.07476139 C70.1947948,5.20279792 70.3262424,5.28375129 70.4701376,5.28488064 C70.9058526,5.3938581 71.3657334,5.35094273 71.7737432,5.16325045 C71.6883079,5.53391773 71.8099869,7.05706376 71.7244916,7.42773104" id="Path-1026" fill="#000000"></path>
                <path d="M72.4233208,6.93095446 C72.7113617,6.90666083 72.9813354,7.07376578 73.0881872,7.34245586 C73.3778679,7.96257842 72.8723443,8.55518642 72.2900434,8.72614193 C72.239212,8.74100415 72.1978392,8.77826953 72.1778226,8.82738686 C72.157806,8.87646418 72.161225,8.93204314 72.1872206,8.97826004 C72.4692726,9.62233615 72.7914878,10.2480393 73.1518965,10.8517094 C73.4415772,11.3313009 73.7979065,11.8818935 74.429389,11.8659611 C74.7871781,11.8528991 75.1536355,11.721069 75.4983568,11.6442776 L76.5470686,11.3965006 C76.8166727,11.3459831 77.0453341,11.1684964 77.1612244,10.9198093 C77.3060397,10.6300361 77.4436464,10.3243207 77.569665,10.0200453 C78.0882567,8.7614975 78.4083323,7.42999887 78.5184135,6.07319641 C78.5734542,5.37338197 78.5430095,4.6663065 78.2735853,4.01139879 C78.0270473,3.43068212 77.6842048,2.89578217 77.259717,2.42919254 C76.3906049,1.44970638 74.9421821,0.781756639 73.7008734,1.51636624 L73.9601092,1.58445644 C73.220975,0.437225223 71.8753837,-0.166494839 70.5272832,0.0442666039 C69.776371,0.166854896 69.0455455,0.390568286 68.3546231,0.70932585 C68.0074522,0.857667983 67.6689498,1.02553301 67.3406956,1.21209085 C67.0247094,1.37950583 66.72709,1.5795757 66.4527867,1.80903995 C66.2152171,2.02349195 66.057344,2.339329 66.1993498,2.65376592 C66.3412957,2.96817282 66.6541025,3.08843084 66.9394539,3.19708705 L66.8945415,2.84644485 C66.5150861,3.07392879 66.0790703,3.47962928 66.2282749,3.97082257 C66.3586227,4.39678612 66.8395009,4.52574512 67.2335339,4.5503788 C68.442988,4.63151091 69.6726986,4.3170943 70.8401599,4.03892279 L70.6533017,3.72161531 C70.4151223,3.91814464 70.2181959,4.15994081 70.0739305,4.43302155 C69.9290552,4.69960132 69.8073757,5.0444725 70.0536737,5.28931904 C70.2593287,5.49506974 70.6083895,5.53563583 70.8836126,5.54579735 C71.2246146,5.55211829 71.5622672,5.47712728 71.8685551,5.32698488 L71.6150579,5.13139582 C71.5708755,5.50825205 71.5708755,5.88901863 71.6150579,6.26587486 C71.626656,6.49191859 71.6367843,6.71940273 71.6397138,6.94541645 C71.6513118,7.10061961 71.6455129,7.25662282 71.6223168,7.41051579 C71.5904623,7.56266849 71.8236326,7.62786803 71.856957,7.47427511 C71.9110877,7.10354978 71.9290246,6.72846392 71.9105377,6.35426807 C71.9105377,5.9891336 71.8714843,5.58199272 71.9554501,5.22265911 C71.9815056,5.10963225 71.8728844,4.95607941 71.7425365,5.00967741 C71.5236438,5.10490162 71.2887537,5.15797984 71.0502143,5.16616106 C70.8248526,5.18844439 70.5975912,5.15303877 70.3896866,5.06330538 C70.1782326,4.94301743 70.4070837,4.61700891 70.4983082,4.47358751 C70.616638,4.29070023 70.763343,4.12783594 70.9328642,3.99109554 C71.0878678,3.8621363 70.9169368,3.63176193 70.7474756,3.67231798 C69.787129,3.89836171 68.8195839,4.13017616 67.8303123,4.169312 C67.4942494,4.18234394 67.0031831,4.2374025 66.7164319,4.01138878 C66.351444,3.72158554 66.8525787,3.3231459 67.0959473,3.17679405 C67.1606363,3.13674808 67.1959702,3.06254698 67.1863219,2.98700571 C67.1766235,2.91149444 67.1237725,2.84858496 67.0510349,2.82615161 C66.874305,2.76095188 66.5817547,2.65519609 66.5411716,2.44364452 C66.4904603,2.18719625 66.8482494,1.98434612 67.0220498,1.86408818 C67.538132,1.52010685 68.0874185,1.22883338 68.6617208,0.994728446 C69.7813402,0.53251949 71.0776898,0.125378698 72.2567492,0.606430471 C72.8270221,0.844505996 73.3107694,1.25154674 73.6429229,1.7728045 C73.6978435,1.86134771 73.8124543,1.89129222 73.9036188,1.8408947 C74.8870915,1.26133823 76.0574921,1.73656917 76.8005257,2.47550941 C77.2065266,2.88129994 77.5458184,3.34880966 77.8057241,3.86066604 C78.0784477,4.41930938 78.2054966,5.03784174 78.1751118,5.65878439 C78.1270899,6.882357 77.8916501,8.09127772 77.4769907,9.24339962 C77.3736183,9.53992388 77.2601676,9.82972685 77.1365986,10.1127291 C77.0406649,10.3732079 76.9193452,10.6236349 76.7744799,10.8604002 C76.6850151,10.9650558 76.5581472,11.0305964 76.4210205,11.0429583 L75.9488707,11.1545143 L75.0349064,11.3718672 C74.7075121,11.4500988 74.3410541,11.5862887 74.0354462,11.380538 C73.7920776,11.2168135 73.637134,10.9458737 73.4879293,10.6937561 C73.1148228,10.0869455 72.7800399,9.45739168 72.4856,8.80873489 L72.3827777,9.06228256 C73.2185155,8.8159658 73.8630557,7.86837393 73.3040109,7.05408239 C73.0835884,6.71126124 72.6697788,6.54646699 72.2741561,6.64405155 C71.9029993,6.73799557 71.6346149,7.06031346 71.6092892,7.44242048 C71.6092892,7.59744361 71.8251325,7.5873121 71.8439293,7.44242048 L71.8439493,7.43807983 C71.9034492,7.15931824 72.1391891,6.95292773 72.4233208,6.93095446 Z" id="Path-1027" fill="#000000"></path>
                <path d="M72.1930286,7.74735796 C72.120137,7.85873146 72.0906955,7.99289224 72.1102195,8.12445992 C72.1263141,8.18006657 72.1771747,8.21844261 72.235135,8.21875298 C72.2923633,8.2173513 72.3422413,8.17927562 72.3585865,8.12445992 C72.3585865,8.11141429 72.3687446,8.06066349 72.3585865,8.09256172 C72.3518144,8.11382721 72.3518144,8.11382721 72.3585865,8.09256172 C72.3585865,8.0790188 72.3585865,8.06838605 72.3585865,8.06066346 C72.3585865,8.04904954 72.3672806,8.01568958 72.3730966,7.99246174 C72.3789127,7.96927395 72.3861929,7.94751786 72.393473,7.92576179 C72.400693,7.90400571 72.4065091,7.89964049 72.393473,7.93447223 C72.3929215,7.93013704 72.3929215,7.92573175 72.393473,7.92139655 C72.3978752,7.90991279 72.4032701,7.89872939 72.4094472,7.88802657 C72.4193044,7.86816276 72.4309868,7.84925007 72.4442735,7.83146876 L72.4559057,7.81695136 C72.4646599,7.802464 72.4355895,7.84016919 72.4559057,7.81695136 L72.4776959,7.79229182 C72.4930584,7.77478083 72.5095842,7.75831109 72.5271527,7.7429727 L72.5416629,7.73138881 C72.553295,7.72121662 72.5140565,7.7502414 72.5416629,7.73138881 L72.5721472,7.71107447 C72.6347604,7.67462078 72.6558788,7.59441464 72.6193979,7.53193976 C72.5828568,7.46945487 72.5025547,7.4483696 72.4399415,7.48482329 L72.4442735,7.49064026 C72.3408374,7.5544968 72.2545989,7.64261242 72.1930286,7.74735796 Z" id="Path-1028" fill="#000000"></path>
                <path d="M80.3185682,14.4237544 C76.9330747,14.8638387 73.6139176,15.7153521 70.4346528,16.9594905 C69.1482836,17.4622769 67.834396,18.0693831 66.9753133,19.1546712 C65.7396613,20.7152103 65.7164727,22.9075305 65.9917275,24.8824492 C66.7029883,29.9900885 69.0005317,34.7354784 70.0478439,39.792408 C70.1086906,40.0821936 70.1796768,40.4038555 70.4086041,40.5937119 C70.6148928,40.7366493 70.8617694,40.809333 71.1126056,40.8009014 C71.9904872,40.8414692 72.8625091,40.6560034 73.7201319,40.4879112 L88.8566875,37.3856659 C89.1810697,37.333806 89.497463,37.2407987 89.7982864,37.1089134 C90.9224346,36.5597681 91.2469367,35.1136904 91.2657356,33.8603001 C91.2903943,31.0275769 90.3371959,28.5179362 89.4970322,25.8692083 C89.1522011,24.7868508 88.6104227,23.7450215 88.2251339,22.6626339 C87.8180563,21.5194048 87.4515556,20.3602227 87.0053501,19.2314663 C86.408583,17.7187263 85.7219108,16.0813822 84.3167782,15.1743482 C83.157842,14.4295754 81.6585346,14.2382888 80.3156586,14.4208738" id="Path-1029" fill="#0C3970"></path>
                <path d="M71.670269,16.3045101 C70.4186635,16.7463311 69.11201,17.1983217 68.0109792,17.9545262 C66.9791559,18.6504019 66.2328425,19.6950604 65.9090041,20.8967857 C65.5801558,22.1078509 65.6106147,23.3942649 65.7641692,24.6285496 C65.9551424,26.0504304 66.2455321,27.457131 66.6333383,28.8383627 C67.3938712,31.653125 68.4195248,34.3867695 69.2104566,37.1913719 C69.4103995,37.8968974 69.5943528,38.6067133 69.755177,39.3223686 C69.8812125,39.885897 69.9232013,40.6348714 70.5388994,40.8883762 C70.861338,40.9939941 71.2020257,41.0324422 71.5399036,41.0013828 C71.9156203,40.9882031 72.290187,40.9509336 72.6611438,40.8898449 C73.4188068,40.7710473 74.1692101,40.6000919 74.9196033,40.4450951 L84.1909428,38.5473347 L88.8265781,37.5999031 C89.4567457,37.4709658 90.0579148,37.3101794 90.5229282,36.843689 C90.8846054,36.4553269 91.1435751,35.9827468 91.2762604,35.4689274 C91.6268379,34.2390026 91.5094728,32.8830392 91.3167896,31.6386547 C91.0980474,30.2160439 90.682292,28.8354629 90.2419376,27.4708309 C90.0159357,26.7711053 89.8073239,26.0641796 89.553793,25.3745937 C89.300322,24.6850279 88.9917417,24.0186623 88.7136116,23.3464661 C88.1341622,21.9499447 87.7270774,20.4911441 87.1693573,19.0888329 C86.7348028,17.9791456 86.2552707,16.8549888 85.4715385,15.9394575 C84.6414881,14.9717374 83.4854575,14.4270386 82.2309322,14.260442 C81.6025946,14.1804836 80.9664479,14.1839036 80.3390303,14.2705718 C80.1347575,14.2981012 80.1318276,14.6211546 80.3390303,14.5950551 C81.5819061,14.4299285 82.9161483,14.5863854 84.019989,15.2078626 C85.0557822,15.7873207 85.7265294,16.7883701 86.2306614,17.8357387 C86.8101107,19.0468338 87.2446648,20.3274477 87.6792793,21.6022615 C87.912491,22.2889274 88.1457525,22.9741535 88.4253426,23.6434498 C88.7049326,24.3127161 88.9946633,24.9472527 89.2307949,25.616519 C89.4669365,26.2858152 89.6653478,26.9507512 89.8782902,27.6185875 C90.0912326,28.2864238 90.2955165,28.9383211 90.4751301,29.6076174 C90.8639062,30.9615597 91.0714193,32.3611008 91.0922985,33.7696419 C91.0922985,34.7706614 90.9329443,35.967257 90.1405525,36.6669827 C89.6479601,37.1015737 88.954073,37.1739915 88.334095,37.3014889 L86.0712967,37.7650394 L77.1592035,39.5918121 C75.6757963,39.8960359 74.1952591,40.2422797 72.7031822,40.4914246 C72.344975,40.5543833 71.9829978,40.5935917 71.6196008,40.6087914 C71.3110217,40.6203911 70.8952567,40.6594809 70.6243963,40.4943542 C70.3708653,40.3494572 70.317277,40.0119441 70.262229,39.7468395 C70.1907615,39.4088065 70.1153844,39.0707925 70.0362272,38.7327595 C69.3800006,35.9933457 68.412325,33.3437102 67.5865444,30.6535454 C67.175179,29.3193128 66.7999523,27.9706204 66.5160224,26.5972586 C66.2523618,25.3253447 66.0408194,24.023002 66.0814079,22.7206287 C66.1132668,21.538523 66.3711277,20.3317873 67.0954719,19.3655372 C67.8400754,18.3586879 69.007694,17.7604102 70.1376038,17.2939198 C72.7620203,16.2180419 75.4895229,15.4132183 78.2775736,14.892019 C78.970049,14.7626317 79.6649145,14.651054 80.3621597,14.5573959 C80.5186442,14.5356664 80.4823951,14.260402 80.3259706,14.2807016 L80.3259706,14.2865115 C77.3769157,14.6478641 74.4751091,15.3243902 71.670269,16.3045101 Z" id="Path-1030" fill="#000000"></path>
                <path d="M73.1854115,52.5441856 C73.3983316,47.4205279 73.6098521,42.2924995 74.1385279,37.1891003 C74.5571691,33.1518459 75.2567801,28.9321139 77.7597885,25.7452092 C81.7228518,20.6750975 88.9131932,19.6611093 95.3430099,19.4974209 C97.4578228,19.4438046 99.8333497,19.5452075 101.290535,21.0778191 C102.39573,22.2367072 102.681089,23.9329971 102.883881,25.5221148 C103.943542,33.7130957 104.24325,41.9845705 103.779076,50.2307873 C103.524111,54.7445984 102.699948,59.84657 98.9497948,62.3714714 C97.168125,63.5709066 94.9867277,63.9793851 92.8661156,64.3386497 C83.5493746,65.9219778 73.951664,67.0735978 64.6958141,65.1672325 C62.7866623,64.7732504 60.6588413,64.0489321 59.8983881,62.2541389 C59.1553324,60.4984331 60.1257762,58.3965317 61.636544,57.233284 C63.1473818,56.0700963 65.0709417,55.621028 66.9250512,55.1835289 C68.7791008,54.7460598 71.7224075,53.7682573 73.1854019,52.5485535" id="Path-1031" fill="#000000"></path>
                <path d="M73.7709093,43.6857624 C73.9548666,40.8709617 74.1620137,38.0459712 74.5473881,35.2499704 C74.8805732,32.8277512 75.3934468,30.3852315 76.4741211,28.1759729 C77.4653167,26.1396751 78.9802438,24.4037086 80.8635864,23.1460438 C84.5186234,20.7078946 89.0834351,20.0154118 93.3830528,19.7764009 C94.471047,19.7169807 95.5677146,19.6662905 96.6570587,19.6981506 C97.7739825,19.7314807 98.9372926,19.8633113 99.9513779,20.3602031 C101.011782,20.8817551 101.731814,21.7842786 102.124378,22.8881929 C102.544472,24.0746875 102.661848,25.3510022 102.811016,26.595417 C103.514496,32.4078493 103.837312,38.2600412 103.777313,44.1145535 C103.749784,46.7888837 103.691863,49.4834762 103.426727,52.1476364 C103.21378,54.2946146 102.822608,56.4836208 101.908562,58.4538383 C100.984255,60.447256 99.5051565,62.0567608 97.4769859,62.9448242 C96.2920032,63.4663362 95.0142493,63.7488491 93.7452278,63.98209 C92.3660978,64.235601 90.9783001,64.45581 89.5918503,64.6702309 C83.9232326,65.5481342 78.1777654,66.1594972 72.4352388,65.9059563 C69.6740489,65.7828458 66.8722696,65.4988866 64.1777887,64.8527641 C62.226397,64.3848324 59.8461818,63.3417685 59.831722,60.9905396 C59.831722,59.9097854 60.3242649,58.8580484 61.0312246,58.0597954 C61.8482928,57.1369718 62.9738864,56.5546017 64.1212697,56.1489601 C65.2685931,55.7433186 66.4289764,55.5245684 67.5850296,55.2160072 C68.660334,54.9338062 69.7145784,54.5770532 70.7402534,54.1483116 C71.6500303,53.7629601 72.5525469,53.3167406 73.3188858,52.6851082 C73.510103,52.5286476 73.2363076,52.2505068 73.0480204,52.4142075 C72.2120925,53.1037901 71.1820772,53.5731786 70.1810617,53.9628601 C69.1556866,54.3668517 68.1039417,54.7003557 67.0330973,54.9610367 C64.6848013,55.5332789 62.0496497,56.0823197 60.4923624,58.1119576 C59.8331919,58.9710608 59.3927684,60.0575855 59.4492876,61.1542397 C59.5161166,62.2031337 60.0292991,63.1730751 60.8588771,63.8183975 C61.688945,64.4862501 62.7073603,64.8759648 63.7287054,65.1468658 C65.0403963,65.4753271 66.3714874,65.7211471 67.7139978,65.8828278 C70.6166058,66.2647592 73.5444825,66.4207287 76.4712601,66.3492584 C79.4123173,66.2747981 82.3477049,66.0514094 85.2661724,65.6800079 C88.1374106,65.3264866 91.0072393,64.8947831 93.853878,64.3761711 C95.1460992,64.1385602 96.435442,63.8401291 97.6450844,63.3142471 C98.710869,62.8555354 99.6727649,62.1858222 100.472923,61.345459 C101.946172,59.785213 102.780628,57.7396455 103.268841,55.6766777 C103.813573,53.3790588 103.95554,51.0118701 104.059849,48.6606312 C104.194067,45.6473396 104.226899,42.6316173 104.15836,39.6134758 C104.088841,36.6136744 103.918801,33.619714 103.648415,30.6315126 C103.514137,29.136447 103.353859,27.6442912 103.167461,26.1550255 C103.015304,24.9323308 102.877678,23.6734159 102.416985,22.5202415 C102.006351,21.4439774 101.212292,20.5575539 100.187527,20.0313719 C99.1734414,19.5243199 98.0246565,19.3591593 96.9033928,19.3069991 C95.7820691,19.2548489 94.6202267,19.3069991 93.4844933,19.3736494 C92.3487097,19.4402996 91.2071856,19.5243199 90.081522,19.6691805 C87.8592644,19.9589116 85.6456769,20.4326434 83.5625172,21.2830466 C81.5532064,22.1044598 79.6829331,23.2807943 78.2139645,24.8946605 C76.5624985,26.7084174 75.5440838,28.9669461 74.9255028,31.3225451 C74.2591324,33.8563347 74.0099265,36.4842751 73.7825098,39.0861549 C73.5188436,42.1052365 73.3478858,45.1344881 73.2319775,48.1622696 C73.1769283,49.6244951 73.1223594,51.0867208 73.0682802,52.5489464 C73.0682802,52.6938169 73.2971563,52.6938169 73.3044262,52.5489464 L73.3015566,52.5460243 C73.4463945,49.592123 73.5767621,46.6367936 73.7709093,43.6857624 Z" id="Path-1032" fill="#000000"></path>
                <g id="Group-403" transform="translate(2.2976, 43.1331)" fill="#000000" stroke="#000000" stroke-dasharray="0,0" stroke-width="1.54999995">
                    <path d="M81.7221959,18.7731617 L81.7221959,50.7856407 L80.9096339,50.7856407 L80.9096339,18.7731617 L81.7221959,18.7731617 Z" id="Path-1033"></path>
                    <path d="M0.806926787,-0.00421036081 L0.806926787,55.5647583 L0.00427406048,55.5647583 L0.00427406048,-0.00421036081 L0.806926787,-0.00421036081 Z" id="Path-1034"></path>
                    <path d="M23.5588542,-0.00421036081 L23.5588542,55.5647583 L22.7462922,55.5647583 L22.7462922,-0.00421036081 L23.5588542,-0.00421036081 Z" id="Path-1035"></path>
                    <path d="M89.9271641,51.1190788 C91.2320805,51.1190788 92.2899895,52.1787695 92.2899895,53.4858837 L92.2899895,55.3331504 L73.1803895,55.3331504 L73.1803895,53.4858837 C73.1803895,52.1787695 74.2382984,51.1190788 75.5432148,51.1190788 L75.5432248,51.1190788 L89.9271641,51.1190788 Z" id="Path-1036"></path>
                </g>
                <g id="Group-404" transform="translate(52.959, 44.566)" fill="#FF9F1C">
                    <path d="M1.4122678,16.7070811 C1.5404392,16.8040853 1.66714294,16.5868978 1.53897154,16.4913628 C0.896817803,16.0017837 0.433450505,15.3168066 0.219560102,14.5408626 C0.199806629,14.4836995 0.138756845,14.4516746 0.0800995827,14.4677771 C0.0215026364,14.4838795 -0.0143853535,14.5425118 -0.0018094785,14.6016839 L-0.00181953108,14.6016939 C0.223540967,15.439129 0.720654964,16.1792 1.4122678,16.7070811 Z" id="Path-1037"></path>
                    <path d="M2.89388168,16.0369716 C3.01738359,16.1253673 3.1365918,15.921041 3.01302969,15.8327153 C2.36974835,15.3718835 1.87606177,14.7330901 1.59318411,13.9954091 C1.54230265,13.8592149 1.31991695,13.9171452 1.37227309,14.0562699 C1.67339865,14.851151 2.20260805,15.5400533 2.89388168,16.0369716 Z" id="Path-1038"></path>
                    <path d="M17.9868819,2.92405701 C18.1113851,3.06899698 18.3169648,2.85876189 18.1939208,2.71816492 C17.5920137,2.0068543 17.3933901,1.03756568 17.6668635,0.146441013 C17.7103002,-0.00722497702 17.4873298,-0.0609120131 17.4323093,0.0826169848 C17.0616581,1.03218198 17.3222584,2.17017698 17.9868819,2.92405701 Z" id="Path-1039"></path>
                </g>
                <path d="M55.8171444,96.3972021 C56.2851222,96.1819663 56.7589512,95.9740286 57.2428617,95.797796 C57.7268323,95.6215634 58.2107925,95.4973651 58.7106357,95.6042253 C58.8671517,95.6374558 58.9338128,95.3976934 58.7758965,95.3630072 C58.2886955,95.2794572 57.7878824,95.3293579 57.3269258,95.5074748 C56.8314233,95.6736076 56.3503831,95.8859223 55.8780146,96.0996925 C54.88835,96.5445313 53.9306105,97.0529597 52.971401,97.5584569 C52.8410093,97.6263736 52.9569286,97.8228058 53.0873303,97.754889 L53.0901907,97.750572 C53.9914606,97.284068 54.8941408,96.8204346 55.8171444,96.3972021 Z" id="Path-1040" fill="#000000"></path>
                <path d="M59.3752212,95.3253062 C59.3752212,95.2598803 59.32216,95.2068191 59.2567341,95.2068191 C59.1913082,95.2068191 59.138247,95.2598803 59.138247,95.3253062 C59.138247,95.3907321 59.1913082,95.4437933 59.2567341,95.4437933 C59.32216,95.4437933 59.3752212,95.3907321 59.3752212,95.3253062 Z" id="Path-1041" fill="#000000"></path>
                <path d="M92.1854703,90.0596234 C93.2535012,89.3798017 94.4084258,88.8580187 95.5488949,88.3202468 C95.7109642,88.2434236 95.5691349,87.9998769 95.4041386,88.0781708 C94.2463467,88.6362242 93.0755177,89.1710745 91.9958384,89.8726984 C90.9877481,90.5278563 90.0558024,91.2935961 89.2171041,92.1556602 C89.1114389,92.2643612 89.2764353,92.4310248 89.383569,92.3223138 L89.3821005,92.3223038 C90.2300795,91.4664733 91.170307,90.7076272 92.1854703,90.0596234 Z" id="Path-1042" fill="#000000"></path>
                <path d="M95.9893615,88.0446678 C95.9893615,87.9647196 95.9245397,87.8998977 95.8446514,87.8998977 C95.7647031,87.8998977 95.6998813,87.9647196 95.6998813,88.0446678 C95.6998813,88.1246161 95.7647031,88.189378 95.8446514,88.189378 C95.9245397,88.189378 95.9893615,88.1246161 95.9893615,88.0446678 Z" id="Path-1043" fill="#000000"></path>
                <path d="M68.0706806,18.1458506 C65.3311369,19.4873622 63.5940716,25.8819952 63.0000591,30.0123119 C62.9507973,30.3527674 62.8972136,30.7178331 62.6596546,30.9655771 C62.4538968,31.1770705 62.1510963,31.255312 61.8657455,31.3306332 L48.1967678,34.7626686 C47.2478219,35.0017125 46.1047685,35.4566187 46.0235854,36.4316044 C45.3687707,36.15633 44.5937213,36.6430985 44.29671,37.2892189 C43.9996988,37.9353493 44.0547609,38.6814507 44.1141431,39.3913021 C44.163405,39.9708114 44.2387178,40.621272 44.6617739,41.0312786 C45.0848199,41.4412552 45.9757836,41.3543449 46.0844977,40.7748356 C46.1830114,41.8744333 47.598405,42.2336887 48.7009268,42.2829494 C53.4223557,42.4960529 58.1533747,42.2466286 62.8262215,41.5383072 C64.0083963,41.3586743 65.2195629,41.1384614 66.2366314,40.5097313 C67.3796847,39.8042099 68.1663334,38.6553605 68.8747902,37.5152321 C71.5531116,33.2010126 73.6020194,28.5266876 74.9595509,23.6335688" id="Path-1044" fill="#0C3970"></path>
                <path d="M66.4962635,19.3372474 C65.986518,20.0056568 65.5535583,20.7293227 65.205555,21.4946036 C64.3769847,23.2477419 63.8250013,25.1298057 63.393322,27.0147896 C63.1905117,27.9043953 63.0196208,28.8002821 62.8805275,29.7024593 C62.806621,30.187837 62.7964805,30.7775066 62.2880249,31.0151148 C61.9997687,31.1241677 61.701994,31.2061176 61.3985386,31.259984 L60.4178162,31.5033932 C57.7407546,32.1708325 55.064682,32.8392412 52.3895702,33.5086308 L48.3942218,34.5126896 C47.5496623,34.7242347 46.4776837,34.9995084 46.0199456,35.8253765 C45.9197304,36.0097884 45.8590035,36.2130831 45.8417343,36.422308 L46.0793328,36.2411957 C45.5476784,36.0339911 44.9682361,36.2411967 44.5654854,36.6106606 C44.0903482,37.0453122 43.9193964,37.6828077 43.8904678,38.307272 C43.8812483,38.6661746 43.8952876,39.0252566 43.9324558,39.382349 C43.9507649,39.6889054 43.9953228,39.9933223 44.0657494,40.2922478 C44.2004429,40.8051287 44.5133579,41.3064382 45.0638115,41.4324932 C45.5506082,41.5382458 46.1503093,41.354264 46.2705436,40.8152599 L45.9025812,40.7659931 C46.0083461,41.758481 46.9774799,42.2003937 47.8539078,42.3597527 C48.4420796,42.4498534 49.036351,42.4944089 49.6313524,42.4930687 C50.3663072,42.5172116 51.1017422,42.529753 51.8376069,42.5307331 C54.8042645,42.5364438 57.7684131,42.3598427 60.7134018,42.0018902 C61.4478066,41.9120695 62.1808599,41.8135471 62.9109249,41.7019539 C63.5688534,41.6131333 64.2198833,41.479058 64.8593826,41.3006268 C65.4730632,41.1271461 66.0546952,40.8555936 66.5817699,40.4964809 C67.081626,40.1364482 67.5291742,39.7088479 67.9116058,39.2258205 C68.7257168,38.2217612 69.3775946,37.077155 70.0193539,35.9571819 C70.7002312,34.7662104 71.3352118,33.5506159 71.9242935,32.3103886 C73.0995872,29.839515 74.0845892,27.2825713 74.8708115,24.6618099 C74.9679168,24.3358112 75.0634928,24.0098125 75.1605282,23.6809235 C75.1817672,23.5796514 75.1204903,23.4793297 75.0206451,23.4520764 C74.9208599,23.4248232 74.8171039,23.4800295 74.7838955,23.5780711 C74.0727496,26.1434059 73.1711245,28.6521044 72.0865765,31.0832033 C71.0285872,33.4831483 69.779736,35.7942433 68.3520145,37.9943047 C67.6899963,39.0012643 66.9033548,39.9662182 65.8212566,40.5298252 C64.6623722,41.1296565 63.3165566,41.2832441 62.0432377,41.4629154 C59.2041438,41.8616428 56.3438611,42.0914407 53.4774885,42.1511078 C52.0413973,42.1801012 50.6062857,42.1670389 49.1721544,42.1119823 C48.6469696,42.1106422 48.1236248,42.0498761 47.6120493,41.930872 C47.2063688,41.8222191 46.7718197,41.641107 46.5008926,41.3093376 C46.3777885,41.1546592 46.3009522,40.9682967 46.2792833,40.7717934 C46.2589643,40.5776203 45.9620384,40.4993919 45.9127808,40.7225285 C45.8374044,41.0600886 45.4448432,41.1441486 45.1464576,41.0731602 C44.7031188,40.9673776 44.5032384,40.524024 44.4090629,40.1168957 C44.3057379,39.606275 44.2572102,39.0860741 44.2641699,38.5651722 C44.2641699,38.0435602 44.3294168,37.4669021 44.6727203,37.0496426 C44.9899651,36.6656869 45.4955608,36.4164767 45.9836974,36.6149902 C46.1083214,36.6627859 46.2096965,36.5425312 46.219836,36.4353085 C46.3096717,35.52254 47.4410274,35.1588776 48.1842217,34.9647045 C49.4879892,34.6242441 50.800427,34.3069155 52.1070642,33.9780464 C54.7368181,33.3192781 57.3641324,32.6557193 59.9890766,31.9872999 C60.6496249,31.8206501 61.3102434,31.6569408 61.9693317,31.4859905 C62.4807172,31.3541349 62.8935456,31.1281281 63.0630875,30.5978251 C63.1963211,30.1747748 63.2195113,29.7024289 63.2919579,29.2634068 C63.3643444,28.8244246 63.4498501,28.3665697 63.5410957,27.9203167 C63.9090581,26.0355427 64.4482813,24.1882735 65.1519775,22.4015613 C65.4701423,21.5891147 65.8634331,20.8081722 66.3268509,20.0688844 C66.6969531,19.4577917 67.1778804,18.921198 67.7449932,18.4867263 C67.8682773,18.3982458 67.9975414,18.3183763 68.131815,18.2476579 C68.2650486,18.1780997 68.1477437,17.9839566 68.0144501,18.0477142 L68.0159016,18.0404933 C67.4151604,18.3482999 66.8948044,18.7923827 66.4962635,19.3372474 Z" id="Path-1045" fill="#000000"></path>
                <path d="M71.0506541,34.0016782 C71.5788093,32.9767119 72.1373169,31.9720502 72.6668804,30.9427207 C72.7100369,30.8686575 72.6851076,30.7735592 72.6111593,30.7303481 C72.5372809,30.6871071 72.4423586,30.712085 72.3992021,30.7861482 C71.8204497,31.7792317 71.289428,32.8158065 70.7771931,33.8422039 C70.265008,34.8686112 69.773068,35.9211175 69.3071556,36.9779668 C69.2478391,37.1142647 69.4518762,37.2360218 69.5111827,37.0968518 L69.5111827,37.0968618 C70.0098944,36.0588561 70.5230482,35.027105 71.0506541,34.0016782 Z" id="Path-1046" fill="#000000"></path>
                <path d="M61.4896266,22.2773535 C61.1996798,21.9462227 60.930008,21.6020966 60.6588652,21.2652067 C60.6053552,21.2119679 60.5227133,21.2012982 60.4573644,21.2391663 C60.1848206,21.4025558 59.8020843,21.6151318 59.4773214,21.4748683 C59.343131,21.4250629 59.2560859,21.2951299 59.2612798,21.152421 C59.2844871,21.0005795 59.4555751,20.8632405 59.5512267,20.7605556 C59.9557693,20.3368905 60.5574094,19.8655262 61.1460497,20.2646079 C61.2909982,20.3672529 61.479489,20.1315607 61.3402848,20.0144432 C60.5718901,19.3666541 59.6179265,20.1489277 59.1148703,20.7374395 C58.9643677,20.8862368 58.8957163,21.0986931 58.9307725,21.3071271 C58.9767069,21.4997212 59.1019806,21.6640489 59.2758206,21.7596972 C59.710776,22.0026456 60.2399218,21.7597272 60.6241192,21.5254623 L60.4226185,21.4994516 C60.724114,21.868171 61.0198652,22.2527803 61.3547757,22.5925846 C61.6143098,22.8557546 61.9564857,23.1319298 62.3464274,23.1376889 C62.4076933,23.1350339 62.4581411,23.0888018 62.466027,23.028157 C62.4739029,22.9675422 62.4368953,22.9100315 62.3783715,22.891876 L62.3797624,22.8860869 C62.0258577,22.7824339 61.7141046,22.5692789 61.4896266,22.2773535 Z" id="Path-2000" fill="#000000"></path>
                <path d="M60.100949,18.6428558 C60.4399692,18.6220564 60.7796699,18.6711588 61.09865,18.787028 C61.2828548,18.851904 61.3539061,18.5693316 61.1784401,18.4986935 C60.46074,18.23289 59.6592158,18.3172019 59.0133678,18.7264711 C58.9641885,18.7621882 58.9500743,18.8290347 58.980685,18.8813913 C59.0112957,18.933718 59.0767314,18.954587 59.1322671,18.9297373 L59.1322671,18.9311903 C59.4320679,18.7705279 59.7616787,18.6724028 60.100949,18.6428558 Z" id="Path-2001" fill="#000000"></path>
                <path d="M61.3246392,17.9506589 L61.3947236,17.9506589 L61.4195838,17.9506589 C61.3918303,17.9506589 61.4078896,17.9506589 61.4195838,17.9506589 L61.4590214,17.9593268 L61.5057276,17.9738232 C61.5242299,17.9738232 61.5271635,17.9738232 61.5145285,17.9738232 C61.4955153,17.9738232 61.5145284,17.9738232 61.5217869,17.9738232 C61.5503368,17.9874898 61.5777174,18.0034759 61.603626,18.0216314 L61.6196854,18.0331986 C61.6065193,18.0216314 61.6021441,18.0201718 61.6108845,18.0259703 L61.6196854,18.0331986 L61.6532154,18.0636211 L61.6839227,18.0969429 L61.6839227,18.0897146 C61.6874914,18.0956332 61.6919171,18.1010019 61.6970887,18.1056407 C61.714378,18.1298648 61.7295804,18.1555584 61.742313,18.1824018 C61.7511138,18.2012272 61.742313,18.1824018 61.742313,18.1751736 L61.7511138,18.1983279 C61.7566484,18.2134342 61.7610236,18.2289304 61.7642798,18.2446765 C61.7750466,18.2945343 61.8126998,18.3343744 61.8621783,18.348231 C61.9116467,18.3621176 61.9648149,18.3477112 62.0003108,18.3108302 C62.0358167,18.2739393 62.0478134,18.2206424 62.031502,18.1722843 C61.9340975,17.848634 61.6048458,17.6512326 61.2706141,17.7160367 C61.2402193,17.7240947 61.2144316,17.7441098 61.1992997,17.771443 C61.1840973,17.7988063 61.180841,17.8310883 61.1902569,17.860871 C61.2086551,17.9227158 61.2738804,17.958287 61.3363333,17.9405314 L61.3246392,17.9506589 L61.3246392,17.9506589 Z" id="Path-2002" fill="#000000"></path>
                <path d="M62.8490092,18.0450812 C62.8934881,18.1490273 62.9365214,18.2515085 62.9795547,18.3554546 C62.9869316,18.4163115 63.0317076,18.4658779 63.0912373,18.479012 C63.1507671,18.492146 63.21199,18.4659975 63.2440224,18.4138401 C63.2760548,18.3616528 63.2718267,18.2948368 63.2334473,18.2471537 L63.0900293,17.9440151 C63.0477882,17.8395209 62.9964175,17.7390427 62.9365214,17.6437364 C62.9073903,17.5951664 62.8472565,17.5755551 62.7953413,17.5976975 C62.7434261,17.6198101 62.7155624,17.6769501 62.7299497,17.7317781 L62.7285634,17.7317881 C62.7601701,17.8393515 62.8004804,17.9441147 62.8490092,18.0450812 Z" id="Path-2003" fill="#000000"></path>
                <path d="M64.2749147,19.7011954 C64.3167052,19.955908 64.3433029,20.2128555 64.3545876,20.470715 C64.3661222,20.7335055 64.3545277,20.9977591 64.3545277,21.2605495 C64.3617843,21.4289816 64.6325983,21.4870599 64.6644434,21.3026626 C64.7344808,20.7577891 64.7114815,20.204928 64.5964251,19.6678216 C64.5003398,19.1268668 64.3358663,18.600404 64.1069628,18.1011913 C64.0432125,17.9560006 63.7956477,18.0605415 63.8535408,18.2086386 L63.8607974,18.2086386 C64.0513787,18.6899918 64.1902341,19.190327 64.2749147,19.7011954 Z" id="Path-2004" fill="#000000"></path>
                <g id="Group-17" transform="translate(14.1933, 27.0372)" fill="#65D5C9">
                    <path d="M0,0 L10,0 L10,7 C10,9.76142375 7.76142375,12 5,12 C2.23857625,12 1.69088438e-16,9.76142375 0,7 L0,0 L0,0 Z" id="Path-3"></path>
                    <path d="M9,2 C9.5,2 10,2 10.5,2 C12.4329966,2 14,3.56700338 14,5.5 C14,7.43299662 12.4329966,9 10.5,9 L9,9 L9,9 L9,8.07805953 L9.98422216,8.07805953 C11.3527354,8.07805953 12.4621345,6.96866037 12.4621345,5.60014715 C12.4621345,4.23163393 11.3527354,3.12223477 9.98422216,3.12223477 L9,3.12223477 L9,3.12223477 C9,2.37407826 9,2 9,2 Z" id="Path-5"></path>
                </g>
            </g>
        </g>
    </g>
</svg>