<svg width="492" height="348" viewBox="0 0 492 348" xmlns="http://www.w3.org/2000/svg" xmlns:xlink="http://www.w3.org/1999/xlink">
    <defs>
        <filter x="-24.7%" y="-42.9%" width="149.4%" height="220%" filterUnits="objectBoundingBox" id="afx9wt57wa">
            <feOffset dy="12" in="SourceAlpha" result="shadowOffsetOuter1"/>
            <feGaussianBlur stdDeviation="12" in="shadowOffsetOuter1" result="shadowBlurOuter1"/>
            <feColorMatrix values="0 0 0 0 0 0 0 0 0 0 0 0 0 0 0 0 0 0 0.08 0" in="shadowBlurOuter1"/>
        </filter>
        <filter x="-25.9%" y="-44.8%" width="151.9%" height="225.4%" filterUnits="objectBoundingBox" id="yhl7tb1x1c">
            <feOffset dy="12" in="SourceAlpha" result="shadowOffsetOuter1"/>
            <feGaussianBlur stdDeviation="12" in="shadowOffsetOuter1" result="shadowBlurOuter1"/>
            <feColorMatrix values="0 0 0 0 0 0 0 0 0 0 0 0 0 0 0 0 0 0 0.08 0" in="shadowBlurOuter1"/>
        </filter>
        <filter x="-25.9%" y="-44.8%" width="151.9%" height="225.4%" filterUnits="objectBoundingBox" id="ge0t0ceike">
            <feOffset dy="12" in="SourceAlpha" result="shadowOffsetOuter1"/>
            <feGaussianBlur stdDeviation="12" in="shadowOffsetOuter1" result="shadowBlurOuter1"/>
            <feColorMatrix values="0 0 0 0 0 0 0 0 0 0 0 0 0 0 0 0 0 0 0.08 0" in="shadowBlurOuter1"/>
        </filter>
        <path d="M84 223.744c0-2.477 1.813-4.488 4.048-4.488h130.641L233.316 204l.515 15.256h16.121c2.235 0 4.048 2.01 4.048 4.488v45.769c0 2.477-1.813 4.487-4.048 4.487H88.048c-2.235 0-4.048-2.01-4.048-4.487v-45.77z" id="0a5kz6vt6b"/>
        <path d="M3 69.467C3 67 4.814 65 7.05 65h153.9c2.236 0 4.05 2.001 4.05 4.467v45.56c0 2.465-1.814 4.466-4.05 4.466h-16.442L145.06 132l-15.647-12.507H7.05c-2.236 0-4.05-2-4.05-4.466v-45.56z" id="a8sk846d5d"/>
        <path d="M285 21.467C285 19 286.814 17 289.05 17h153.9c2.236 0 4.05 2.001 4.05 4.467v45.56c0 2.465-1.814 4.466-4.05 4.466H321.629c-1.425 0-2.744.822-3.476 2.171L312.548 84l-6.345-10.515c-.751-1.241-2.017-1.992-3.372-1.992H289.05c-2.236 0-4.05-2-4.05-4.466v-45.56z" id="v8gx1o6kof"/>
    </defs>
    <g fill="none" fill-rule="evenodd">
        <path d="M401.155 124.89a63.507 63.507 0 0 1 .77 26.833c-1.66 8.9-5.2 17.319-10.373 24.658-7.725 10.773-18.736 18.817-25.594 30.152-14.821 24.48-6.865 57.895-20.46 83.106-11.364 21.09-34.905 31.453-56.765 40.344-17.164 6.974-34.501 14.001-52.696 16.81-18.195 2.81-37.763 1.026-53.53-8.668-13.001-7.964-22.554-20.6-31.377-33.22-21.688-31.051-41.29-64.85-47.95-102.412-6.66-37.553 1.647-79.681 28.957-105.668 13.295-12.655 30.708-21.385 40.089-37.295 9.844-16.694 9.981-39.997 25.284-51.626 5.648-4.298 12.668-6.296 19.636-7.24 16.778-2.212 33.807 1.14 48.586 9.568 14.994 8.606 27.301 22.277 43.634 27.78 21.139 7.125 48.268 1.65 62.317 22.74 11.286 16.962 24.46 44.384 29.472 64.137z" fill="#F2F5F9" fill-rule="nonzero"/>
        <path d="M174 240.414C174 220.856 188.498 205 206.381 205h54.238C278.502 205 293 220.856 293 240.414v31.172C293 291.144 278.502 307 260.619 307h-54.238C188.498 307 174 291.144 174 271.586v-31.172z" fill="#997659" fill-rule="nonzero"/>
        <path d="M257.021 77.75c5.253 3.239 10.415 4.8 12.837 4.158 6.076-1.597 6.634-24.316 1.933-33.266-4.7-8.959-28.865-12.858-30.083 4.881-.423 6.157 2.107 11.654 5.845 16.142l-6.702 31.927h19.468L257.02 77.75z" fill="#F7C2B2"/>
        <path d="M246.057 73.654c-2.444-11.11-9.404-18.685-8.342-23.647 1.064-4.97 5.667-6.174 5.667-6.174s2.382-9.852 15.36-8.38c8.957-.918 16.356-4.015 22.502-1.472 4.608 3.686 2.147 15.616-8.09 17.775-3.145 0-3.875 1.633-9.123 3.632-2.499.946-3.574 5.872-3.574 5.872h-2.372s-3.453-5.845-6.81-4.301c-3.357 1.552-1.526 7.54-1.526 7.54l-1.169 9.155h-2.523z" fill="#191847"/>
        <path d="M373.2 303.88c-15.993-19.96-26.814-34.755-32.464-44.392-9.673-16.5-17.59-31.178-20.088-36.782-5.958-13.375 13.716-19.64 18.168-13.402 6.74 9.44 21.132 39.146 43.178 89.124l-8.794 5.453z" fill="#F6C2B2"/>
        <path d="M356.193 291.54c-8.816 3.658-18.685-.973-22.39-10.503l-23.14-59.535c-6.365-13.956 24.377-23.129 29.055-16.633 6.54 9.075 18.625 34.63 27.686 53.95 5.466 11.653-.055 28.099-11.211 32.72z" fill="#33B074"/>
        <path d="M261.157 282.724c5.798-8.647 26.887-37.727 38.373-49.756a807.07 807.07 0 0 1 9.567-9.869c9.055-9.2 27.085 6.255 18.047 14.625-22.507 20.854-55.346 49.006-58.09 51.514-3.846 3.515-11.541-1.08-7.897-6.514z" fill="#F6C2B2"/>
        <path d="M268.459 282.982c-3.251-1.918-7.564-3.587-9.71-.267-.049.071-.093.151-.135.223-1.868 3.301-.311 7.37 2.809 9.209 7.267 4.292 20.076 11.85 27.8 16.41 3.843 2.266 11.391-.161 7.845-2.883a347.245 347.245 0 0 1-2.898-2.257 19.754 19.754 0 0 1-3.86-4.087l-10.69-15.054c-1.006-1.418-2.951-1.677-4.343-.58-.631.491-1.412.732-2.18.616-1.31-.187-3.39-.598-4.638-1.33zM373.507 301.462c-3.772 0-8.548.848-8.548 4.997 0 3.828 3.236 6.541 6.715 6.541h32.524c4.327 0 9.484-5.97 5.185-6.505-1.408-.178-2.64-.34-3.638-.473a18.96 18.96 0 0 1-5.305-1.561l-16.727-7.62c-1.525-.697-3.275.07-3.944 1.74-.31.767-.869 1.373-1.584 1.668-1.23.5-3.235 1.213-4.678 1.213z" fill="#AFB9C5"/>
        <path d="M300.077 225.374a.784.784 0 0 0-.245-.062c-2.33-.393-37.406-6.237-49.587-8.432-23.31-4.203-30.547-16.794-27.11-43.956.165-1.303 1.188-2.266 2.386-2.266h41.724c.213 0 .39.017.594.08 9.67 3.052 71.978 31.463 72.91 31.891.03.01.026.01.055.027 7.68 3.935 6.243 15.464 4.833 19.265-.078.205-31.203 54.664-37.849 66.29-.701 1.232-2.143 1.58-3.278.84l-31.588-20.569c-1.293-.838-1.59-2.757-.626-4.024l27.563-36.148c.108-.143.203-.294.273-.464.248-.598.767-2.088-.055-2.472z" fill="#36C982"/>
        <path d="m338.257 133.038-18.135 27.072-10.074-11.707 20.028-17.498c2.435-3.543 4.327-6.666 5.807-9.102 2.372-3.917 3.683-6.085 4.47-5.416 1.066.892.598 2.24.167 3.471-.344.99-.665 1.91-.168 2.49.724.838 2.597-.26 4.973-1.66 1.305-.768 2.761-1.624 4.263-2.302 4.236-1.901 3.646.535 2.931 1.891-3.511 4.31-8.265 8.567-14.262 12.76zm-131.475 21.665-16.623-3.373c-11.273 30.374-17.993 47.016-20.162 49.925-1.59 2.142-11.396 7.647-18.034 10.592-2.665 1.178-2.092 3.48-1.31 4.212 4.928 4.649 9.51 3.016 14.498 1.249 1.445-.518 2.923-1.044 4.452-1.428 3.961-1.008 5.167 1.071 6.306 3.043 1.009 1.74 1.965 3.39 4.736 2.73a93.297 93.297 0 0 0-.448-1.847c-1.08-4.345-2.673-10.752-.31-14.473 1.213-1.91 10.178-18.783 26.895-50.63z" fill="#F6C2B2"/>
        <path d="M334.75 130.566a4.407 4.407 0 0 0-.098 3.248 4.287 4.287 0 0 0 2.146 2.4 21.253 21.253 0 0 0 8.338 2.213c1.97.464 4.68-1.097 6.066-4.042 1.385-2.954 8.316-17.356 11.166-25.065a4.502 4.502 0 0 0-.099-3.48 4.385 4.385 0 0 0-1.035-1.42 4.206 4.206 0 0 0-1.502-.891l-8.413-1.865a4.22 4.22 0 0 0-3.025.196 4.324 4.324 0 0 0-2.129 2.204l-11.414 26.502z" fill="#3D3D54" fill-rule="nonzero"/>
        <path d="m359.908 107.803-12.418 26.832a1.562 1.562 0 0 1-.745.705c-.32.142-.677.17-1.014.08l-7.677-2.802c-.293-.107-.614-.152-.87-.339a.987.987 0 0 1-.31-.348 1.071 1.071 0 0 1-.048-.919l11.64-26.02c.162-.312.425-.562.744-.705.32-.143.678-.17 1.014-.08l8.924 2.123c.154.027.3.099.428.188a1.063 1.063 0 0 1 .332 1.285z" fill="#C3DBEE" fill-rule="nonzero"/>
        <path d="M251.887 92.732c.003-2.874 1.956-5.292 4.545-5.747 1.608-.277 3.252.223 4.366 1.508 13.968 16.106 20.103 49.782 29.87 54.405 8.688 4.104 15.518-.42 28.692-5.72 2.813-1.133 5.927-.616 8.346 1.267 4.518 3.525 5.22 10.654.976 14.679-18.05 17.141-41.304 24.378-52.416 17.516-19.08-11.788-24.399-51.987-24.379-77.908z" fill="#0C3970"/>
        <path d="M221.383 177.868h62.063c2.837 0 2.302-4.185 1.892-6.3-4.731-24.378-23.202-50.648-23.202-85.35l-17.901-2.865c-14.808 24.334-19.928 54.307-22.852 94.515z" fill="#F2F6F9"/>
        <path d="M243.87 83.353c-.518 0-1.03.152-1.477.429-37.403 23.816-60.896 59.812-70.479 107.988-1.006 5.068 2.102 9.94 6.736 10.868 2.888.58 5.856-.49 7.754-2.953 7.463-9.682 16.284-23.763 26.465-42.252.336-.606 1.23-.178 1.053.51-5.091 19.782 9.565 37.334 28.252 37.334 12.908 0 24.365-8.843 24.043-23.04-.678-29.866-11.392-71.751-14.927-84.824-.66-2.445-2.696-4.06-5.01-4.06-.119 0-.236 0-.353.01-.68.053-1.376-.01-2.057-.01z" fill="#0C3970"/>
        <g fill-rule="nonzero" transform="translate(21)">
            <use fill="#000" filter="url(#afx9wt57wa)" xlink:href="#0a5kz6vt6b"/>
            <use fill="#FFF" xlink:href="#0a5kz6vt6b"/>
        </g>
        <g fill-rule="nonzero" transform="translate(21)">
            <use fill="#000" filter="url(#yhl7tb1x1c)" xlink:href="#a8sk846d5d"/>
            <use fill="#FFF" xlink:href="#a8sk846d5d"/>
        </g>
        <g fill-rule="nonzero" transform="translate(21)">
            <use fill="#000" filter="url(#ge0t0ceike)" xlink:href="#v8gx1o6kof"/>
            <use fill="#FFF" xlink:href="#v8gx1o6kof"/>
        </g>
        <text font-family="Nunito-SemiBold, Nunito" font-size="15" font-weight="500" fill="#0C3970" transform="translate(21)">
                    <tspan x="293.04" y="47">CREAR MI EMPRESA</tspan>
                </text>
        <text font-family="Nunito-SemiBold, Nunito" font-size="15" font-weight="500" fill="#0C3970" transform="translate(21)">
                    <tspan x=".018" y="99">REGISTRAR MI MARCA</tspan>
                </text>
        <text font-family="Nunito-SemiBold, Nunito" font-size="15" font-weight="500" fill="#0C3970" transform="translate(21)">
                    <tspan x="99.828" y="253">CREAR CONTRATO</tspan>
                </text>
    </g>
</svg>
